  0
SECTION
  2
HEADER
  9
$ACADVER
  1
AC1015
  9
$ACADMAINTVER
 70
     6
  9
$DWGCODEPAGE
  3
ANSI_1252
  9
$INSBASE
 10
0.0
 20
0.0
 30
0.0
  9
$EXTMIN
 10
-0.3829056608
 20
-0.4730432157
 30
0.0
  9
$EXTMAX
 10
4.8226042306
 20
12.2972021307
 30
0.0
  9
$LIMMIN
 10
0.0
 20
0.0
  9
$LIMMAX
 10
420.0
 20
297.0
  9
$ORTHOMODE
 70
     0
  9
$REGENMODE
 70
     1
  9
$FILLMODE
 70
     1
  9
$QTEXTMODE
 70
     0
  9
$MIRRTEXT
 70
     1
  9
$LTSCALE
 40
1.0
  9
$ATTMODE
 70
     1
  9
$TEXTSIZE
 40
0.35
  9
$TRACEWID
 40
1.0
  9
$TEXTSTYLE
  7
Standard
  9
$CLAYER
  8
0
  9
$CELTYPE
  6
ByLayer
  9
$CECOLOR
 62
   256
  9
$CELTSCALE
 40
1.0
  9
$DISPSILH
 70
     0
  9
$DIMSCALE
 40
1.0
  9
$DIMASZ
 40
0.3302
  9
$DIMEXO
 40
0.0
  9
$DIMDLI
 40
3.75
  9
$DIMRND
 40
0.0
  9
$DIMDLE
 40
0.0
  9
$DIMEXE
 40
0.1
  9
$DIMTP
 40
0.0
  9
$DIMTM
 40
0.0
  9
$DIMTXT
 40
0.35
  9
$DIMCEN
 40
2.5
  9
$DIMTSZ
 40
0.0
  9
$DIMTOL
 70
     0
  9
$DIMLIM
 70
     0
  9
$DIMTIH
 70
     1
  9
$DIMTOH
 70
     1
  9
$DIMSE1
 70
     0
  9
$DIMSE2
 70
     0
  9
$DIMTAD
 70
     1
  9
$DIMZIN
 70
     1
  9
$DIMBLK
  1

  9
$DIMASO
 70
     1
  9
$DIMSHO
 70
     1
  9
$DIMPOST
  1

  9
$DIMAPOST
  1

  9
$DIMALT
 70
     0
  9
$DIMALTD
 70
     3
  9
$DIMALTF
 40
0.3937007874
  9
$DIMLFAC
 40
1.0
  9
$DIMTOFL
 70
     1
  9
$DIMTVP
 40
0.0
  9
$DIMTIX
 70
     0
  9
$DIMSOXD
 70
     0
  9
$DIMSAH
 70
     0
  9
$DIMBLK1
  1

  9
$DIMBLK2
  1

  9
$DIMSTYLE
  2
ISO-25
  9
$DIMCLRD
 70
     0
  9
$DIMCLRE
 70
     0
  9
$DIMCLRT
 70
     0
  9
$DIMTFAC
 40
1.0
  9
$DIMGAP
 40
0.1524
  9
$DIMJUST
 70
     0
  9
$DIMSD1
 70
     0
  9
$DIMSD2
 70
     0
  9
$DIMTOLJ
 70
     0
  9
$DIMTZIN
 70
     1
  9
$DIMALTZ
 70
     0
  9
$DIMALTTZ
 70
     0
  9
$DIMUPT
 70
     0
  9
$DIMDEC
 70
     2
  9
$DIMTDEC
 70
     2
  9
$DIMALTU
 70
     2
  9
$DIMALTTD
 70
     3
  9
$DIMTXSTY
  7
Standard
  9
$DIMAUNIT
 70
     0
  9
$DIMADEC
 70
     2
  9
$DIMALTRND
 40
0.0
  9
$DIMAZIN
 70
     0
  9
$DIMDSEP
 70
    44
  9
$DIMATFIT
 70
     3
  9
$DIMFRAC
 70
     0
  9
$DIMLDRBLK
  1

  9
$DIMLUNIT
 70
     2
  9
$DIMLWD
 70
    -2
  9
$DIMLWE
 70
    -2
  9
$DIMTMOVE
 70
     0
  9
$LUNITS
 70
     2
  9
$LUPREC
 70
     2
  9
$SKETCHINC
 40
1.0
  9
$FILLETRAD
 40
0.0
  9
$AUNITS
 70
     0
  9
$AUPREC
 70
     2
  9
$MENU
  1
.
  9
$ELEVATION
 40
0.0
  9
$PELEVATION
 40
0.0
  9
$THICKNESS
 40
0.0
  9
$LIMCHECK
 70
     0
  9
$CHAMFERA
 40
0.0
  9
$CHAMFERB
 40
0.0
  9
$CHAMFERC
 40
0.0
  9
$CHAMFERD
 40
0.0
  9
$SKPOLY
 70
     0
  9
$TDCREATE
 40
2460253.488813264
  9
$TDUCREATE
 40
2460253.259646598
  9
$TDUPDATE
 40
2460253.488924792
  9
$TDUUPDATE
 40
2460253.259758125
  9
$TDINDWG
 40
0.0000000116
  9
$TDUSRTIMER
 40
0.0000000116
  9
$USRTIMER
 70
     1
  9
$ANGBASE
 50
0.0
  9
$ANGDIR
 70
     0
  9
$PDMODE
 70
     0
  9
$PDSIZE
 40
-1.0
  9
$PLINEWID
 40
0.0
  9
$SPLFRAME
 70
     0
  9
$SPLINETYPE
 70
     6
  9
$SPLINESEGS
 70
     8
  9
$HANDSEED
  5
11B
  9
$SURFTAB1
 70
     6
  9
$SURFTAB2
 70
     6
  9
$SURFTYPE
 70
     6
  9
$SURFU
 70
     6
  9
$SURFV
 70
     6
  9
$UCSBASE
  2

  9
$UCSNAME
  2

  9
$UCSORG
 10
0.0
 20
0.0
 30
0.0
  9
$UCSXDIR
 10
1.0
 20
0.0
 30
0.0
  9
$UCSYDIR
 10
0.0
 20
1.0
 30
0.0
  9
$UCSORTHOREF
  2

  9
$UCSORTHOVIEW
 70
     0
  9
$UCSORGTOP
 10
0.0
 20
0.0
 30
0.0
  9
$UCSORGBOTTOM
 10
0.0
 20
0.0
 30
0.0
  9
$UCSORGLEFT
 10
0.0
 20
0.0
 30
0.0
  9
$UCSORGRIGHT
 10
0.0
 20
0.0
 30
0.0
  9
$UCSORGFRONT
 10
0.0
 20
0.0
 30
0.0
  9
$UCSORGBACK
 10
0.0
 20
0.0
 30
0.0
  9
$PUCSBASE
  2

  9
$PUCSNAME
  2

  9
$PUCSORG
 10
0.0
 20
0.0
 30
0.0
  9
$PUCSXDIR
 10
1.0
 20
0.0
 30
0.0
  9
$PUCSYDIR
 10
0.0
 20
1.0
 30
0.0
  9
$PUCSORTHOREF
  2

  9
$PUCSORTHOVIEW
 70
     0
  9
$PUCSORGTOP
 10
0.0
 20
0.0
 30
0.0
  9
$PUCSORGBOTTOM
 10
0.0
 20
0.0
 30
0.0
  9
$PUCSORGLEFT
 10
0.0
 20
0.0
 30
0.0
  9
$PUCSORGRIGHT
 10
0.0
 20
0.0
 30
0.0
  9
$PUCSORGFRONT
 10
0.0
 20
0.0
 30
0.0
  9
$PUCSORGBACK
 10
0.0
 20
0.0
 30
0.0
  9
$USERI1
 70
     0
  9
$USERI2
 70
     0
  9
$USERI3
 70
     0
  9
$USERI4
 70
     0
  9
$USERI5
 70
     0
  9
$USERR1
 40
0.0
  9
$USERR2
 40
0.0
  9
$USERR3
 40
0.0
  9
$USERR4
 40
0.0
  9
$USERR5
 40
0.0
  9
$WORLDVIEW
 70
     1
  9
$SHADEDGE
 70
     3
  9
$SHADEDIF
 70
    70
  9
$TILEMODE
 70
     1
  9
$MAXACTVP
 70
    64
  9
$PINSBASE
 10
0.0
 20
0.0
 30
0.0
  9
$PLIMCHECK
 70
     0
  9
$PEXTMIN
 10
1.0000000000E+20
 20
1.0000000000E+20
 30
1.0000000000E+20
  9
$PEXTMAX
 10
-1.0000000000E+20
 20
-1.0000000000E+20
 30
-1.0000000000E+20
  9
$PLIMMIN
 10
0.0
 20
0.0
  9
$PLIMMAX
 10
420.0
 20
297.0
  9
$UNITMODE
 70
     0
  9
$VISRETAIN
 70
     1
  9
$PLINEGEN
 70
     0
  9
$PSLTSCALE
 70
     1
  9
$TREEDEPTH
 70
  3020
  9
$CMLSTYLE
  2
Standard
  9
$CMLJUST
 70
     0
  9
$CMLSCALE
 40
20.0
  9
$PROXYGRAPHICS
 70
     1
  9
$MEASUREMENT
 70
     1
  9
$CELWEIGHT
370
    -1
  9
$ENDCAPS
280
     0
  9
$JOINSTYLE
280
     0
  9
$LWDISPLAY
290
     1
  9
$INSUNITS
 70
     5
  9
$HYPERLINKBASE
  1

  9
$STYLESHEET
  1

  9
$XEDIT
290
     1
  9
$CEPSNTYPE
380
     0
  9
$PSTYLEMODE
290
     1
  9
$FINGERPRINTGUID
  2
{eee7e1df-c346-4331-9871-2cd853e7713b}
  9
$VERSIONGUID
  2
{FAEB1C32-E019-11D5-929B-00C0DF256EC4}
  9
$EXTNAMES
290
     1
  9
$PSVPSCALE
 40
0.0
  9
$OLESTARTUP
290
     0
  0
ENDSEC
  0
SECTION
  2
CLASSES
  0
CLASS
  1
ACDBDICTIONARYWDFLT
  2
AcDbDictionaryWithDefault
  3
ObjectDBX Classes
 90
        0
280
     0
281
     0
  0
CLASS
  1
VISUALSTYLE
  2
AcDbVisualStyle
  3
ObjectDBX Classes
 90
     4095
280
     0
281
     0
  0
CLASS
  1
MATERIAL
  2
AcDbMaterial
  3
ObjectDBX Classes
 90
     1153
280
     0
281
     0
  0
CLASS
  1
SCALE
  2
AcDbScale
  3
ObjectDBX Classes
 90
     1153
280
     0
281
     0
  0
CLASS
  1
TABLESTYLE
  2
AcDbTableStyle
  3
ObjectDBX Classes
 90
     4095
280
     0
281
     0
  0
CLASS
  1
MLEADERSTYLE
  2
AcDbMLeaderStyle
  3
ACDB_MLEADERSTYLE_CLASS
 90
     4095
280
     0
281
     0
  0
CLASS
  1
SUN
  2
AcDbSun
  3
SCENEOE
 90
     1153
280
     0
281
     0
  0
CLASS
  1
ACDBPLACEHOLDER
  2
AcDbPlaceHolder
  3
ObjectDBX Classes
 90
        0
280
     0
281
     0
  0
CLASS
  1
LAYOUT
  2
AcDbLayout
  3
ObjectDBX Classes
 90
        0
280
     0
281
     0
  0
ENDSEC
  0
SECTION
  2
TABLES
  0
TABLE
  2
VPORT
  5
8
330
0
100
AcDbSymbolTable
 70
     1
  0
VPORT
  5
29
330
8
100
AcDbSymbolTableRecord
100
AcDbViewportTableRecord
  2
*Active
 70
     0
 10
0.0
 20
0.0
 11
1.0
 21
1.0
 12
2.2198492849
 22
5.9120794575
 13
0.0
 23
0.0
 14
10.0
 24
10.0
 15
10.0
 25
10.0
 16
0.0
 26
0.0
 36
1.0
 17
0.0
 27
0.0
 37
0.0
 40
13.0256502533
 41
0.4076280252
 42
50.0
 43
0.0
 44
0.0
 50
0.0
 51
0.0
 71
     0
 72
   100
 73
     1
 74
     3
 75
     0
 76
     0
 77
     0
 78
     0
281
     0
 65
     1
110
0.0
120
0.0
130
0.0
111
1.0
121
0.0
131
0.0
112
0.0
122
1.0
132
0.0
 79
     0
146
0.0
  0
ENDTAB
  0
TABLE
  2
LTYPE
  5
5
330
0
100
AcDbSymbolTable
 70
     6
  0
LTYPE
  5
14
330
5
100
AcDbSymbolTableRecord
100
AcDbLinetypeTableRecord
  2
ByBlock
 70
     0
  3

 72
    65
 73
     0
 40
0.0
  0
LTYPE
  5
15
330
5
100
AcDbSymbolTableRecord
100
AcDbLinetypeTableRecord
  2
ByLayer
 70
     0
  3

 72
    65
 73
     0
 40
0.0
  0
LTYPE
  5
16
330
5
100
AcDbSymbolTableRecord
100
AcDbLinetypeTableRecord
  2
Continuous
 70
     0
  3
Solid line
 72
    65
 73
     0
 40
0.0
  0
LTYPE
  5
5E
330
5
100
AcDbSymbolTableRecord
100
AcDbLinetypeTableRecord
  2
HIDDEN
 70
     0
  3
Hidden __ __ __ __ __ __ __ __ __ __ __ __ __ __
 72
    65
 73
     2
 40
0.1905
 49
0.127
 74
     0
 49
-0.0635
 74
     0
  0
LTYPE
  5
5F
330
5
100
AcDbSymbolTableRecord
100
AcDbLinetypeTableRecord
  2
PHANTOM
 70
     0
  3
Phantom ______  __  __  ______  __  __  ______
 72
    65
 73
     6
 40
1.27
 49
0.635
 74
     0
 49
-0.127
 74
     0
 49
0.127
 74
     0
 49
-0.127
 74
     0
 49
0.127
 74
     0
 49
-0.127
 74
     0
  0
LTYPE
  5
60
330
5
100
AcDbSymbolTableRecord
100
AcDbLinetypeTableRecord
  2
CENTER
 70
     0
  3
Center ____ _ ____ _ ____ _ ____ _ ____ _ ____
 72
    65
 73
     4
 40
1.016
 49
0.635
 74
     0
 49
-0.127
 74
     0
 49
0.127
 74
     0
 49
-0.127
 74
     0
  0
LTYPE
  5
61
330
5
100
AcDbSymbolTableRecord
100
AcDbLinetypeTableRecord
  2
CENTERX2
 70
     0
  3
Center (2x) ________  __  ________  __  _____
 72
    65
 73
     4
 40
2.032
 49
1.27
 74
     0
 49
-0.254
 74
     0
 49
0.254
 74
     0
 49
-0.254
 74
     0
  0
LTYPE
  5
62
330
5
100
AcDbSymbolTableRecord
100
AcDbLinetypeTableRecord
  2
DOT2
 70
     0
  3
Dot (.5x) ........................................
 72
    65
 73
     2
 40
0.0635
 49
0.0
 74
     0
 49
-0.0635
 74
     0
  0
ENDTAB
  0
TABLE
  2
LAYER
  5
2
330
0
100
AcDbSymbolTable
 70
     1
  0
LAYER
  5
10
330
2
100
AcDbSymbolTableRecord
100
AcDbLayerTableRecord
  2
0
 70
     0
 62
     7
  6
Continuous
370
    -3
390
F
  0
ENDTAB
  0
TABLE
  2
STYLE
  5
3
330
0
100
AcDbSymbolTable
 70
     1
  0
STYLE
  5
11
330
3
100
AcDbSymbolTableRecord
100
AcDbTextStyleTableRecord
  2
Standard
 70
     0
 40
0.0
 41
1.0
 50
0.0
 71
     0
 42
0.35
  3
txt
  4

  0
ENDTAB
  0
TABLE
  2
VIEW
  5
6
330
0
100
AcDbSymbolTable
 70
     0
  0
ENDTAB
  0
TABLE
  2
UCS
  5
7
330
0
100
AcDbSymbolTable
 70
     0
  0
ENDTAB
  0
TABLE
  2
APPID
  5
9
330
0
100
AcDbSymbolTable
 70
     1
  0
APPID
  5
12
330
9
100
AcDbSymbolTableRecord
100
AcDbRegAppTableRecord
  2
ACAD
 70
     0
  0
ENDTAB
  0
TABLE
  2
DIMSTYLE
  5
A
330
0
100
AcDbSymbolTable
 70
     1
100
AcDbDimStyleTable
  0
DIMSTYLE
105
27
330
A
100
AcDbSymbolTableRecord
100
AcDbDimStyleTableRecord
  2
ISO-25
 70
     0
 41
2.5
 42
0.625
 43
3.75
 44
1.25
 73
     0
 74
     0
 77
     1
 78
     8
140
2.5
141
2.5
143
0.0393700787
147
0.625
171
     3
172
     1
178
     0
271
     2
272
     2
274
     3
278
    44
283
     0
284
     8
340
11
  0
ENDTAB
  0
TABLE
  2
BLOCK_RECORD
  5
1
330
0
100
AcDbSymbolTable
 70
     1
  0
BLOCK_RECORD
  5
1F
330
1
100
AcDbSymbolTableRecord
100
AcDbBlockTableRecord
  2
*Model_Space
340
22
  0
BLOCK_RECORD
  5
1B
330
1
100
AcDbSymbolTableRecord
100
AcDbBlockTableRecord
  2
*Paper_Space
340
1E
  0
BLOCK_RECORD
  5
23
330
1
100
AcDbSymbolTableRecord
100
AcDbBlockTableRecord
  2
*Paper_Space0
340
26
  0
ENDTAB
  0
ENDSEC
  0
SECTION
  2
BLOCKS
  0
BLOCK
  5
20
330
1F
100
AcDbEntity
  8
0
100
AcDbBlockBegin
  2
*Model_Space
 70
     0
 10
0.0
 20
0.0
 30
0.0
  3
*Model_Space
  1

  0
ENDBLK
  5
21
330
1F
100
AcDbEntity
  8
0
100
AcDbBlockEnd
  0
BLOCK
  5
1C
330
1B
100
AcDbEntity
 67
     1
  8
0
100
AcDbBlockBegin
  2
*Paper_Space
 70
     0
 10
0.0
 20
0.0
 30
0.0
  3
*Paper_Space
  1

  0
ENDBLK
  5
1D
330
1B
100
AcDbEntity
 67
     1
  8
0
100
AcDbBlockEnd
  0
BLOCK
  5
24
330
23
100
AcDbEntity
  8
0
100
AcDbBlockBegin
  2
*Paper_Space0
 70
     0
 10
0.0
 20
0.0
 30
0.0
  3
*Paper_Space0
  1

  0
ENDBLK
  5
25
330
23
100
AcDbEntity
  8
0
100
AcDbBlockEnd
  0
ENDSEC
  0
SECTION
  2
ENTITIES
  0
CIRCLE
  5
63
330
1F
100
AcDbEntity
  8
0
  6
Continuous
 62
     7
100
AcDbCircle
 10
0.5917800755
 20
0.0170201873
 30
0.0
 40
0.3000000000000001
  0
CIRCLE
  5
64
330
1F
100
AcDbEntity
  8
0
  6
Continuous
 62
     7
100
AcDbCircle
 10
2.3517800755
 20
0.019075371
 30
0.0
 40
0.3000000000000001
  0
CIRCLE
  5
65
330
1F
100
AcDbEntity
  8
0
  6
Continuous
 62
     7
100
AcDbCircle
 10
3.0531078192
 20
0.019894324
 30
0.0
 40
0.2400000000000004
  0
CIRCLE
  5
66
330
1F
100
AcDbEntity
  8
0
  6
Continuous
 62
     7
100
AcDbCircle
 10
3.6131078192
 20
0.0205482461
 30
0.0
 40
0.1799999999999999
  0
CIRCLE
  5
67
330
1F
100
AcDbEntity
  8
0
  6
Continuous
 62
     7
100
AcDbCircle
 10
1.4717800755
 20
0.0180477791
 30
0.0
 40
0.3999999999999996
  0
CIRCLE
  5
68
330
1F
100
AcDbEntity
  8
0
  6
Continuous
 62
     7
100
AcDbCircle
 10
4.0131078192
 20
0.0210153333
 30
0.0
 40
0.0799999999999999
  0
CIRCLE
  5
69
330
1F
100
AcDbEntity
  8
0
  6
Continuous
 62
     7
100
AcDbCircle
 10
0.3767079325
 20
1.1998308903
 30
0.0
 40
0.0800000000000001
  0
CIRCLE
  5
6A
330
1F
100
AcDbEntity
  8
0
  6
Continuous
 62
     7
100
AcDbCircle
 10
2.9180356762
 20
1.1968633362
 30
0.0
 40
0.4000000000000005
  0
CIRCLE
  5
6B
330
1F
100
AcDbEntity
  8
0
  6
Continuous
 62
     7
100
AcDbCircle
 10
0.7767079325
 20
1.1993638031
 30
0.0
 40
0.1800000000000001
  0
CIRCLE
  5
6C
330
1F
100
AcDbEntity
  8
0
  6
Continuous
 62
     7
100
AcDbCircle
 10
1.3367079325
 20
1.1987098811
 30
0.0
 40
0.2400000000000002
  0
CIRCLE
  5
6D
330
1F
100
AcDbEntity
  8
0
  6
Continuous
 62
     7
100
AcDbCircle
 10
2.0380356762
 20
1.197890928
 30
0.0
 40
0.3000000000000005
  0
CIRCLE
  5
6E
330
1F
100
AcDbEntity
  8
0
  6
Continuous
 62
     7
100
AcDbCircle
 10
3.7980356762
 20
1.1958357443
 30
0.0
 40
0.3000000000000005
  0
CIRCLE
  5
6F
330
1F
100
AcDbEntity
  8
0
  6
Continuous
 62
     7
100
AcDbCircle
 10
0.5216926206
 20
2.4145005647
 30
0.0
 40
0.3000000000000008
  0
CIRCLE
  5
70
330
1F
100
AcDbEntity
  8
0
  6
Continuous
 62
     7
100
AcDbCircle
 10
2.2816926206
 20
2.4165557483
 30
0.0
 40
0.3000000000000002
  0
CIRCLE
  5
71
330
1F
100
AcDbEntity
  8
0
  6
Continuous
 62
     7
100
AcDbCircle
 10
2.9830203643
 20
2.4173747014
 30
0.0
 40
0.2400000000000013
  0
CIRCLE
  5
72
330
1F
100
AcDbEntity
  8
0
  6
Continuous
 62
     7
100
AcDbCircle
 10
3.5430203643
 20
2.4180286235
 30
0.0
 40
0.1800000000000008
  0
CIRCLE
  5
73
330
1F
100
AcDbEntity
  8
0
  6
Continuous
 62
     7
100
AcDbCircle
 10
1.4016926206
 20
2.4155281565
 30
0.0
 40
0.3999999999999999
  0
CIRCLE
  5
74
330
1F
100
AcDbEntity
  8
0
  6
Continuous
 62
     7
100
AcDbCircle
 10
3.9430203643
 20
2.4184957107
 30
0.0
 40
0.0800000000000011
  0
CIRCLE
  5
75
330
1F
100
AcDbEntity
  8
0
  6
Continuous
 62
     7
100
AcDbCircle
 10
0.3066204776
 20
3.5973112677
 30
0.0
 40
0.0800000000000003
  0
CIRCLE
  5
76
330
1F
100
AcDbEntity
  8
0
  6
Continuous
 62
     7
100
AcDbCircle
 10
2.8479482213
 20
3.5943437135
 30
0.0
 40
0.4000000000000015
  0
CIRCLE
  5
77
330
1F
100
AcDbEntity
  8
0
  6
Continuous
 62
     7
100
AcDbCircle
 10
0.7066204776
 20
3.5968441805
 30
0.0
 40
0.1799999999999999
  0
CIRCLE
  5
78
330
1F
100
AcDbEntity
  8
0
  6
Continuous
 62
     7
100
AcDbCircle
 10
1.2666204776
 20
3.5961902584
 30
0.0
 40
0.24
  0
CIRCLE
  5
79
330
1F
100
AcDbEntity
  8
0
  6
Continuous
 62
     7
100
AcDbCircle
 10
1.9679482213
 20
3.5953713054
 30
0.0
 40
0.3000000000000008
  0
CIRCLE
  5
7A
330
1F
100
AcDbEntity
  8
0
  6
Continuous
 62
     7
100
AcDbCircle
 10
3.7279482213
 20
3.5933161217
 30
0.0
 40
0.3000000000000028
  0
CIRCLE
  5
7B
330
1F
100
AcDbEntity
  8
0
  6
Continuous
 62
     7
100
AcDbCircle
 10
0.526192229
 20
4.741644734
 30
0.0
 40
0.3000000000000003
  0
CIRCLE
  5
7C
330
1F
100
AcDbEntity
  8
0
  6
Continuous
 62
     7
100
AcDbCircle
 10
2.286192229
 20
4.7436999176
 30
0.0
 40
0.3000000000000002
  0
CIRCLE
  5
7D
330
1F
100
AcDbEntity
  8
0
  6
Continuous
 62
     7
100
AcDbCircle
 10
2.9875199727
 20
4.7445188707
 30
0.0
 40
0.2400000000000009
  0
CIRCLE
  5
7E
330
1F
100
AcDbEntity
  8
0
  6
Continuous
 62
     7
100
AcDbCircle
 10
3.5475199727
 20
4.7451727928
 30
0.0
 40
0.180000000000001
  0
CIRCLE
  5
7F
330
1F
100
AcDbEntity
  8
0
  6
Continuous
 62
     7
100
AcDbCircle
 10
1.406192229
 20
4.7426723258
 30
0.0
 40
0.4
  0
CIRCLE
  5
80
330
1F
100
AcDbEntity
  8
0
  6
Continuous
 62
     7
100
AcDbCircle
 10
3.9475199727
 20
4.74563988
 30
0.0
 40
0.0800000000000007
  0
CIRCLE
  5
81
330
1F
100
AcDbEntity
  8
0
  6
Continuous
 62
     7
100
AcDbCircle
 10
0.311120086
 20
5.924455437
 30
0.0
 40
0.0800000000000003
  0
CIRCLE
  5
82
330
1F
100
AcDbEntity
  8
0
  6
Continuous
 62
     7
100
AcDbCircle
 10
2.8524478297
 20
5.9214878828
 30
0.0
 40
0.4000000000000006
  0
CIRCLE
  5
83
330
1F
100
AcDbEntity
  8
0
  6
Continuous
 62
     7
100
AcDbCircle
 10
0.711120086
 20
5.9239883498
 30
0.0
 40
0.1800000000000003
  0
CIRCLE
  5
84
330
1F
100
AcDbEntity
  8
0
  6
Continuous
 62
     7
100
AcDbCircle
 10
1.271120086
 20
5.9233344277
 30
0.0
 40
0.24
  0
CIRCLE
  5
85
330
1F
100
AcDbEntity
  8
0
  6
Continuous
 62
     7
100
AcDbCircle
 10
1.9724478297
 20
5.9225154747
 30
0.0
 40
0.300000000000001
  0
CIRCLE
  5
86
330
1F
100
AcDbEntity
  8
0
  6
Continuous
 62
     7
100
AcDbCircle
 10
3.7324478297
 20
5.920460291
 30
0.0
 40
0.3000000000000025
  0
CIRCLE
  5
87
330
1F
100
AcDbEntity
  8
0
  6
Continuous
 62
     7
100
AcDbCircle
 10
0.4854186149
 20
7.0803191635
 30
0.0
 40
0.2999999999999997
  0
CIRCLE
  5
88
330
1F
100
AcDbEntity
  8
0
  6
Continuous
 62
     7
100
AcDbCircle
 10
2.2454186149
 20
7.0823743472
 30
0.0
 40
0.3000000000000002
  0
CIRCLE
  5
89
330
1F
100
AcDbEntity
  8
0
  6
Continuous
 62
     7
100
AcDbCircle
 10
2.9467463586
 20
7.0831933002
 30
0.0
 40
0.24
  0
CIRCLE
  5
8A
330
1F
100
AcDbEntity
  8
0
  6
Continuous
 62
     7
100
AcDbCircle
 10
3.5067463586
 20
7.0838472223
 30
0.0
 40
0.1799999999999999
  0
CIRCLE
  5
8B
330
1F
100
AcDbEntity
  8
0
  6
Continuous
 62
     7
100
AcDbCircle
 10
1.3654186149
 20
7.0813467553
 30
0.0
 40
0.3999999999999997
  0
CIRCLE
  5
8C
330
1F
100
AcDbEntity
  8
0
  6
Continuous
 62
     7
100
AcDbCircle
 10
3.9067463586
 20
7.0843143095
 30
0.0
 40
0.080000000000001
  0
CIRCLE
  5
8D
330
1F
100
AcDbEntity
  8
0
  6
Continuous
 62
     7
100
AcDbCircle
 10
0.2703464719
 20
8.2631298665
 30
0.0
 40
0.0800000000000002
  0
CIRCLE
  5
8E
330
1F
100
AcDbEntity
  8
0
  6
Continuous
 62
     7
100
AcDbCircle
 10
2.8116742156
 20
8.2601623124
 30
0.0
 40
0.4000000000000015
  0
CIRCLE
  5
8F
330
1F
100
AcDbEntity
  8
0
  6
Continuous
 62
     7
100
AcDbCircle
 10
0.6703464719
 20
8.2626627793
 30
0.0
 40
0.1799999999999997
  0
CIRCLE
  5
90
330
1F
100
AcDbEntity
  8
0
  6
Continuous
 62
     7
100
AcDbCircle
 10
1.2303464719
 20
8.2620088572
 30
0.0
 40
0.2400000000000002
  0
CIRCLE
  5
91
330
1F
100
AcDbEntity
  8
0
  6
Continuous
 62
     7
100
AcDbCircle
 10
1.9316742156
 20
8.2611899042
 30
0.0
 40
0.3000000000000007
  0
CIRCLE
  5
92
330
1F
100
AcDbEntity
  8
0
  6
Continuous
 62
     7
100
AcDbCircle
 10
3.6916742156
 20
8.2591347205
 30
0.0
 40
0.3000000000000003
  0
CIRCLE
  5
93
330
1F
100
AcDbEntity
  8
0
  6
Continuous
 62
     7
100
AcDbCircle
 10
0.4333167757
 20
9.4904045206
 30
0.0
 40
0.2999999999999998
  0
CIRCLE
  5
94
330
1F
100
AcDbEntity
  8
0
  6
Continuous
 62
     7
100
AcDbCircle
 10
2.1933167757
 20
9.4924597043
 30
0.0
 40
0.3000000000000008
  0
CIRCLE
  5
95
330
1F
100
AcDbEntity
  8
0
  6
Continuous
 62
     7
100
AcDbCircle
 10
2.8946445194
 20
9.4932786573
 30
0.0
 40
0.2400000000000005
  0
CIRCLE
  5
96
330
1F
100
AcDbEntity
  8
0
  6
Continuous
 62
     7
100
AcDbCircle
 10
3.4546445194
 20
9.4939325794
 30
0.0
 40
0.1799999999999997
  0
CIRCLE
  5
97
330
1F
100
AcDbEntity
  8
0
  6
Continuous
 62
     7
100
AcDbCircle
 10
1.3133167757
 20
9.4914321125
 30
0.0
 40
0.3999999999999996
  0
CIRCLE
  5
98
330
1F
100
AcDbEntity
  8
0
  6
Continuous
 62
     7
100
AcDbCircle
 10
3.8546445194
 20
9.4943996666
 30
0.0
 40
0.0800000000000012
  0
CIRCLE
  5
99
330
1F
100
AcDbEntity
  8
0
  6
Continuous
 62
     7
100
AcDbCircle
 10
0.2182446328
 20
10.6732152237
 30
0.0
 40
0.0800000000000008
  0
CIRCLE
  5
9A
330
1F
100
AcDbEntity
  8
0
  6
Continuous
 62
     7
100
AcDbCircle
 10
2.7595723765
 20
10.6702476695
 30
0.0
 40
0.400000000000001
  0
CIRCLE
  5
9B
330
1F
100
AcDbEntity
  8
0
  6
Continuous
 62
     7
100
AcDbCircle
 10
0.6182446328
 20
10.6727481365
 30
0.0
 40
0.1800000000000002
  0
CIRCLE
  5
9C
330
1F
100
AcDbEntity
  8
0
  6
Continuous
 62
     7
100
AcDbCircle
 10
1.1782446328
 20
10.6720942144
 30
0.0
 40
0.2399999999999999
  0
CIRCLE
  5
9D
330
1F
100
AcDbEntity
  8
0
  6
Continuous
 62
     7
100
AcDbCircle
 10
1.8795723765
 20
10.6712752614
 30
0.0
 40
0.300000000000001
  0
CIRCLE
  5
9E
330
1F
100
AcDbEntity
  8
0
  6
Continuous
 62
     7
100
AcDbCircle
 10
3.6395723765
 20
10.6692200777
 30
0.0
 40
0.3000000000000003
  0
CIRCLE
  5
9F
330
1F
100
AcDbEntity
  8
0
  6
Continuous
 62
     7
100
AcDbCircle
 10
0.4170943392
 20
11.8045325746
 30
0.0
 40
0.3000000000000006
  0
CIRCLE
  5
A0
330
1F
100
AcDbEntity
  8
0
  6
Continuous
 62
     7
100
AcDbCircle
 10
2.1770943392
 20
11.8065877583
 30
0.0
 40
0.3000000000000013
  0
CIRCLE
  5
A1
330
1F
100
AcDbEntity
  8
0
  6
Continuous
 62
     7
100
AcDbCircle
 10
2.8784220829
 20
11.8074067113
 30
0.0
 40
0.24
  0
CIRCLE
  5
A2
330
1F
100
AcDbEntity
  8
0
  6
Continuous
 62
     7
100
AcDbCircle
 10
3.4384220829
 20
11.8080606334
 30
0.0
 40
0.1799999999999984
  0
CIRCLE
  5
A3
330
1F
100
AcDbEntity
  8
0
  6
Continuous
 62
     7
100
AcDbCircle
 10
1.2970943392
 20
11.8055601664
 30
0.0
 40
0.3999999999999994
  0
CIRCLE
  5
A4
330
1F
100
AcDbEntity
  8
0
  6
Continuous
 62
     7
100
AcDbCircle
 10
3.8384220829
 20
11.8085277206
 30
0.0
 40
0.0800000000000017
  0
LINE
  5
A5
330
1F
100
AcDbEntity
  8
0
  6
CENTERX2
 62
     7
100
AcDbLine
 10
-0.2082199245
 20
0.0160860129
 30
0.0
 11
4.8226042306
 21
0.0219605968
 31
0.0
  0
LINE
  5
A6
330
1F
100
AcDbEntity
  8
0
  6
Continuous
 62
     7
100
AcDbLine
 10
4.5917800755
 20
0.0750362197
 30
0.0
 11
4.5919419542
 21
-0.0277439389
 31
0.0
  0
LINE
  5
A7
330
1F
100
AcDbEntity
  8
0
  6
CENTERX2
 62
     7
100
AcDbLine
 10
-0.3666832243
 20
9.4894703462
 30
0.0
 11
4.6641409309
 21
9.4953449302
 31
0.0
  0
LINE
  5
A8
330
1F
100
AcDbEntity
  8
0
  6
Continuous
 62
     7
100
AcDbLine
 10
-0.2019643238
 20
1.2538517767
 30
0.0
 11
-0.2021262026
 21
1.1510716181
 31
0.0
  0
LINE
  5
A9
330
1F
100
AcDbEntity
  8
0
  6
CENTERX2
 62
     7
100
AcDbLine
 10
-0.2783073794
 20
2.4135663903
 30
0.0
 11
4.7525167757
 21
2.4194409742
 31
0.0
  0
LINE
  5
AA
330
1F
100
AcDbEntity
  8
0
  6
Continuous
 62
     7
100
AcDbLine
 10
4.5216926206
 20
2.472516597
 30
0.0
 11
4.5218544993
 21
2.3697364385
 31
0.0
  0
LINE
  5
AB
330
1F
100
AcDbEntity
  8
0
  6
Continuous
 62
     7
100
AcDbLine
 10
4.4333167757
 20
9.548420553
 30
0.0
 11
4.4334786545
 21
9.4456403944
 31
0.0
  0
LINE
  5
AC
330
1F
100
AcDbEntity
  8
0
  6
Continuous
 62
     7
100
AcDbLine
 10
-0.2720517787
 20
3.6513321541
 30
0.0
 11
-0.2722136575
 21
3.5485519955
 31
0.0
  0
LINE
  5
AD
330
1F
100
AcDbEntity
  8
0
  6
CENTERX2
 62
     7
100
AcDbLine
 10
-0.273807771
 20
4.7407105596
 30
0.0
 11
4.7570163841
 21
4.7465851435
 31
0.0
  0
LINE
  5
AE
330
1F
100
AcDbEntity
  8
0
  6
Continuous
 62
     7
100
AcDbLine
 10
4.526192229
 20
4.7996607663
 30
0.0
 11
4.5263541077
 21
4.6968806078
 31
0.0
  0
LINE
  5
AF
330
1F
100
AcDbEntity
  8
0
  6
Continuous
 62
     7
100
AcDbLine
 10
-0.3604276235
 20
10.72723611
 30
0.0
 11
-0.3605895023
 21
10.6244559515
 31
0.0
  0
LINE
  5
B0
330
1F
100
AcDbEntity
  8
0
  6
Continuous
 62
     7
100
AcDbLine
 10
-0.2675521703
 20
5.9784763234
 30
0.0
 11
-0.2677140491
 21
5.8756961648
 31
0.0
  0
LINE
  5
B1
330
1F
100
AcDbEntity
  8
0
  6
CENTERX2
 62
     7
100
AcDbLine
 10
-0.3145813851
 20
7.0793849891
 30
0.0
 11
4.7162427701
 21
7.085259573
 31
0.0
  0
LINE
  5
B2
330
1F
100
AcDbEntity
  8
0
  6
Continuous
 62
     7
100
AcDbLine
 10
4.4854186149
 20
7.1383351959
 30
0.0
 11
4.4855804936
 21
7.0355550373
 31
0.0
  0
LINE
  5
B3
330
1F
100
AcDbEntity
  8
0
  6
CENTERX2
 62
     7
100
AcDbLine
 10
-0.3829056608
 20
11.8035984002
 30
0.0
 11
4.6479184943
 21
11.8094729841
 31
0.0
  0
LINE
  5
B4
330
1F
100
AcDbEntity
  8
0
  6
Continuous
 62
     7
100
AcDbLine
 10
-0.3083257844
 20
8.3171507529
 30
0.0
 11
-0.3084876631
 21
8.2143705943
 31
0.0
  0
LINE
  5
B5
330
1F
100
AcDbEntity
  8
0
  6
Continuous
 62
     7
100
AcDbLine
 10
4.4170943392
 20
11.8625486069
 30
0.0
 11
4.4172562179
 21
11.7597684484
 31
0.0
  0
SPLINE
  5
B6
330
1F
100
AcDbEntity
  8
0
  6
Continuous
 62
     7
100
AcDbSpline
210
0.0
220
0.0
230
1.0
 70
     8
 71
     3
 72
    15
 73
    11
 74
     0
 42
0.00000001
 43
0.00000001
 40
0.0
 40
0.0
 40
0.0
 40
0.0
 40
0.0308048412971222
 40
0.0619497460821546
 40
0.1243192603515086
 40
0.2492316765930269
 40
0.4992849214691926
 40
0.6662000002852183
 40
0.8328901617977706
 40
1.0
 40
1.0
 40
1.0
 40
1.0
 10
-0.2082198858261108
 20
0.016086012889952
 30
0.0
 10
-0.1595894522895369
 20
0.1632018525789165
 30
0.0
 10
-0.0473754015241059
 20
0.2725132613794147
 30
0.0
 10
0.2354791175244929
 20
0.4081915859625247
 30
0.0
 10
0.8530426929957776
 20
0.5238268683277545
 30
0.0
 10
2.110519529685699
 20
0.4980227474807267
 30
0.0
 10
2.943478444791264
 20
0.3929067495400087
 30
0.0
 10
3.769631847028544
 20
0.2499307196575022
 30
0.0
 10
4.591780075470673
 20
0.0750362196836694
 30
0.0
 10
4.318171282047562
 20
0.1354958574684557
 30
0.0
 10
4.591780075470673
 20
0.0750362196836694
 30
0.0
  0
SPLINE
  5
B7
330
1F
100
AcDbEntity
  8
0
  6
Continuous
 62
     7
100
AcDbSpline
210
0.0
220
0.0
230
1.0
 70
     8
 71
     3
 72
    15
 73
    11
 74
     0
 42
0.00000001
 43
0.00000001
 40
0.0
 40
0.0
 40
0.0
 40
0.0
 40
0.030804841274829
 40
0.0619497460605784
 40
0.124319260331368
 40
0.2492316765757616
 40
0.499284921457684
 40
0.666200000277552
 40
0.8328901617939398
 40
0.9999999999999999
 40
0.9999999999999999
 40
0.9999999999999999
 40
0.9999999999999999
 10
-0.2082198858261108
 20
0.0160860128899518
 30
0.0
 10
-0.1591262798098144
 20
-0.1308759113142686
 30
0.0
 10
-0.0465684556802045
 20
-0.239833304410581
 30
0.0
 10
0.2367120457236178
 20
-0.3746199663333875
 30
0.0
 10
0.854636807552338
 20
-0.4883093545606261
 30
0.0
 10
2.112026122821424
 20
-0.4585443195105346
 30
0.0
 10
2.944649790846506
 20
-0.3508050289922937
 30
0.0
 10
3.770348720961868
 20
-0.205227331677314
 30
0.0
 10
4.591941954220901
 20
-0.0277439388923468
 30
0.0
 10
4.318524965623342
 20
-0.0890651422867955
 30
0.0
 10
4.591941954220901
 20
-0.0277439388923468
 30
0.0
  0
SPLINE
  5
B8
330
1F
100
AcDbEntity
  8
0
  6
Continuous
 62
     7
100
AcDbSpline
210
0.0
220
0.0
230
1.0
 70
     8
 71
     3
 72
    15
 73
    11
 74
     0
 42
0.00000001
 43
0.00000001
 40
0.0
 40
0.0
 40
0.0
 40
0.0
 40
0.0308048395138154
 40
0.0619497443561541
 40
0.1243192587402683
 40
0.2492316752116254
 40
0.499284920547889
 40
0.6661999996710378
 40
0.8328901614902996
 40
1.0
 40
1.0
 40
1.0
 40
1.0
 10
-0.2783073112368584
 20
2.413566390257224
 30
0.0
 10
-0.2296769071874688
 20
2.560682229945955
 30
0.0
 10
-0.1174628564215113
 20
2.66999363874591
 30
0.0
 10
0.1653916626277429
 20
2.805671963327658
 30
0.0
 10
0.782955238099585
 20
2.921307245689908
 30
0.0
 10
2.040432074789382
 20
2.895503124836816
 30
0.0
 10
2.873390989894436
 20
2.790387126892079
 30
0.0
 10
3.699544392131025
 20
2.647411097005588
 30
0.0
 10
4.521692620572257
 20
2.472516597027802
 30
0.0
 10
4.248083827140509
 20
2.532976234816995
 30
0.0
 10
4.521692620572257
 20
2.472516597027802
 30
0.0
  0
SPLINE
  5
B9
330
1F
100
AcDbEntity
  8
0
  6
Continuous
 62
     7
100
AcDbSpline
210
0.0
220
0.0
230
1.0
 70
     8
 71
     3
 72
    15
 73
    11
 74
     0
 42
0.00000001
 43
0.00000001
 40
0.0
 40
0.0
 40
0.0
 40
0.0
 40
0.0308047063954225
 40
0.0619496155154967
 40
0.1243191384660268
 40
0.2492315720940327
 40
0.4992848517749656
 40
0.6661999538238054
 40
0.8328901385378638
 40
0.9999999999999999
 40
0.9999999999999999
 40
0.9999999999999999
 40
0.9999999999999999
 10
4.598033428192139
 20
1.194901569929427
 30
0.0
 10
4.548942031478245
 20
1.047939645724963
 30
0.0
 10
4.436384207349172
 20
0.938982252628094
 30
0.0
 10
4.15310370594602
 20
0.8041955907038856
 30
0.0
 10
3.535178944117861
 20
0.6905062024735886
 30
0.0
 10
2.277789628848633
 20
0.7202712375174567
 30
0.0
 10
1.445165960823017
 20
0.8280105280315763
 30
0.0
 10
0.6194670307069347
 20
0.9735882253424692
 30
0.0
 10
-0.2021262025529789
 20
1.15107161812337
 30
0.0
 10
0.0712907867140729
 20
1.089750414496556
 30
0.0
 10
-0.2021262025529789
 20
1.15107161812337
 30
0.0
  0
SPLINE
  5
BA
330
1F
100
AcDbEntity
  8
0
  6
Continuous
 62
     7
100
AcDbSpline
210
0.0
220
0.0
230
1.0
 70
     8
 71
     3
 72
    15
 73
    11
 74
     0
 42
0.00000001
 43
0.00000001
 40
0.0
 40
0.0
 40
0.0
 40
0.0
 40
0.0308047076902635
 40
0.0619496167687276
 40
0.1243191396359327
 40
0.2492315730970553
 40
0.4992848524439177
 40
0.666199954269759
 40
0.8328901387611204
 40
1.0
 40
1.0
 40
1.0
 40
1.0
 10
4.598033428192139
 20
1.194901569929427
 30
0.0
 10
4.54940520395655
 20
1.342017409618158
 30
0.0
 10
4.437191153190597
 20
1.451328818418119
 30
0.0
 10
4.154336634141349
 20
1.587007142999876
 30
0.0
 10
3.536773058669512
 20
1.702642425362153
 30
0.0
 10
2.279296221979712
 20
1.676838304509111
 30
0.0
 10
1.446337306874648
 20
1.571722306564408
 30
0.0
 10
0.6201839046380546
 20
1.42874627667795
 30
0.0
 10
-0.2019643238031721
 20
1.253851776700201
 30
0.0
 10
0.0716444702898033
 20
1.314311414717887
 30
0.0
 10
-0.2019643238031721
 20
1.253851776700201
 30
0.0
  0
SPLINE
  5
BB
330
1F
100
AcDbEntity
  8
0
  6
Continuous
 62
     7
100
AcDbSpline
210
0.0
220
0.0
230
1.0
 70
     8
 71
     3
 72
    15
 73
    11
 74
     0
 42
0.00000001
 43
0.00000001
 40
0.0
 40
0.0
 40
0.0
 40
0.0
 40
0.0308048394745374
 40
0.0619497443181388
 40
0.1243192587047805
 40
0.2492316751812003
 40
0.4992849205276002
 40
0.6661999996575148
 40
0.8328901614835305
 40
1.0
 40
1.0
 40
1.0
 40
1.0
 10
-0.2783073112368584
 20
2.413566390257224
 30
0.0
 10
-0.2292137347091651
 20
2.266604466052763
 30
0.0
 10
-0.1166559105800908
 20
2.157647072955898
 30
0.0
 10
0.16662459082307
 20
2.022860411031701
 30
0.0
 10
0.7845493526512315
 20
1.909171022801428
 30
0.0
 10
2.041938667920466
 20
1.938936057845345
 30
0.0
 10
2.874562335946076
 20
2.046675348359497
 30
0.0
 10
3.700261266062149
 20
2.192253045670424
 30
0.0
 10
4.521854499322058
 20
2.369736438451357
 30
0.0
 10
4.248437510715265
 20
2.308415235055132
 30
0.0
 10
4.521854499322058
 20
2.369736438451357
 30
0.0
  0
SPLINE
  5
BC
330
1F
100
AcDbEntity
  8
0
  6
Continuous
 62
     7
100
AcDbSpline
210
0.0
220
0.0
230
1.0
 70
     8
 71
     3
 72
    15
 73
    11
 74
     0
 42
0.00000001
 43
0.00000001
 40
0.0
 40
0.0
 40
0.0
 40
0.0
 40
0.0308047877960782
 40
0.0619496943003576
 40
0.1243192120126041
 40
0.2492316351494795
 40
0.4992848938289681
 40
0.6661999818589626
 40
0.8328901525730663
 40
0.9999999999999999
 40
0.9999999999999999
 40
0.9999999999999999
 40
0.9999999999999999
 10
4.527947306632996
 20
3.592381947296698
 30
0.0
 10
4.478854576579617
 20
3.445420023092235
 30
0.0
 10
4.366296752450545
 20
3.336462629995365
 30
0.0
 10
4.083016251047391
 20
3.201675968071156
 30
0.0
 10
3.465091489219234
 20
3.08798657984086
 30
0.0
 10
2.207702173950005
 20
3.117751614884728
 30
0.0
 10
1.37507850592439
 20
3.225490905398847
 30
0.0
 10
0.5493795758083069
 20
3.371068602709741
 30
0.0
 10
-0.2722136574516066
 20
3.548551995490641
 30
0.0
 10
0.0012033314115809
 20
3.487230792004879
 30
0.0
 10
-0.2722136574516066
 20
3.548551995490641
 30
0.0
  0
SPLINE
  5
BD
330
1F
100
AcDbEntity
  8
0
  6
Continuous
 62
     7
100
AcDbSpline
210
0.0
220
0.0
230
1.0
 70
     8
 71
     3
 72
    15
 73
    11
 74
     0
 42
0.00000001
 43
0.00000001
 40
0.0
 40
0.0
 40
0.0
 40
0.0
 40
0.03080478832292
 40
0.0619496948102687
 40
0.1243192124886123
 40
0.2492316355575863
 40
0.499284894101149
 40
0.6661999820404103
 40
0.8328901526639036
 40
1.0
 40
1.0
 40
1.0
 40
1.0
 10
4.527947306632996
 20
3.592381947296699
 30
0.0
 10
4.479317749057922
 20
3.739497786985431
 30
0.0
 10
4.367103698291969
 20
3.848809195785392
 30
0.0
 10
4.084249179242721
 20
3.984487520367149
 30
0.0
 10
3.466685603770884
 20
4.100122802729425
 30
0.0
 10
2.209208767081084
 20
4.074318681876384
 30
0.0
 10
1.37624985197602
 20
3.96920268393168
 30
0.0
 10
0.5500964497394268
 20
3.826226654045223
 30
0.0
 10
-0.2720517787017998
 20
3.651332154067473
 30
0.0
 10
0.0015570149867159
 20
3.71179179194539
 30
0.0
 10
-0.2720517787017998
 20
3.651332154067473
 30
0.0
  0
SPLINE
  5
BE
330
1F
100
AcDbEntity
  8
0
  6
Continuous
 62
     7
100
AcDbSpline
210
0.0
220
0.0
230
1.0
 70
     8
 71
     3
 72
    15
 73
    11
 74
     0
 42
0.00000001
 43
0.00000001
 40
0.0
 40
0.0
 40
0.0
 40
0.0
 40
0.0308048405120779
 40
0.0619497453223378
 40
0.1243192596422113
 40
0.2492316759849102
 40
0.4992849210636201
 40
0.6662000000148489
 40
0.8328901616624204
 40
0.9999999999999999
 40
0.9999999999999999
 40
0.9999999999999999
 40
0.9999999999999999
 10
-0.2738077193498611
 20
4.740710559554731
 30
0.0
 10
-0.2251772987937344
 20
4.887826399243476
 30
0.0
 10
-0.1129632480278173
 20
4.997137808043474
 30
0.0
 10
0.1698912710213859
 20
5.132816132625321
 30
0.0
 10
0.7874548464931874
 20
5.248451414987805
 30
0.0
 10
2.04493168318299
 20
5.222647294135173
 30
0.0
 10
2.87789059828809
 20
5.117531296190745
 30
0.0
 10
3.704044000524728
 20
4.974555266304561
 30
0.0
 10
4.526192228966027
 20
4.799660766327076
 30
0.0
 10
4.252583435539265
 20
4.860120404114439
 30
0.0
 10
4.526192228966027
 20
4.799660766327076
 30
0.0
  0
SPLINE
  5
BF
330
1F
100
AcDbEntity
  8
0
  6
Continuous
 62
     7
100
AcDbSpline
210
0.0
220
0.0
230
1.0
 70
     8
 71
     3
 72
    15
 73
    11
 74
     0
 42
0.00000001
 43
0.00000001
 40
0.0
 40
0.0
 40
0.0
 40
0.0
 40
0.0308048404823082
 40
0.0619497452935254
 40
0.1243192596153152
 40
0.2492316759618509
 40
0.4992849210482446
 40
0.6662000000046007
 40
0.8328901616572922
 40
1.0
 40
1.0
 40
1.0
 40
1.0
 10
-0.2738077193498611
 20
4.740710559554731
 30
0.0
 10
-0.2247141263153213
 20
4.593748635350289
 30
0.0
 10
-0.1121563021862063
 20
4.484791242253464
 30
0.0
 10
0.1711241992170037
 20
4.35000458032937
 30
0.0
 10
0.7890489610452069
 20
4.236315192099325
 30
0.0
 10
2.046438276314429
 20
4.266080227143703
 30
0.0
 10
2.879061944340001
 20
4.37381951765816
 30
0.0
 10
3.704760874456022
 20
4.519397214969389
 30
0.0
 10
4.526354107715862
 20
4.696880607750622
 30
0.0
 10
4.252937119114093
 20
4.635559404356043
 30
0.0
 10
4.526354107715862
 20
4.696880607750622
 30
0.0
  0
SPLINE
  5
C0
330
1F
100
AcDbEntity
  8
0
  6
Continuous
 62
     7
100
AcDbSpline
210
0.0
220
0.0
230
1.0
 70
     8
 71
     3
 72
    15
 73
    11
 74
     0
 42
0.00000001
 43
0.00000001
 40
0.0
 40
0.0
 40
0.0
 40
0.0
 40
0.0308048209033635
 40
0.0619497263437463
 40
0.1243192419254772
 40
0.2492316607953989
 40
0.4992849109331777
 40
0.6661999932614255
 40
0.8328901582814658
 40
1.0
 40
1.0
 40
1.0
 40
1.0
 10
4.532447457313538
 20
5.919526116594204
 30
0.0
 10
4.483354184973408
 20
5.77256419238974
 30
0.0
 10
4.370796360844335
 20
5.663606799292871
 30
0.0
 10
4.087515859441182
 20
5.528820137368663
 30
0.0
 10
3.469591097613024
 20
5.415130749138366
 30
0.0
 10
2.212201782343794
 20
5.444895784182235
 30
0.0
 10
1.37957811431818
 20
5.552635074696354
 30
0.0
 10
0.5538791842020966
 20
5.698212772007246
 30
0.0
 10
-0.267714049057817
 20
5.875696164788146
 30
0.0
 10
0.0057029396411148
 20
5.814374961359752
 30
0.0
 10
-0.267714049057817
 20
5.875696164788146
 30
0.0
  0
SPLINE
  5
C1
330
1F
100
AcDbEntity
  8
0
  6
Continuous
 62
     7
100
AcDbSpline
210
0.0
220
0.0
230
1.0
 70
     8
 71
     3
 72
    15
 73
    11
 74
     0
 42
0.00000001
 43
0.00000001
 40
0.0
 40
0.0
 40
0.0
 40
0.0
 40
0.0308048211178506
 40
0.0619497265513406
 40
0.1243192421192694
 40
0.2492316609615467
 40
0.4992849110439869
 40
0.6661999933352953
 40
0.8328901583184465
 40
1.0
 40
1.0
 40
1.0
 40
1.0
 10
4.532447457313538
 20
5.919526116594204
 30
0.0
 10
4.483817357451712
 20
6.066641956282933
 30
0.0
 10
4.371603306685758
 20
6.175953365082896
 30
0.0
 10
4.08874878763651
 20
6.311631689664654
 30
0.0
 10
3.471185212164673
 20
6.427266972026932
 30
0.0
 10
2.213708375474873
 20
6.401462851173887
 30
0.0
 10
1.380749460369809
 20
6.296346853229185
 30
0.0
 10
0.554596058133215
 20
6.153370823342727
 30
0.0
 10
-0.2675521703080115
 20
5.978476323364978
 30
0.0
 10
0.006056623216006
 20
6.038935961186047
 30
0.0
 10
-0.2675521703080115
 20
5.978476323364978
 30
0.0
  0
SPLINE
  5
C2
330
1F
100
AcDbEntity
  8
0
  6
Continuous
 62
     7
100
AcDbSpline
210
0.0
220
0.0
230
1.0
 70
     8
 71
     3
 72
    15
 73
    11
 74
     0
 42
0.00000001
 43
0.00000001
 40
0.0
 40
0.0
 40
0.0
 40
0.0
 40
0.0308048329227657
 40
0.0619497379769066
 40
0.1243192527851667
 40
0.2492316701059962
 40
0.4992849171427573
 40
0.6661999974010197
 40
0.8328901603538655
 40
0.9999999999999999
 40
0.9999999999999999
 40
0.9999999999999999
 40
0.9999999999999999
 10
-0.3145812079310417
 20
7.079384989085215
 30
0.0
 10
-0.2659509128679793
 20
7.226500828773889
 30
0.0
 10
-0.1537368621019002
 20
7.335812237573719
 30
0.0
 10
0.1291176569475035
 20
7.471490562155148
 30
0.0
 10
0.746681232419475
 20
7.587125844516716
 30
0.0
 10
2.004158069109242
 20
7.561321723662232
 30
0.0
 10
2.837116984214184
 20
7.456205725716577
 30
0.0
 10
3.663270386450616
 20
7.313229695829166
 30
0.0
 10
4.485418614891637
 20
7.13833519585048
 30
0.0
 10
4.211809821426902
 20
7.198794833651395
 30
0.0
 10
4.485418614891637
 20
7.13833519585048
 30
0.0
  0
SPLINE
  5
C3
330
1F
100
AcDbEntity
  8
0
  6
Continuous
 62
     7
100
AcDbSpline
210
0.0
220
0.0
230
1.0
 70
     8
 71
     3
 72
    15
 73
    11
 74
     0
 42
0.00000001
 43
0.00000001
 40
0.0
 40
0.0
 40
0.0
 40
0.0
 40
0.0308048328207132
 40
0.0619497378781329
 40
0.1243192526929603
 40
0.2492316700269428
 40
0.4992849170900353
 40
0.6661999973658737
 40
0.83289016033627
 40
1.0
 40
1.0
 40
1.0
 40
1.0
 10
-0.3145812079310417
 20
7.079384989085217
 30
0.0
 10
-0.2654877403900234
 20
6.932423064880691
 30
0.0
 10
-0.1529299162610881
 20
6.823465671783691
 30
0.0
 10
0.1303505851419014
 20
6.688679009859137
 30
0.0
 10
0.7482753469699164
 20
6.574989621628065
 30
0.0
 10
2.005664662239187
 20
6.604754656670377
 30
0.0
 10
2.838288330264935
 20
6.712493947183461
 30
0.0
 10
3.663987260381198
 20
6.858071644493334
 30
0.0
 10
4.485580493641333
 20
7.03555503727321
 30
0.0
 10
4.212163505001451
 20
6.974233833865809
 30
0.0
 10
4.485580493641333
 20
7.03555503727321
 30
0.0
  0
SPLINE
  5
C4
330
1F
100
AcDbEntity
  8
0
  6
Continuous
 62
     7
100
AcDbSpline
210
0.0
220
0.0
230
1.0
 70
     8
 71
     3
 72
    15
 73
    11
 74
     0
 42
0.00000001
 43
0.00000001
 40
0.0
 40
0.0
 40
0.0
 40
0.0
 40
0.0308047034778608
 40
0.06194961269169
 40
0.1243191358299712
 40
0.2492315698339996
 40
0.4992848502676663
 40
0.6661999528189694
 40
0.8328901380348143
 40
1.0
 40
1.0
 40
1.0
 40
1.0
 10
4.491671919822693
 20
8.25820054612469
 30
0.0
 10
4.442580570898945
 20
8.111238621920227
 30
0.0
 10
4.330022746769873
 20
8.002281228823358
 30
0.0
 10
4.046742245366719
 20
7.86749456689915
 30
0.0
 10
3.428817483538562
 20
7.753805178668857
 30
0.0
 10
2.171428168269333
 20
7.783570213712723
 30
0.0
 10
1.338804500243717
 20
7.891309504226841
 30
0.0
 10
0.5131055701276341
 20
8.036887201537736
 30
0.0
 10
-0.3084876631322793
 20
8.214370594318634
 30
0.0
 10
-0.0350706738507518
 20
8.153049390686766
 30
0.0
 10
-0.3084876631322793
 20
8.214370594318634
 30
0.0
  0
SPLINE
  5
C5
330
1F
100
AcDbEntity
  8
0
  6
Continuous
 62
     7
100
AcDbSpline
210
0.0
220
0.0
230
1.0
 70
     8
 71
     3
 72
    15
 73
    11
 74
     0
 42
0.00000001
 43
0.00000001
 40
0.0
 40
0.0
 40
0.0
 40
0.0
 40
0.0308047048002284
 40
0.0619496139715637
 40
0.1243191370247477
 40
0.2492315708583458
 40
0.4992848509508397
 40
0.6661999532744037
 40
0.832890138262817
 40
1.0
 40
1.0
 40
1.0
 40
1.0
 10
4.491671919822693
 20
8.258200546124693
 30
0.0
 10
4.443043743377252
 20
8.405316385813423
 30
0.0
 10
4.330829692611297
 20
8.514627794613386
 30
0.0
 10
4.047975173562049
 20
8.650306119195141
 30
0.0
 10
3.430411598090212
 20
8.76594140155742
 30
0.0
 10
2.172934761400412
 20
8.740137280704378
 30
0.0
 10
1.339975846295348
 20
8.635021282759672
 30
0.0
 10
0.5138224440587541
 20
8.492045252873218
 30
0.0
 10
-0.3083257843824724
 20
8.317150752895468
 30
0.0
 10
-0.0347169902750003
 20
8.377610390918164
 30
0.0
 10
-0.3083257843824724
 20
8.317150752895468
 30
0.0
  0
SPLINE
  5
C6
330
1F
100
AcDbEntity
  8
0
  6
Continuous
 62
     7
100
AcDbSpline
210
0.0
220
0.0
230
1.0
 70
     8
 71
     3
 72
    15
 73
    11
 74
     0
 42
0.00000001
 43
0.00000001
 40
0.0
 40
0.0
 40
0.0
 40
0.0
 40
0.0308048372136947
 40
0.0619497421299469
 40
0.124319256662078
 40
0.2492316734298807
 40
0.4992849193595775
 40
0.6661999988788543
 40
0.8328901610937103
 40
1.0
 40
1.0
 40
1.0
 40
1.0
 10
-0.36668311804533
 20
9.489470346224044
 30
0.0
 10
-0.3180527520295346
 20
9.636586185912744
 30
0.0
 10
-0.2058387012635063
 20
9.745897594712623
 30
0.0
 10
0.0770158177858351
 20
9.881575919294185
 30
0.0
 10
0.6945793932577523
 20
9.997211201656036
 30
0.0
 10
1.952056229947532
 20
9.97140708080214
 30
0.0
 10
2.785015145052522
 20
9.866291082856865
 30
0.0
 10
3.61116854728902
 20
9.723315052969836
 30
0.0
 10
4.433316775730138
 20
9.548420552991526
 30
0.0
 10
4.159707982286894
 20
9.608880190784879
 30
0.0
 10
4.433316775730138
 20
9.548420552991526
 30
0.0
  0
SPLINE
  5
C7
330
1F
100
AcDbEntity
  8
0
  6
Continuous
 62
     7
100
AcDbSpline
210
0.0
220
0.0
230
1.0
 70
     8
 71
     3
 72
    15
 73
    11
 74
     0
 42
0.00000001
 43
0.00000001
 40
0.0
 40
0.0
 40
0.0
 40
0.0
 40
0.03080483715251
 40
0.0619497420707282
 40
0.1243192566067967
 40
0.2492316733824856
 40
0.4992849193279704
 40
0.6661999988577856
 40
0.8328901610831639
 40
1.0
 40
1.0
 40
1.0
 40
1.0
 10
-0.36668311804533
 20
9.489470346224046
 30
0.0
 10
-0.3175895795514416
 20
9.342508422019543
 30
0.0
 10
-0.2050317554224568
 20
9.233551028922594
 30
0.0
 10
0.078248745980594
 20
9.098764366998168
 30
0.0
 10
0.6961735078086604
 20
8.985074978767377
 30
0.0
 10
1.953562823077917
 20
9.014840013810261
 30
0.0
 10
2.786186491103617
 20
9.122579304323724
 30
0.0
 10
3.611885421219814
 20
9.268157001633973
 30
0.0
 10
4.433478654479868
 20
9.44564039441422
 30
0.0
 10
4.160061665861503
 20
9.3843191910142
 30
0.0
 10
4.433478654479868
 20
9.44564039441422
 30
0.0
  0
SPLINE
  5
C8
330
1F
100
AcDbEntity
  8
0
  6
Continuous
 62
     7
100
AcDbSpline
210
0.0
220
0.0
230
1.0
 70
     8
 71
     3
 72
    15
 73
    11
 74
     0
 42
0.00000001
 43
0.00000001
 40
0.0
 40
0.0
 40
0.0
 40
0.0
 40
0.0308047901180711
 40
0.0619496965477334
 40
0.1243192141105556
 40
0.2492316369481665
 40
0.4992848950285791
 40
0.6661999826586793
 40
0.8328901529734276
 40
1.0
 40
1.0
 40
1.0
 40
1.0
 10
4.439571499824524
 20
10.66828590326352
 30
0.0
 10
4.390478731737462
 20
10.52132397905906
 30
0.0
 10
4.27792090760839
 20
10.41236658596219
 30
0.0
 10
3.994640406205236
 20
10.27757992403798
 30
0.0
 10
3.376715644377079
 20
10.16389053580769
 30
0.0
 10
2.119326329107849
 20
10.19365557085156
 30
0.0
 10
1.286702661082234
 20
10.30139486136568
 30
0.0
 10
0.461003730966151
 20
10.44697255867657
 30
0.0
 10
-0.3605895022937625
 20
10.62445595145747
 30
0.0
 10
-0.0871725134420951
 20
10.56313474797573
 30
0.0
 10
-0.3605895022937625
 20
10.62445595145747
 30
0.0
  0
SPLINE
  5
C9
330
1F
100
AcDbEntity
  8
0
  6
Continuous
 62
     7
100
AcDbSpline
210
0.0
220
0.0
230
1.0
 70
     8
 71
     3
 72
    15
 73
    11
 74
     0
 42
0.00000001
 43
0.00000001
 40
0.0
 40
0.0
 40
0.0
 40
0.0
 40
0.0308047906230057
 40
0.0619496970364419
 40
0.1243192145667705
 40
0.2492316373393038
 40
0.4992848952894419
 40
0.6661999828325819
 40
0.8328901530604873
 40
1.0
 40
1.0
 40
1.0
 40
1.0
 10
4.439571499824524
 20
10.66828590326352
 30
0.0
 10
4.390941904215767
 20
10.81540174295225
 30
0.0
 10
4.278727853449812
 20
10.92471315175221
 30
0.0
 10
3.995873334400565
 20
11.06039147633397
 30
0.0
 10
3.378309758928727
 20
11.17602675869625
 30
0.0
 10
2.120832922238927
 20
11.15022263784321
 30
0.0
 10
1.287874007133863
 20
11.0451066398985
 30
0.0
 10
0.4617206048972691
 20
10.90213061001205
 30
0.0
 10
-0.3604276235439574
 20
10.7272361100343
 30
0.0
 10
-0.0868188298669791
 20
10.78769574790823
 30
0.0
 10
-0.3604276235439574
 20
10.7272361100343
 30
0.0
  0
SPLINE
  5
CA
330
1F
100
AcDbEntity
  8
0
  6
Continuous
 62
     7
100
AcDbSpline
210
0.0
220
0.0
230
1.0
 70
     8
 71
     3
 72
    15
 73
    11
 74
     0
 42
0.00000001
 43
0.00000001
 40
0.0
 40
0.0
 40
0.0
 40
0.0
 40
0.0308048423596858
 40
0.0619497471105719
 40
0.1243192613115472
 40
0.2492316774161176
 40
0.4992849220181366
 40
0.6662000006511645
 40
0.8328901619809655
 40
1.0
 40
1.0
 40
1.0
 40
1.0
 10
-0.3829056397080421
 20
11.80359840017074
 30
0.0
 10
-0.3342751886006322
 20
11.95071423985944
 30
0.0
 10
-0.2220611378346045
 20
12.06002564865932
 30
0.0
 10
0.0607933812147363
 20
12.19570397324089
 30
0.0
 10
0.6783569566866534
 20
12.31133925560275
 30
0.0
 10
1.935833793376433
 20
12.28553513474886
 30
0.0
 10
2.768792708481422
 20
12.18041913680358
 30
0.0
 10
3.594946110717923
 20
12.03744310691657
 30
0.0
 10
4.417094339159175
 20
11.86254860693822
 30
0.0
 10
4.143485545741698
 20
11.92300824472267
 30
0.0
 10
4.417094339159176
 20
11.86254860693822
 30
0.0
  0
SPLINE
  5
CB
330
1F
100
AcDbEntity
  8
0
  6
Continuous
 62
     7
100
AcDbSpline
210
0.0
220
0.0
230
1.0
 70
     8
 71
     3
 72
    15
 73
    11
 74
     0
 42
0.00000001
 43
0.00000001
 40
0.0
 40
0.0
 40
0.0
 40
0.0
 40
0.0308048423475222
 40
0.0619497470987998
 40
0.1243192613005595
 40
0.2492316774067016
 40
0.4992849220118684
 40
0.666200000646997
 40
0.8328901619788948
 40
1.0
 40
1.0
 40
1.0
 40
1.0
 10
-0.3829056397080421
 20
11.80359840017075
 30
0.0
 10
-0.3338120161224128
 20
11.65663647596624
 30
0.0
 10
-0.2212541919934281
 20
11.54767908286929
 30
0.0
 10
0.0620263094096225
 20
11.41289242094487
 30
0.0
 10
0.679951071237689
 20
11.29920303271408
 30
0.0
 10
1.937340386506945
 20
11.32896806775696
 30
0.0
 10
2.769964054532645
 20
11.43670735827042
 30
0.0
 10
3.595662984648843
 20
11.58228505558067
 30
0.0
 10
4.417256217908896
 20
11.75976844836092
 30
0.0
 10
4.143839229316306
 20
11.6984472449699
 30
0.0
 10
4.417256217908896
 20
11.75976844836092
 30
0.0
  0
POINT
  5
CC
330
1F
100
AcDbEntity
  8
0
  6
Continuous
 62
     7
100
AcDbPoint
 10
0.5917800755
 20
0.0170201873
 30
0.0
  0
POINT
  5
CD
330
1F
100
AcDbEntity
  8
0
  6
Continuous
 62
     7
100
AcDbPoint
 10
2.3517800755
 20
0.019075371
 30
0.0
  0
POINT
  5
CE
330
1F
100
AcDbEntity
  8
0
  6
Continuous
 62
     7
100
AcDbPoint
 10
3.0531078192
 20
0.019894324
 30
0.0
  0
POINT
  5
CF
330
1F
100
AcDbEntity
  8
0
  6
Continuous
 62
     7
100
AcDbPoint
 10
3.6131078192
 20
0.0205482461
 30
0.0
  0
POINT
  5
D0
330
1F
100
AcDbEntity
  8
0
  6
Continuous
 62
     7
100
AcDbPoint
 10
4.5918610148
 20
0.0236461404
 30
0.0
  0
POINT
  5
D1
330
1F
100
AcDbEntity
  8
0
  6
Continuous
 62
     7
100
AcDbPoint
 10
1.4717800755
 20
0.0180477791
 30
0.0
  0
POINT
  5
D2
330
1F
100
AcDbEntity
  8
0
  6
Continuous
 62
     7
100
AcDbPoint
 10
4.0131078192
 20
0.0210153333
 30
0.0
  0
POINT
  5
D3
330
1F
100
AcDbEntity
  8
0
  6
Continuous
 62
     7
100
AcDbPoint
 10
1.9316742156
 20
11.3284091646
 30
0.0
  0
POINT
  5
D4
330
1F
100
AcDbEntity
  8
0
  6
Continuous
 62
     7
100
AcDbPoint
 10
0.5216926206
 20
2.4145005647
 30
0.0
  0
POINT
  5
D5
330
1F
100
AcDbEntity
  8
0
  6
Continuous
 62
     7
100
AcDbPoint
 10
2.2816926206
 20
2.4165557483
 30
0.0
  0
POINT
  5
D6
330
1F
100
AcDbEntity
  8
0
  6
Continuous
 62
     7
100
AcDbPoint
 10
2.9830203643
 20
2.4173747014
 30
0.0
  0
POINT
  5
D7
330
1F
100
AcDbEntity
  8
0
  6
Continuous
 62
     7
100
AcDbPoint
 10
3.5430203643
 20
2.4180286235
 30
0.0
  0
POINT
  5
D8
330
1F
100
AcDbEntity
  8
0
  6
Continuous
 62
     7
100
AcDbPoint
 10
4.5217735599
 20
2.4211265177
 30
0.0
  0
POINT
  5
D9
330
1F
100
AcDbEntity
  8
0
  6
Continuous
 62
     7
100
AcDbPoint
 10
1.4016926206
 20
2.4155281565
 30
0.0
  0
POINT
  5
DA
330
1F
100
AcDbEntity
  8
0
  6
Continuous
 62
     7
100
AcDbPoint
 10
0.3767079325
 20
1.1998308903
 30
0.0
  0
POINT
  5
DB
330
1F
100
AcDbEntity
  8
0
  6
Continuous
 62
     7
100
AcDbPoint
 10
2.9180356762
 20
1.1968633362
 30
0.0
  0
POINT
  5
DC
330
1F
100
AcDbEntity
  8
0
  6
Continuous
 62
     7
100
AcDbPoint
 10
-0.2020452632
 20
1.2024616974
 30
0.0
  0
POINT
  5
DD
330
1F
100
AcDbEntity
  8
0
  6
Continuous
 62
     7
100
AcDbPoint
 10
0.7767079325
 20
1.1993638031
 30
0.0
  0
POINT
  5
DE
330
1F
100
AcDbEntity
  8
0
  6
Continuous
 62
     7
100
AcDbPoint
 10
1.3367079325
 20
1.1987098811
 30
0.0
  0
POINT
  5
DF
330
1F
100
AcDbEntity
  8
0
  6
Continuous
 62
     7
100
AcDbPoint
 10
2.0380356762
 20
1.197890928
 30
0.0
  0
POINT
  5
E0
330
1F
100
AcDbEntity
  8
0
  6
Continuous
 62
     7
100
AcDbPoint
 10
3.7980356762
 20
1.1958357443
 30
0.0
  0
POINT
  5
E1
330
1F
100
AcDbEntity
  8
0
  6
Continuous
 62
     7
100
AcDbPoint
 10
3.9430203643
 20
2.4184957107
 30
0.0
  0
POINT
  5
E2
330
1F
100
AcDbEntity
  8
0
  6
Continuous
 62
     7
100
AcDbPoint
 10
0.3066204776
 20
3.5973112677
 30
0.0
  0
POINT
  5
E3
330
1F
100
AcDbEntity
  8
0
  6
Continuous
 62
     7
100
AcDbPoint
 10
2.8479482213
 20
3.5943437135
 30
0.0
  0
POINT
  5
E4
330
1F
100
AcDbEntity
  8
0
  6
Continuous
 62
     7
100
AcDbPoint
 10
-0.2721327181
 20
3.5999420748
 30
0.0
  0
POINT
  5
E5
330
1F
100
AcDbEntity
  8
0
  6
Continuous
 62
     7
100
AcDbPoint
 10
0.7066204776
 20
3.5968441805
 30
0.0
  0
POINT
  5
E6
330
1F
100
AcDbEntity
  8
0
  6
Continuous
 62
     7
100
AcDbPoint
 10
1.2666204776
 20
3.5961902584
 30
0.0
  0
POINT
  5
E7
330
1F
100
AcDbEntity
  8
0
  6
Continuous
 62
     7
100
AcDbPoint
 10
1.9679482213
 20
3.5953713054
 30
0.0
  0
POINT
  5
E8
330
1F
100
AcDbEntity
  8
0
  6
Continuous
 62
     7
100
AcDbPoint
 10
3.7279482213
 20
3.5933161217
 30
0.0
  0
POINT
  5
E9
330
1F
100
AcDbEntity
  8
0
  6
Continuous
 62
     7
100
AcDbPoint
 10
0.526192229
 20
4.741644734
 30
0.0
  0
POINT
  5
EA
330
1F
100
AcDbEntity
  8
0
  6
Continuous
 62
     7
100
AcDbPoint
 10
2.286192229
 20
4.7436999176
 30
0.0
  0
POINT
  5
EB
330
1F
100
AcDbEntity
  8
0
  6
Continuous
 62
     7
100
AcDbPoint
 10
2.9875199727
 20
4.7445188707
 30
0.0
  0
POINT
  5
EC
330
1F
100
AcDbEntity
  8
0
  6
Continuous
 62
     7
100
AcDbPoint
 10
3.5475199727
 20
4.7451727928
 30
0.0
  0
POINT
  5
ED
330
1F
100
AcDbEntity
  8
0
  6
Continuous
 62
     7
100
AcDbPoint
 10
4.5262731683
 20
4.748270687
 30
0.0
  0
POINT
  5
EE
330
1F
100
AcDbEntity
  8
0
  6
Continuous
 62
     7
100
AcDbPoint
 10
1.406192229
 20
4.7426723258
 30
0.0
  0
POINT
  5
EF
330
1F
100
AcDbEntity
  8
0
  6
Continuous
 62
     7
100
AcDbPoint
 10
3.9475199727
 20
4.74563988
 30
0.0
  0
POINT
  5
F0
330
1F
100
AcDbEntity
  8
0
  6
Continuous
 62
     7
100
AcDbPoint
 10
0.311120086
 20
5.924455437
 30
0.0
  0
POINT
  5
F1
330
1F
100
AcDbEntity
  8
0
  6
Continuous
 62
     7
100
AcDbPoint
 10
2.8524478297
 20
5.9214878828
 30
0.0
  0
POINT
  5
F2
330
1F
100
AcDbEntity
  8
0
  6
Continuous
 62
     7
100
AcDbPoint
 10
-0.2676331097
 20
5.9270862441
 30
0.0
  0
POINT
  5
F3
330
1F
100
AcDbEntity
  8
0
  6
Continuous
 62
     7
100
AcDbPoint
 10
0.711120086
 20
5.9239883498
 30
0.0
  0
POINT
  5
F4
330
1F
100
AcDbEntity
  8
0
  6
Continuous
 62
     7
100
AcDbPoint
 10
1.271120086
 20
5.9233344277
 30
0.0
  0
POINT
  5
F5
330
1F
100
AcDbEntity
  8
0
  6
Continuous
 62
     7
100
AcDbPoint
 10
1.9724478297
 20
5.9225154747
 30
0.0
  0
POINT
  5
F6
330
1F
100
AcDbEntity
  8
0
  6
Continuous
 62
     7
100
AcDbPoint
 10
3.7324478297
 20
5.920460291
 30
0.0
  0
POINT
  5
F7
330
1F
100
AcDbEntity
  8
0
  6
Continuous
 62
     7
100
AcDbPoint
 10
0.4854186149
 20
7.0803191635
 30
0.0
  0
POINT
  5
F8
330
1F
100
AcDbEntity
  8
0
  6
Continuous
 62
     7
100
AcDbPoint
 10
2.2454186149
 20
7.0823743472
 30
0.0
  0
POINT
  5
F9
330
1F
100
AcDbEntity
  8
0
  6
Continuous
 62
     7
100
AcDbPoint
 10
2.9467463586
 20
7.0831933002
 30
0.0
  0
POINT
  5
FA
330
1F
100
AcDbEntity
  8
0
  6
Continuous
 62
     7
100
AcDbPoint
 10
3.5067463586
 20
7.0838472223
 30
0.0
  0
POINT
  5
FB
330
1F
100
AcDbEntity
  8
0
  6
Continuous
 62
     7
100
AcDbPoint
 10
4.4854995543
 20
7.0869451166
 30
0.0
  0
POINT
  5
FC
330
1F
100
AcDbEntity
  8
0
  6
Continuous
 62
     7
100
AcDbPoint
 10
1.3654186149
 20
7.0813467553
 30
0.0
  0
POINT
  5
FD
330
1F
100
AcDbEntity
  8
0
  6
Continuous
 62
     7
100
AcDbPoint
 10
3.9067463586
 20
7.0843143095
 30
0.0
  0
POINT
  5
FE
330
1F
100
AcDbEntity
  8
0
  6
Continuous
 62
     7
100
AcDbPoint
 10
0.2703464719
 20
8.2631298665
 30
0.0
  0
POINT
  5
FF
330
1F
100
AcDbEntity
  8
0
  6
Continuous
 62
     7
100
AcDbPoint
 10
2.8116742156
 20
8.2601623124
 30
0.0
  0
POINT
  5
100
330
1F
100
AcDbEntity
  8
0
  6
Continuous
 62
     7
100
AcDbPoint
 10
-0.3084067238
 20
8.2657606736
 30
0.0
  0
POINT
  5
101
330
1F
100
AcDbEntity
  8
0
  6
Continuous
 62
     7
100
AcDbPoint
 10
0.6703464719
 20
8.2626627793
 30
0.0
  0
POINT
  5
102
330
1F
100
AcDbEntity
  8
0
  6
Continuous
 62
     7
100
AcDbPoint
 10
1.2303464719
 20
8.2620088572
 30
0.0
  0
POINT
  5
103
330
1F
100
AcDbEntity
  8
0
  6
Continuous
 62
     7
100
AcDbPoint
 10
1.9316742156
 20
8.2611899042
 30
0.0
  0
POINT
  5
104
330
1F
100
AcDbEntity
  8
0
  6
Continuous
 62
     7
100
AcDbPoint
 10
3.6916742156
 20
8.2591347205
 30
0.0
  0
POINT
  5
105
330
1F
100
AcDbEntity
  8
0
  6
Continuous
 62
     7
100
AcDbPoint
 10
0.4333167757
 20
9.4904045206
 30
0.0
  0
POINT
  5
106
330
1F
100
AcDbEntity
  8
0
  6
Continuous
 62
     7
100
AcDbPoint
 10
2.1933167757
 20
9.4924597043
 30
0.0
  0
POINT
  5
107
330
1F
100
AcDbEntity
  8
0
  6
Continuous
 62
     7
100
AcDbPoint
 10
2.8946445194
 20
9.4932786573
 30
0.0
  0
POINT
  5
108
330
1F
100
AcDbEntity
  8
0
  6
Continuous
 62
     7
100
AcDbPoint
 10
3.4546445194
 20
9.4939325794
 30
0.0
  0
POINT
  5
109
330
1F
100
AcDbEntity
  8
0
  6
Continuous
 62
     7
100
AcDbPoint
 10
4.4333977151
 20
9.4970304737
 30
0.0
  0
POINT
  5
10A
330
1F
100
AcDbEntity
  8
0
  6
Continuous
 62
     7
100
AcDbPoint
 10
1.3133167757
 20
9.4914321125
 30
0.0
  0
POINT
  5
10B
330
1F
100
AcDbEntity
  8
0
  6
Continuous
 62
     7
100
AcDbPoint
 10
3.8546445194
 20
9.4943996666
 30
0.0
  0
POINT
  5
10C
330
1F
100
AcDbEntity
  8
0
  6
Continuous
 62
     7
100
AcDbPoint
 10
0.2182446328
 20
10.6732152237
 30
0.0
  0
POINT
  5
10D
330
1F
100
AcDbEntity
  8
0
  6
Continuous
 62
     7
100
AcDbPoint
 10
2.7595723765
 20
10.6702476695
 30
0.0
  0
POINT
  5
10E
330
1F
100
AcDbEntity
  8
0
  6
Continuous
 62
     7
100
AcDbPoint
 10
-0.3605085629
 20
10.6758460307
 30
0.0
  0
POINT
  5
10F
330
1F
100
AcDbEntity
  8
0
  6
Continuous
 62
     7
100
AcDbPoint
 10
0.6182446328
 20
10.6727481365
 30
0.0
  0
POINT
  5
110
330
1F
100
AcDbEntity
  8
0
  6
Continuous
 62
     7
100
AcDbPoint
 10
1.1782446328
 20
10.6720942144
 30
0.0
  0
POINT
  5
111
330
1F
100
AcDbEntity
  8
0
  6
Continuous
 62
     7
100
AcDbPoint
 10
1.8795723765
 20
10.6712752614
 30
0.0
  0
POINT
  5
112
330
1F
100
AcDbEntity
  8
0
  6
Continuous
 62
     7
100
AcDbPoint
 10
3.6395723765
 20
10.6692200777
 30
0.0
  0
POINT
  5
113
330
1F
100
AcDbEntity
  8
0
  6
Continuous
 62
     7
100
AcDbPoint
 10
0.4170943392
 20
11.8045325746
 30
0.0
  0
POINT
  5
114
330
1F
100
AcDbEntity
  8
0
  6
Continuous
 62
     7
100
AcDbPoint
 10
2.1770943392
 20
11.8065877583
 30
0.0
  0
POINT
  5
115
330
1F
100
AcDbEntity
  8
0
  6
Continuous
 62
     7
100
AcDbPoint
 10
2.8784220829
 20
11.8074067113
 30
0.0
  0
POINT
  5
116
330
1F
100
AcDbEntity
  8
0
  6
Continuous
 62
     7
100
AcDbPoint
 10
3.4384220829
 20
11.8080606334
 30
0.0
  0
POINT
  5
117
330
1F
100
AcDbEntity
  8
0
  6
Continuous
 62
     7
100
AcDbPoint
 10
4.4171752785
 20
11.8111585276
 30
0.0
  0
POINT
  5
118
330
1F
100
AcDbEntity
  8
0
  6
Continuous
 62
     7
100
AcDbPoint
 10
1.2970943392
 20
11.8055601664
 30
0.0
  0
POINT
  5
119
330
1F
100
AcDbEntity
  8
0
  6
Continuous
 62
     7
100
AcDbPoint
 10
3.8384220829
 20
11.8085277206
 30
0.0
  0
ENDSEC
  0
SECTION
  2
OBJECTS
  0
DICTIONARY
  5
C
330
0
100
AcDbDictionary
281
     1
  3
ACAD_GROUP
350
D
  3
ACAD_LAYOUT
350
1A
  3
ACAD_MLINESTYLE
350
17
  3
ACAD_PLOTSETTINGS
350
19
  3
ACAD_PLOTSTYLENAME
350
E
  3
ACAD_SCALELIST
350
47
  3
DWGPROPS
350
11A
  0
DICTIONARY
  5
D
102
{ACAD_REACTORS
330
C
102
}
330
C
100
AcDbDictionary
281
     1
  0
DICTIONARY
  5
1A
102
{ACAD_REACTORS
330
C
102
}
330
C
100
AcDbDictionary
281
     1
  3
Layout1
350
1E
  3
Layout2
350
26
  3
Model
350
22
  0
DICTIONARY
  5
17
102
{ACAD_REACTORS
330
C
102
}
330
C
100
AcDbDictionary
281
     1
  3
Standard
350
18
  0
DICTIONARY
  5
19
102
{ACAD_REACTORS
330
C
102
}
330
C
100
AcDbDictionary
281
     1
  0
ACDBDICTIONARYWDFLT
  5
E
102
{ACAD_REACTORS
330
C
102
}
330
C
100
AcDbDictionary
281
     1
  3
Normal
350
F
100
AcDbDictionaryWithDefault
340
F
  0
DICTIONARY
  5
47
102
{ACAD_REACTORS
330
C
102
}
330
C
100
AcDbDictionary
281
     1
  3
A0
350
48
  3
A1
350
49
  3
A2
350
4A
  3
A3
350
4B
  3
A4
350
4C
  3
A5
350
4D
  3
A6
350
4E
  3
A7
350
4F
  3
A8
350
50
  3
A9
350
51
  3
B0
350
52
  3
B1
350
53
  3
B2
350
54
  3
B3
350
55
  3
B4
350
56
  3
B5
350
57
  3
B6
350
58
  0
XRECORD
  5
11A
102
{ACAD_REACTORS
330
C
102
}
330
C
100
AcDbXrecord
280
     1
  1
DWGPROPS COOKIE
  2

  3

  4

  6

  7

  8
subha
  9

300
=
301
=
302
=
303
=
304
=
305
=
306
=
307
=
308
=
309
=
 40
0.0
 41
2460253.259646598
 42
2460253.259758125
  1

 90
        0
  0
LAYOUT
  5
1E
102
{ACAD_REACTORS
330
1A
102
}
330
1A
100
AcDbPlotSettings
  1

  2
none_device
  4

  6

 40
0.0
 41
0.0
 42
0.0
 43
0.0
 44
0.0
 45
0.0
 46
0.0
 47
0.0
 48
0.0
 49
0.0
140
0.0
141
0.0
142
1.0
143
1.0
 70
   688
 72
     1
 73
     0
 74
     5
  7

 75
    16
147
1.0
148
0.0
149
0.0
100
AcDbLayout
  1
Layout1
 70
     1
 71
     1
 10
0.0
 20
0.0
 11
420.0
 21
297.0
 12
0.0
 22
0.0
 32
0.0
 14
1.0000000000E+20
 24
1.0000000000E+20
 34
1.0000000000E+20
 15
-1.0000000000E+20
 25
-1.0000000000E+20
 35
-1.0000000000E+20
146
0.0
 13
0.0
 23
0.0
 33
0.0
 16
1.0
 26
0.0
 36
0.0
 17
0.0
 27
1.0
 37
0.0
 76
     0
330
1B
  0
LAYOUT
  5
26
102
{ACAD_REACTORS
330
1A
102
}
330
1A
100
AcDbPlotSettings
  1

  2
none_device
  4

  6

 40
0.0
 41
0.0
 42
0.0
 43
0.0
 44
0.0
 45
0.0
 46
0.0
 47
0.0
 48
0.0
 49
0.0
140
0.0
141
0.0
142
1.0
143
1.0
 70
   688
 72
     1
 73
     0
 74
     5
  7

 75
    16
147
1.0
148
0.0
149
0.0
100
AcDbLayout
  1
Layout2
 70
     1
 71
     2
 10
0.0
 20
0.0
 11
0.0
 21
0.0
 12
0.0
 22
0.0
 32
0.0
 14
0.0
 24
0.0
 34
0.0
 15
0.0
 25
0.0
 35
0.0
146
0.0
 13
0.0
 23
0.0
 33
0.0
 16
1.0
 26
0.0
 36
0.0
 17
0.0
 27
1.0
 37
0.0
 76
     0
330
23
  0
LAYOUT
  5
22
102
{ACAD_REACTORS
330
1A
102
}
330
1A
100
AcDbPlotSettings
  1

  2
none_device
  4
ANSI_A_(11.00_x_8.50_Inches)
  6

 40
6.35
 41
19.05
 42
6.35000508
 43
19.05000254
 44
279.4
 45
215.9
 46
96.1954406654
 47
-10.0529768037
 48
0.0
 49
0.0
140
0.0
141
0.0
142
0.658953667
143
1.0
 70
  1696
 72
     0
 73
     0
 74
     0
  7

 75
     0
147
0.0179189148
148
-1300.4909072572
149
0.0
100
AcDbLayout
  1
Model
 70
     1
 71
     0
 10
0.0
 20
0.0
 11
420.0
 21
297.0
 12
0.0
 22
0.0
 32
0.0
 14
-0.3829056608
 24
-0.4730432157
 34
0.0
 15
4.8226042306
 25
12.2972021307
 35
0.0
146
0.0
 13
0.0
 23
0.0
 33
0.0
 16
1.0
 26
0.0
 36
0.0
 17
0.0
 27
1.0
 37
0.0
 76
     0
330
1F
331
29
  0
MLINESTYLE
  5
18
102
{ACAD_REACTORS
330
17
102
}
330
17
100
AcDbMlineStyle
  2
Standard
 70
     0
  3

 62
   256
 51
90.0
 52
90.0
 71
     2
 49
0.5
 62
   256
  6
BYLAYER
 49
-0.5
 62
   256
  6
BYLAYER
  0
ACDBPLACEHOLDER
  5
F
102
{ACAD_REACTORS
330
E
102
}
330
E
  0
SCALE
  5
48
102
{ACAD_REACTORS
330
47
102
}
330
47
100
AcDbScale
 70
     0
300
1:1
140
1.0
141
1.0
290
     1
  0
SCALE
  5
49
102
{ACAD_REACTORS
330
47
102
}
330
47
100
AcDbScale
 70
     0
300
1:2
140
1.0
141
2.0
290
     0
  0
SCALE
  5
4A
102
{ACAD_REACTORS
330
47
102
}
330
47
100
AcDbScale
 70
     0
300
1:4
140
1.0
141
4.0
290
     0
  0
SCALE
  5
4B
102
{ACAD_REACTORS
330
47
102
}
330
47
100
AcDbScale
 70
     0
300
1:5
140
1.0
141
5.0
290
     0
  0
SCALE
  5
4C
102
{ACAD_REACTORS
330
47
102
}
330
47
100
AcDbScale
 70
     0
300
1:8
140
1.0
141
8.0
290
     0
  0
SCALE
  5
4D
102
{ACAD_REACTORS
330
47
102
}
330
47
100
AcDbScale
 70
     0
300
1:10
140
1.0
141
10.0
290
     0
  0
SCALE
  5
4E
102
{ACAD_REACTORS
330
47
102
}
330
47
100
AcDbScale
 70
     0
300
1:16
140
1.0
141
16.0
290
     0
  0
SCALE
  5
4F
102
{ACAD_REACTORS
330
47
102
}
330
47
100
AcDbScale
 70
     0
300
1:20
140
1.0
141
20.0
290
     0
  0
SCALE
  5
50
102
{ACAD_REACTORS
330
47
102
}
330
47
100
AcDbScale
 70
     0
300
1:30
140
1.0
141
30.0
290
     0
  0
SCALE
  5
51
102
{ACAD_REACTORS
330
47
102
}
330
47
100
AcDbScale
 70
     0
300
1:40
140
1.0
141
40.0
290
     0
  0
SCALE
  5
52
102
{ACAD_REACTORS
330
47
102
}
330
47
100
AcDbScale
 70
     0
300
1:50
140
1.0
141
50.0
290
     0
  0
SCALE
  5
53
102
{ACAD_REACTORS
330
47
102
}
330
47
100
AcDbScale
 70
     0
300
1:100
140
1.0
141
100.0
290
     0
  0
SCALE
  5
54
102
{ACAD_REACTORS
330
47
102
}
330
47
100
AcDbScale
 70
     0
300
2:1
140
2.0
141
1.0
290
     0
  0
SCALE
  5
55
102
{ACAD_REACTORS
330
47
102
}
330
47
100
AcDbScale
 70
     0
300
4:1
140
4.0
141
1.0
290
     0
  0
SCALE
  5
56
102
{ACAD_REACTORS
330
47
102
}
330
47
100
AcDbScale
 70
     0
300
8:1
140
8.0
141
1.0
290
     0
  0
SCALE
  5
57
102
{ACAD_REACTORS
330
47
102
}
330
47
100
AcDbScale
 70
     0
300
10:1
140
10.0
141
1.0
290
     0
  0
SCALE
  5
58
102
{ACAD_REACTORS
330
47
102
}
330
47
100
AcDbScale
 70
     0
300
100:1
140
100.0
141
1.0
290
     0
  0
ENDSEC
  0
EOF
