  0
SECTION
  2
HEADER
  9
$ACADVER
  1
AC1015
  9
$ACADMAINTVER
 70
     6
  9
$DWGCODEPAGE
  3
ANSI_1252
  9
$INSBASE
 10
0.0
 20
0.0
 30
0.0
  9
$EXTMIN
 10
-0.3145813851
 20
-0.5035613144
 30
0.0
  9
$EXTMAX
 10
4.5980356762
 20
8.7821836204
 30
0.0
  9
$LIMMIN
 10
0.0
 20
0.0
  9
$LIMMAX
 10
420.0
 20
297.0
  9
$ORTHOMODE
 70
     0
  9
$REGENMODE
 70
     1
  9
$FILLMODE
 70
     1
  9
$QTEXTMODE
 70
     0
  9
$MIRRTEXT
 70
     1
  9
$LTSCALE
 40
1.0
  9
$ATTMODE
 70
     1
  9
$TEXTSIZE
 40
0.35
  9
$TRACEWID
 40
1.0
  9
$TEXTSTYLE
  7
Standard
  9
$CLAYER
  8
0
  9
$CELTYPE
  6
ByLayer
  9
$CECOLOR
 62
   256
  9
$CELTSCALE
 40
1.0
  9
$DISPSILH
 70
     0
  9
$DIMSCALE
 40
1.0
  9
$DIMASZ
 40
0.3302
  9
$DIMEXO
 40
0.0
  9
$DIMDLI
 40
3.75
  9
$DIMRND
 40
0.0
  9
$DIMDLE
 40
0.0
  9
$DIMEXE
 40
0.1
  9
$DIMTP
 40
0.0
  9
$DIMTM
 40
0.0
  9
$DIMTXT
 40
0.35
  9
$DIMCEN
 40
2.5
  9
$DIMTSZ
 40
0.0
  9
$DIMTOL
 70
     0
  9
$DIMLIM
 70
     0
  9
$DIMTIH
 70
     1
  9
$DIMTOH
 70
     1
  9
$DIMSE1
 70
     0
  9
$DIMSE2
 70
     0
  9
$DIMTAD
 70
     1
  9
$DIMZIN
 70
     1
  9
$DIMBLK
  1

  9
$DIMASO
 70
     1
  9
$DIMSHO
 70
     1
  9
$DIMPOST
  1

  9
$DIMAPOST
  1

  9
$DIMALT
 70
     0
  9
$DIMALTD
 70
     3
  9
$DIMALTF
 40
0.3937007874
  9
$DIMLFAC
 40
1.0
  9
$DIMTOFL
 70
     1
  9
$DIMTVP
 40
0.0
  9
$DIMTIX
 70
     0
  9
$DIMSOXD
 70
     0
  9
$DIMSAH
 70
     0
  9
$DIMBLK1
  1

  9
$DIMBLK2
  1

  9
$DIMSTYLE
  2
ISO-25
  9
$DIMCLRD
 70
     0
  9
$DIMCLRE
 70
     0
  9
$DIMCLRT
 70
     0
  9
$DIMTFAC
 40
1.0
  9
$DIMGAP
 40
0.1524
  9
$DIMJUST
 70
     0
  9
$DIMSD1
 70
     0
  9
$DIMSD2
 70
     0
  9
$DIMTOLJ
 70
     0
  9
$DIMTZIN
 70
     1
  9
$DIMALTZ
 70
     0
  9
$DIMALTTZ
 70
     0
  9
$DIMUPT
 70
     0
  9
$DIMDEC
 70
     2
  9
$DIMTDEC
 70
     2
  9
$DIMALTU
 70
     2
  9
$DIMALTTD
 70
     3
  9
$DIMTXSTY
  7
Standard
  9
$DIMAUNIT
 70
     0
  9
$DIMADEC
 70
     2
  9
$DIMALTRND
 40
0.0
  9
$DIMAZIN
 70
     0
  9
$DIMDSEP
 70
    44
  9
$DIMATFIT
 70
     3
  9
$DIMFRAC
 70
     0
  9
$DIMLDRBLK
  1

  9
$DIMLUNIT
 70
     2
  9
$DIMLWD
 70
    -2
  9
$DIMLWE
 70
    -2
  9
$DIMTMOVE
 70
     0
  9
$LUNITS
 70
     2
  9
$LUPREC
 70
     2
  9
$SKETCHINC
 40
1.0
  9
$FILLETRAD
 40
0.0
  9
$AUNITS
 70
     0
  9
$AUPREC
 70
     2
  9
$MENU
  1
.
  9
$ELEVATION
 40
0.0
  9
$PELEVATION
 40
0.0
  9
$THICKNESS
 40
0.0
  9
$LIMCHECK
 70
     0
  9
$CHAMFERA
 40
0.0
  9
$CHAMFERB
 40
0.0
  9
$CHAMFERC
 40
0.0
  9
$CHAMFERD
 40
0.0
  9
$SKPOLY
 70
     0
  9
$TDCREATE
 40
2460255.621692627
  9
$TDUCREATE
 40
2460255.392525961
  9
$TDUPDATE
 40
2460255.621750104
  9
$TDUUPDATE
 40
2460255.392583438
  9
$TDINDWG
 40
0.0000000116
  9
$TDUSRTIMER
 40
0.0000000116
  9
$USRTIMER
 70
     1
  9
$ANGBASE
 50
0.0
  9
$ANGDIR
 70
     0
  9
$PDMODE
 70
     0
  9
$PDSIZE
 40
-1.0
  9
$PLINEWID
 40
0.0
  9
$SPLFRAME
 70
     0
  9
$SPLINETYPE
 70
     6
  9
$SPLINESEGS
 70
     8
  9
$HANDSEED
  5
B4
  9
$SURFTAB1
 70
     6
  9
$SURFTAB2
 70
     6
  9
$SURFTYPE
 70
     6
  9
$SURFU
 70
     6
  9
$SURFV
 70
     6
  9
$UCSBASE
  2

  9
$UCSNAME
  2

  9
$UCSORG
 10
0.0
 20
0.0
 30
0.0
  9
$UCSXDIR
 10
1.0
 20
0.0
 30
0.0
  9
$UCSYDIR
 10
0.0
 20
1.0
 30
0.0
  9
$UCSORTHOREF
  2

  9
$UCSORTHOVIEW
 70
     0
  9
$UCSORGTOP
 10
0.0
 20
0.0
 30
0.0
  9
$UCSORGBOTTOM
 10
0.0
 20
0.0
 30
0.0
  9
$UCSORGLEFT
 10
0.0
 20
0.0
 30
0.0
  9
$UCSORGRIGHT
 10
0.0
 20
0.0
 30
0.0
  9
$UCSORGFRONT
 10
0.0
 20
0.0
 30
0.0
  9
$UCSORGBACK
 10
0.0
 20
0.0
 30
0.0
  9
$PUCSBASE
  2

  9
$PUCSNAME
  2

  9
$PUCSORG
 10
0.0
 20
0.0
 30
0.0
  9
$PUCSXDIR
 10
1.0
 20
0.0
 30
0.0
  9
$PUCSYDIR
 10
0.0
 20
1.0
 30
0.0
  9
$PUCSORTHOREF
  2

  9
$PUCSORTHOVIEW
 70
     0
  9
$PUCSORGTOP
 10
0.0
 20
0.0
 30
0.0
  9
$PUCSORGBOTTOM
 10
0.0
 20
0.0
 30
0.0
  9
$PUCSORGLEFT
 10
0.0
 20
0.0
 30
0.0
  9
$PUCSORGRIGHT
 10
0.0
 20
0.0
 30
0.0
  9
$PUCSORGFRONT
 10
0.0
 20
0.0
 30
0.0
  9
$PUCSORGBACK
 10
0.0
 20
0.0
 30
0.0
  9
$USERI1
 70
     0
  9
$USERI2
 70
     0
  9
$USERI3
 70
     0
  9
$USERI4
 70
     0
  9
$USERI5
 70
     0
  9
$USERR1
 40
0.0
  9
$USERR2
 40
0.0
  9
$USERR3
 40
0.0
  9
$USERR4
 40
0.0
  9
$USERR5
 40
0.0
  9
$WORLDVIEW
 70
     1
  9
$SHADEDGE
 70
     3
  9
$SHADEDIF
 70
    70
  9
$TILEMODE
 70
     1
  9
$MAXACTVP
 70
    64
  9
$PINSBASE
 10
0.0
 20
0.0
 30
0.0
  9
$PLIMCHECK
 70
     0
  9
$PEXTMIN
 10
1.0000000000E+20
 20
1.0000000000E+20
 30
1.0000000000E+20
  9
$PEXTMAX
 10
-1.0000000000E+20
 20
-1.0000000000E+20
 30
-1.0000000000E+20
  9
$PLIMMIN
 10
0.0
 20
0.0
  9
$PLIMMAX
 10
420.0
 20
297.0
  9
$UNITMODE
 70
     0
  9
$VISRETAIN
 70
     1
  9
$PLINEGEN
 70
     0
  9
$PSLTSCALE
 70
     1
  9
$TREEDEPTH
 70
  3020
  9
$CMLSTYLE
  2
Standard
  9
$CMLJUST
 70
     0
  9
$CMLSCALE
 40
20.0
  9
$PROXYGRAPHICS
 70
     1
  9
$MEASUREMENT
 70
     1
  9
$CELWEIGHT
370
    -1
  9
$ENDCAPS
280
     0
  9
$JOINSTYLE
280
     0
  9
$LWDISPLAY
290
     1
  9
$INSUNITS
 70
     5
  9
$HYPERLINKBASE
  1

  9
$STYLESHEET
  1

  9
$XEDIT
290
     1
  9
$CEPSNTYPE
380
     0
  9
$PSTYLEMODE
290
     1
  9
$FINGERPRINTGUID
  2
{f8af8b56-392b-49ca-81ee-b1d236b27d49}
  9
$VERSIONGUID
  2
{FAEB1C32-E019-11D5-929B-00C0DF256EC4}
  9
$EXTNAMES
290
     1
  9
$PSVPSCALE
 40
0.0
  9
$OLESTARTUP
290
     0
  0
ENDSEC
  0
SECTION
  2
CLASSES
  0
CLASS
  1
ACDBDICTIONARYWDFLT
  2
AcDbDictionaryWithDefault
  3
ObjectDBX Classes
 90
        0
280
     0
281
     0
  0
CLASS
  1
VISUALSTYLE
  2
AcDbVisualStyle
  3
ObjectDBX Classes
 90
     4095
280
     0
281
     0
  0
CLASS
  1
MATERIAL
  2
AcDbMaterial
  3
ObjectDBX Classes
 90
     1153
280
     0
281
     0
  0
CLASS
  1
SCALE
  2
AcDbScale
  3
ObjectDBX Classes
 90
     1153
280
     0
281
     0
  0
CLASS
  1
TABLESTYLE
  2
AcDbTableStyle
  3
ObjectDBX Classes
 90
     4095
280
     0
281
     0
  0
CLASS
  1
MLEADERSTYLE
  2
AcDbMLeaderStyle
  3
ACDB_MLEADERSTYLE_CLASS
 90
     4095
280
     0
281
     0
  0
CLASS
  1
SUN
  2
AcDbSun
  3
SCENEOE
 90
     1153
280
     0
281
     0
  0
CLASS
  1
ACDBPLACEHOLDER
  2
AcDbPlaceHolder
  3
ObjectDBX Classes
 90
        0
280
     0
281
     0
  0
CLASS
  1
LAYOUT
  2
AcDbLayout
  3
ObjectDBX Classes
 90
        0
280
     0
281
     0
  0
ENDSEC
  0
SECTION
  2
TABLES
  0
TABLE
  2
VPORT
  5
8
330
0
100
AcDbSymbolTable
 70
     1
  0
VPORT
  5
29
330
8
100
AcDbSymbolTableRecord
100
AcDbViewportTableRecord
  2
*Active
 70
     0
 10
0.0
 20
0.0
 11
1.0
 21
1.0
 12
2.1417271455
 22
4.139311153
 13
0.0
 23
0.0
 14
10.0
 24
10.0
 15
10.0
 25
10.0
 16
0.0
 26
0.0
 36
1.0
 17
0.0
 27
0.0
 37
0.0
 40
9.4714598336
 41
0.5290493219
 42
50.0
 43
0.0
 44
0.0
 50
0.0
 51
0.0
 71
     0
 72
   100
 73
     1
 74
     3
 75
     0
 76
     0
 77
     0
 78
     0
281
     0
 65
     1
110
0.0
120
0.0
130
0.0
111
1.0
121
0.0
131
0.0
112
0.0
122
1.0
132
0.0
 79
     0
146
0.0
  0
ENDTAB
  0
TABLE
  2
LTYPE
  5
5
330
0
100
AcDbSymbolTable
 70
     6
  0
LTYPE
  5
14
330
5
100
AcDbSymbolTableRecord
100
AcDbLinetypeTableRecord
  2
ByBlock
 70
     0
  3

 72
    65
 73
     0
 40
0.0
  0
LTYPE
  5
15
330
5
100
AcDbSymbolTableRecord
100
AcDbLinetypeTableRecord
  2
ByLayer
 70
     0
  3

 72
    65
 73
     0
 40
0.0
  0
LTYPE
  5
16
330
5
100
AcDbSymbolTableRecord
100
AcDbLinetypeTableRecord
  2
Continuous
 70
     0
  3
Solid line
 72
    65
 73
     0
 40
0.0
  0
LTYPE
  5
5E
330
5
100
AcDbSymbolTableRecord
100
AcDbLinetypeTableRecord
  2
HIDDEN
 70
     0
  3
Hidden __ __ __ __ __ __ __ __ __ __ __ __ __ __
 72
    65
 73
     2
 40
0.1905
 49
0.127
 74
     0
 49
-0.0635
 74
     0
  0
LTYPE
  5
5F
330
5
100
AcDbSymbolTableRecord
100
AcDbLinetypeTableRecord
  2
PHANTOM
 70
     0
  3
Phantom ______  __  __  ______  __  __  ______
 72
    65
 73
     6
 40
1.27
 49
0.635
 74
     0
 49
-0.127
 74
     0
 49
0.127
 74
     0
 49
-0.127
 74
     0
 49
0.127
 74
     0
 49
-0.127
 74
     0
  0
LTYPE
  5
60
330
5
100
AcDbSymbolTableRecord
100
AcDbLinetypeTableRecord
  2
CENTER
 70
     0
  3
Center ____ _ ____ _ ____ _ ____ _ ____ _ ____
 72
    65
 73
     4
 40
1.016
 49
0.635
 74
     0
 49
-0.127
 74
     0
 49
0.127
 74
     0
 49
-0.127
 74
     0
  0
LTYPE
  5
61
330
5
100
AcDbSymbolTableRecord
100
AcDbLinetypeTableRecord
  2
CENTERX2
 70
     0
  3
Center (2x) ________  __  ________  __  _____
 72
    65
 73
     4
 40
2.032
 49
1.27
 74
     0
 49
-0.254
 74
     0
 49
0.254
 74
     0
 49
-0.254
 74
     0
  0
LTYPE
  5
62
330
5
100
AcDbSymbolTableRecord
100
AcDbLinetypeTableRecord
  2
DOT2
 70
     0
  3
Dot (.5x) ........................................
 72
    65
 73
     2
 40
0.0635
 49
0.0
 74
     0
 49
-0.0635
 74
     0
  0
ENDTAB
  0
TABLE
  2
LAYER
  5
2
330
0
100
AcDbSymbolTable
 70
     1
  0
LAYER
  5
10
330
2
100
AcDbSymbolTableRecord
100
AcDbLayerTableRecord
  2
0
 70
     0
 62
     7
  6
Continuous
370
    -3
390
F
  0
ENDTAB
  0
TABLE
  2
STYLE
  5
3
330
0
100
AcDbSymbolTable
 70
     1
  0
STYLE
  5
11
330
3
100
AcDbSymbolTableRecord
100
AcDbTextStyleTableRecord
  2
Standard
 70
     0
 40
0.0
 41
1.0
 50
0.0
 71
     0
 42
0.35
  3
txt
  4

  0
ENDTAB
  0
TABLE
  2
VIEW
  5
6
330
0
100
AcDbSymbolTable
 70
     0
  0
ENDTAB
  0
TABLE
  2
UCS
  5
7
330
0
100
AcDbSymbolTable
 70
     0
  0
ENDTAB
  0
TABLE
  2
APPID
  5
9
330
0
100
AcDbSymbolTable
 70
     1
  0
APPID
  5
12
330
9
100
AcDbSymbolTableRecord
100
AcDbRegAppTableRecord
  2
ACAD
 70
     0
  0
ENDTAB
  0
TABLE
  2
DIMSTYLE
  5
A
330
0
100
AcDbSymbolTable
 70
     1
100
AcDbDimStyleTable
  0
DIMSTYLE
105
27
330
A
100
AcDbSymbolTableRecord
100
AcDbDimStyleTableRecord
  2
ISO-25
 70
     0
 41
2.5
 42
0.625
 43
3.75
 44
1.25
 73
     0
 74
     0
 77
     1
 78
     8
140
2.5
141
2.5
143
0.0393700787
147
0.625
171
     3
172
     1
178
     0
271
     2
272
     2
274
     3
278
    44
283
     0
284
     8
340
11
  0
ENDTAB
  0
TABLE
  2
BLOCK_RECORD
  5
1
330
0
100
AcDbSymbolTable
 70
     1
  0
BLOCK_RECORD
  5
1F
330
1
100
AcDbSymbolTableRecord
100
AcDbBlockTableRecord
  2
*Model_Space
340
22
  0
BLOCK_RECORD
  5
1B
330
1
100
AcDbSymbolTableRecord
100
AcDbBlockTableRecord
  2
*Paper_Space
340
1E
  0
BLOCK_RECORD
  5
23
330
1
100
AcDbSymbolTableRecord
100
AcDbBlockTableRecord
  2
*Paper_Space0
340
26
  0
ENDTAB
  0
ENDSEC
  0
SECTION
  2
BLOCKS
  0
BLOCK
  5
20
330
1F
100
AcDbEntity
  8
0
100
AcDbBlockBegin
  2
*Model_Space
 70
     0
 10
0.0
 20
0.0
 30
0.0
  3
*Model_Space
  1

  0
ENDBLK
  5
21
330
1F
100
AcDbEntity
  8
0
100
AcDbBlockEnd
  0
BLOCK
  5
1C
330
1B
100
AcDbEntity
 67
     1
  8
0
100
AcDbBlockBegin
  2
*Paper_Space
 70
     0
 10
0.0
 20
0.0
 30
0.0
  3
*Paper_Space
  1

  0
ENDBLK
  5
1D
330
1B
100
AcDbEntity
 67
     1
  8
0
100
AcDbBlockEnd
  0
BLOCK
  5
24
330
23
100
AcDbEntity
  8
0
100
AcDbBlockBegin
  2
*Paper_Space0
 70
     0
 10
0.0
 20
0.0
 30
0.0
  3
*Paper_Space0
  1

  0
ENDBLK
  5
25
330
23
100
AcDbEntity
  8
0
100
AcDbBlockEnd
  0
ENDSEC
  0
SECTION
  2
ENTITIES
  0
CIRCLE
  5
63
330
1F
100
AcDbEntity
  8
0
  6
Continuous
 62
     7
370
    25
100
AcDbCircle
 10
4.0131078192
 20
0.0210153333
 30
0.0
 40
0.080000000000001
  0
CIRCLE
  5
64
330
1F
100
AcDbEntity
  8
0
  6
Continuous
 62
     7
370
    25
100
AcDbCircle
 10
1.4717800755
 20
0.0180477791
 30
0.0
 40
0.3999999999999999
  0
CIRCLE
  5
65
330
1F
100
AcDbEntity
  8
0
  6
Continuous
 62
     7
370
    25
100
AcDbCircle
 10
3.6131078192
 20
0.0205482461
 30
0.0
 40
0.1800000000000002
  0
CIRCLE
  5
66
330
1F
100
AcDbEntity
  8
0
  6
Continuous
 62
     7
370
    25
100
AcDbCircle
 10
3.0531078192
 20
0.019894324
 30
0.0
 40
0.2400000000000002
  0
CIRCLE
  5
67
330
1F
100
AcDbEntity
  8
0
  6
Continuous
 62
     7
370
    25
100
AcDbCircle
 10
2.3517800755
 20
0.019075371
 30
0.0
 40
0.3000000000000012
  0
CIRCLE
  5
68
330
1F
100
AcDbEntity
  8
0
  6
Continuous
 62
     7
370
    25
100
AcDbCircle
 10
0.5917800755
 20
0.0170201873
 30
0.0
 40
0.3
  0
SPLINE
  5
69
330
1F
100
AcDbEntity
  8
0
  6
Continuous
 62
     7
370
    25
100
AcDbSpline
210
0.0
220
0.0
230
1.0
 70
     8
 71
     3
 72
    51
 73
    47
 74
     0
 42
0.00000001
 43
0.00000001
 40
0.0
 40
0.0
 40
0.0
 40
0.0
 40
0.015625
 40
0.03125
 40
0.03125
 40
0.046875
 40
0.046875
 40
0.0625
 40
0.0625
 40
0.09375
 40
0.09375
 40
0.125
 40
0.125
 40
0.15625
 40
0.15625
 40
0.1875
 40
0.1875
 40
0.21875
 40
0.21875
 40
0.25
 40
0.25
 40
0.3125
 40
0.3125
 40
0.375
 40
0.375
 40
0.5
 40
0.5
 40
0.625
 40
0.625
 40
0.75
 40
0.75
 40
0.8125
 40
0.8125
 40
0.875
 40
0.875
 40
0.90625
 40
0.90625
 40
0.9375
 40
0.9375
 40
0.953125
 40
0.953125
 40
0.96875
 40
0.96875
 40
0.984375
 40
0.984375
 40
1.0
 40
1.0
 40
1.0
 40
1.0
 10
4.59178007547086
 20
0.0750362196629911
 30
0.0
 10
4.56851623420846
 20
0.0804768779358991
 30
0.0
 10
4.521926751678559
 20
0.0912628567524679
 30
0.0
 10
4.470775609254438
 20
0.1029016426023509
 30
0.0
 10
4.417701037186097
 20
0.1148857883215164
 30
0.0
 10
4.390298582735692
 20
0.1210279622223649
 30
0.0
 10
4.335931656351381
 20
0.1331077103829292
 30
0.0
 10
4.308987826631984
 20
0.1390404571365744
 30
0.0
 10
4.230114568474241
 20
0.1562305498911953
 30
0.0
 10
4.180198049273202
 20
0.1668670962557121
 30
0.0
 10
4.079976861152539
 20
0.1878440725873981
 30
0.0
 10
4.029525625021242
 20
0.1982187821917961
 30
0.0
 10
3.92635922422032
 20
0.2191196689367486
 30
0.0
 10
3.873689869490084
 20
0.2296351344241589
 30
0.0
 10
3.769412379284927
 20
0.2500443363855062
 30
0.0
 10
3.718120337040434
 20
0.2598641615786726
 30
0.0
 10
3.616117336990312
 20
0.278994026409738
 30
0.0
 10
3.564975513433907
 20
0.2884048357336099
 30
0.0
 10
3.46154070295075
 20
0.3071164374838939
 30
0.0
 10
3.409473404837374
 20
0.3163644697258362
 30
0.0
 10
3.253734706275725
 20
0.3434155187783589
 30
0.0
 10
3.150895499488806
 20
0.3604420316454998
 30
0.0
 10
2.94372099346652
 20
0.3931394925243227
 30
0.0
 10
2.839436688066435
 20
0.4087987514510061
 30
0.0
 10
2.52796077048283
 20
0.4525173751189944
 30
0.0
 10
2.319402951607713
 20
0.4780323861360881
 30
0.0
 10
1.901636107767803
 20
0.518013108805375
 30
0.0
 10
1.692040701015977
 20
0.5326227478270218
 30
0.0
 10
1.272430383799467
 20
0.5443564135742568
 30
0.0
 10
1.062172449467179
 20
0.5417223359860966
 30
0.0
 10
0.7484778147633332
 20
0.5148791344917213
 30
0.0
 10
0.6441938099005489
 20
0.5020664589571816
 30
0.0
 10
0.4375619224053443
 20
0.46518641845407
 30
0.0
 10
0.3350740383443181
 20
0.4412805990286553
 30
0.0
 10
0.1856816571170886
 20
0.3916470794265902
 30
0.0
 10
0.1366198095542975
 20
0.3727792666789506
 30
0.0
 10
0.0414970015078418
 20
0.3284411026583743
 30
0.0
 10
-0.0046679621008312
 20
0.3030022453875417
 30
0.0
 10
-0.068729121234112
 20
0.2572687693743109
 30
0.0
 10
-0.0891934136954944
 20
0.2407403263132782
 30
0.0
 10
-0.1271389265692303
 20
0.2044952199364736
 30
0.0
 10
-0.1446317243677935
 20
0.1847579189842803
 30
0.0
 10
-0.1745471802100485
 20
0.1416457861731328
 30
0.0
 10
-0.1869271678639907
 20
0.1182216007343133
 30
0.0
 10
-0.2038203742273308
 20
0.0685422579384601
 30
0.0
 10
-0.208229933766263
 20
0.0423593769457865
 30
0.0
 10
-0.2082199245291089
 20
0.0160860128899515
 30
0.0
  0
SPLINE
  5
6B
330
1F
100
AcDbEntity
  8
0
  6
Continuous
 62
     7
370
    25
100
AcDbSpline
210
0.0
220
0.0
230
1.0
 70
     8
 71
     3
 72
    51
 73
    47
 74
     0
 42
0.00000001
 43
0.00000001
 40
0.0
 40
0.0
 40
0.0
 40
0.0
 40
0.015625
 40
0.015625
 40
0.03125
 40
0.03125
 40
0.046875
 40
0.046875
 40
0.0625
 40
0.0625
 40
0.0937499999999999
 40
0.0937499999999999
 40
0.1249999999999999
 40
0.1249999999999999
 40
0.1874999999999999
 40
0.1874999999999999
 40
0.2499999999999999
 40
0.2499999999999999
 40
0.3749999999999998
 40
0.3749999999999998
 40
0.4999999999999998
 40
0.4999999999999998
 40
0.6249999999999998
 40
0.6249999999999998
 40
0.6874999999999997
 40
0.6874999999999997
 40
0.7499999999999999
 40
0.7499999999999999
 40
0.78125
 40
0.78125
 40
0.8125000000000001
 40
0.8125000000000001
 40
0.8437500000000002
 40
0.8437500000000002
 40
0.8750000000000002
 40
0.8750000000000002
 40
0.9062500000000003
 40
0.9062500000000003
 40
0.9375000000000004
 40
0.9375000000000004
 40
0.9531250000000003
 40
0.9531250000000003
 40
0.9687500000000002
 40
0.9687500000000002
 40
0.9843750000000001
 40
1.0
 40
1.0
 40
1.0
 40
1.0
 10
-0.2082199245291048
 20
0.0160860128899522
 30
0.0
 10
-0.2081471728250597
 20
-0.0101872523464969
 30
0.0
 10
-0.2036551592924093
 20
-0.0363561133615735
 30
0.0
 10
-0.1866055471985532
 20
-0.0859819962183171
 30
0.0
 10
-0.1741518349635221
 20
-0.1093670685797833
 30
0.0
 10
-0.1441007246573769
 20
-0.1523847540491778
 30
0.0
 10
-0.1265458413009228
 20
-0.1720668549035125
 30
0.0
 10
-0.0884863448819436
 20
-0.2081922533905954
 30
0.0
 10
-0.0679700894822537
 20
-0.2246561520886994
 30
0.0
 10
-0.0037651880794236
 20
-0.2701876090564395
 30
0.0
 10
0.0424796786955752
 20
-0.2954809208443113
 30
0.0
 10
0.1377416796854793
 20
-0.3395192287904379
 30
0.0
 10
0.186862717303549
 20
-0.358232403493805
 30
0.0
 10
0.3364107025586909
 20
-0.4073950920183186
 30
0.0
 10
0.4389733812974084
 20
-0.4309779568070888
 30
0.0
 10
0.6457204154821927
 20
-0.4672069255080818
 30
0.0
 10
0.7500442627950872
 20
-0.4796910436752073
 30
0.0
 10
1.063821897060301
 20
-0.5055459763452397
 30
0.0
 10
1.274087085576825
 20
-0.5075177300144312
 30
0.0
 10
1.693658360051369
 20
-0.4944623532593235
 30
0.0
 10
1.903206706701772
 20
-0.4791925628255888
 30
0.0
 10
2.320845538936975
 20
-0.4378960762155292
 30
0.0
 10
2.529321951021784
 20
-0.4117242362841958
 30
0.0
 10
2.84065860997629
 20
-0.3670246828074486
 30
0.0
 10
2.944893071453854
 20
-0.3510370068226951
 30
0.0
 10
3.151963552887825
 20
-0.3176871100881537
 30
0.0
 10
3.254748616082469
 20
-0.3003367389955568
 30
0.0
 10
3.410401331394213
 20
-0.2727952484658278
 30
0.0
 10
3.462439239960025
 20
-0.2633832505232463
 30
0.0
 10
3.565814595879154
 20
-0.2443459227606422
 30
0.0
 10
3.61692652173296
 20
-0.2347740637813324
 30
0.0
 10
3.718868756797163
 20
-0.2153229852047286
 30
0.0
 10
3.770129612196994
 20
-0.2053416391976551
 30
0.0
 10
3.874342296229988
 20
-0.1846040652116451
 30
0.0
 10
3.926978266020897
 20
-0.1739227438379932
 30
0.0
 10
4.030078317358805
 20
-0.1526969874306866
 30
0.0
 10
4.080496622935315
 20
-0.1421634082979836
 30
0.0
 10
4.180651236523262
 20
-0.1208708400783784
 30
0.0
 10
4.230534003038623
 20
-0.1100771098387437
 30
0.0
 10
4.309352721229484
 20
-0.0926386522211949
 30
0.0
 10
4.336277729168207
 20
-0.0866210620481762
 30
0.0
 10
4.390606334712923
 20
-0.0743701184247006
 30
0.0
 10
4.41798930541343
 20
-0.0681416574791767
 30
0.0
 10
4.471025864200799
 20
-0.0559903867287923
 30
0.0
 10
4.522140090767437
 20
-0.0441905329226326
 30
0.0
 10
4.56869536640682
 20
-0.0332578511118418
 30
0.0
 10
4.591941954220712
 20
-0.0277439389130857
 30
0.0
  0
CIRCLE
  5
6C
330
1F
100
AcDbEntity
  8
0
  6
Continuous
 62
     7
370
    25
100
AcDbCircle
 10
3.9430203643
 20
2.4184957107
 30
0.0
 40
0.0799999999999996
  0
CIRCLE
  5
6D
330
1F
100
AcDbEntity
  8
0
  6
Continuous
 62
     7
370
    25
100
AcDbCircle
 10
1.4016926206
 20
2.4155281565
 30
0.0
 40
0.3999999999999984
  0
CIRCLE
  5
6E
330
1F
100
AcDbEntity
  8
0
  6
Continuous
 62
     7
370
    25
100
AcDbCircle
 10
3.5430203643
 20
2.4180286235
 30
0.0
 40
0.1800000000000015
  0
CIRCLE
  5
6F
330
1F
100
AcDbEntity
  8
0
  6
Continuous
 62
     7
370
    25
100
AcDbCircle
 10
2.9830203643
 20
2.4173747014
 30
0.0
 40
0.2400000000000015
  0
CIRCLE
  5
70
330
1F
100
AcDbEntity
  8
0
  6
Continuous
 62
     7
370
    25
100
AcDbCircle
 10
2.2816926206
 20
2.4165557483
 30
0.0
 40
0.3000000000000016
  0
CIRCLE
  5
71
330
1F
100
AcDbEntity
  8
0
  6
Continuous
 62
     7
370
    25
100
AcDbCircle
 10
0.5216926206
 20
2.4145005647
 30
0.0
 40
0.3000000000000014
  0
SPLINE
  5
72
330
1F
100
AcDbEntity
  8
0
  6
Continuous
 62
     7
370
    25
100
AcDbSpline
210
0.0
220
0.0
230
1.0
 70
     8
 71
     3
 72
    51
 73
    47
 74
     0
 42
0.00000001
 43
0.00000001
 40
0.0
 40
0.0
 40
0.0
 40
0.0
 40
0.0156250000000002
 40
0.0312500000000004
 40
0.0312500000000004
 40
0.0468750000000006
 40
0.0468750000000006
 40
0.0625000000000008
 40
0.0625000000000008
 40
0.0937500000000008
 40
0.0937500000000008
 40
0.1250000000000008
 40
0.1250000000000008
 40
0.1562500000000008
 40
0.1562500000000008
 40
0.1875000000000009
 40
0.1875000000000009
 40
0.2187500000000009
 40
0.2187500000000009
 40
0.2500000000000009
 40
0.2500000000000009
 40
0.3125000000000009
 40
0.3125000000000009
 40
0.3750000000000009
 40
0.3750000000000009
 40
0.5000000000000007
 40
0.5000000000000007
 40
0.6250000000000004
 40
0.6250000000000004
 40
0.7500000000000003
 40
0.7500000000000003
 40
0.8125000000000002
 40
0.8125000000000002
 40
0.8750000000000001
 40
0.8750000000000001
 40
0.9062500000000001
 40
0.9062500000000001
 40
0.9375000000000001
 40
0.9375000000000001
 40
0.9531250000000001
 40
0.9531250000000001
 40
0.96875
 40
0.96875
 40
0.984375
 40
0.984375
 40
1.0
 40
1.0
 40
1.0
 40
1.0
 10
4.521692620572263
 20
2.472516597026959
 30
0.0
 10
4.498428779309869
 20
2.477957255299883
 30
0.0
 10
4.451839296779974
 20
2.488743234116483
 30
0.0
 10
4.400688154355864
 20
2.500382019966401
 30
0.0
 10
4.347613582287528
 20
2.512366165685602
 30
0.0
 10
4.320211127837127
 20
2.518508339586471
 30
0.0
 10
4.26584420145283
 20
2.530588087747073
 30
0.0
 10
4.238900371733436
 20
2.536520834500736
 30
0.0
 10
4.160027113575706
 20
2.55371092725541
 30
0.0
 10
4.110110594374675
 20
2.564347473619962
 30
0.0
 10
4.009889406254027
 20
2.585324449951717
 30
0.0
 10
3.959438170122738
 20
2.595699159556149
 30
0.0
 10
3.856271769321834
 20
2.616600046301173
 30
0.0
 10
3.803602414591607
 20
2.627115511788619
 30
0.0
 10
3.699324924386461
 20
2.647524713750038
 30
0.0
 10
3.648032882141977
 20
2.657344538943238
 30
0.0
 10
3.54602988209187
 20
2.676474403774376
 30
0.0
 10
3.494888058535469
 20
2.685885213098283
 30
0.0
 10
3.391453248052327
 20
2.704596814848638
 30
0.0
 10
3.339385949938955
 20
2.713844847090615
 30
0.0
 10
3.183647251377323
 20
2.740895896143245
 30
0.0
 10
3.080808044590417
 20
2.757922409010455
 30
0.0
 10
2.87363353856815
 20
2.790619869889425
 30
0.0
 10
2.769349233168078
 20
2.806279128816178
 30
0.0
 10
2.457873315584507
 20
2.849997752484381
 30
0.0
 10
2.249315496709408
 20
2.875512763501618
 30
0.0
 10
1.831548652869526
 20
2.915493486171196
 30
0.0
 10
1.62195324611771
 20
2.930103125192983
 30
0.0
 10
1.202342928901206
 20
2.941836790940507
 30
0.0
 10
0.9920849945689156
 20
2.939202713352493
 30
0.0
 10
0.6783903598650532
 20
2.912359511858333
 30
0.0
 10
0.5741063550022598
 20
2.899546836323864
 30
0.0
 10
0.3674744675070302
 20
2.862666795820897
 30
0.0
 10
0.2649865834459881
 20
2.838760976395554
 30
0.0
 10
0.1155942022187238
 20
2.789127456793592
 30
0.0
 10
0.06653235465592
 20
2.770259644045985
 30
0.0
 10
-0.0285904533905663
 20
2.725921480025473
 30
0.0
 10
-0.074755416999258
 20
2.700482622754675
 30
0.0
 10
-0.1388165761325701
 20
2.654749146741487
 30
0.0
 10
-0.1592808685939629
 20
2.638220703680469
 30
0.0
 10
-0.1972263814677237
 20
2.601975597303689
 30
0.0
 10
-0.2147191792663011
 20
2.582238296351509
 30
0.0
 10
-0.244634635108585
 20
2.539126163540384
 30
0.0
 10
-0.2570146227625448
 20
2.51570197810157
 30
0.0
 10
-0.2739078291259189
 20
2.46602263530573
 30
0.0
 10
-0.278317388664866
 20
2.43983975431306
 30
0.0
 10
-0.2783073794277329
 20
2.413566390257223
 30
0.0
  0
SPLINE
  5
74
330
1F
100
AcDbEntity
  8
0
  6
Continuous
 62
     7
370
    25
100
AcDbSpline
210
0.0
220
0.0
230
1.0
 70
     8
 71
     3
 72
    51
 73
    47
 74
     0
 42
0.00000001
 43
0.00000001
 40
0.0
 40
0.0
 40
0.0
 40
0.0
 40
0.015625
 40
0.015625
 40
0.0312500000000001
 40
0.0312500000000001
 40
0.0468750000000001
 40
0.0468750000000001
 40
0.0625000000000001
 40
0.0625000000000001
 40
0.0937500000000001
 40
0.0937500000000001
 40
0.1250000000000001
 40
0.1250000000000001
 40
0.1875000000000001
 40
0.1875000000000001
 40
0.2500000000000001
 40
0.2500000000000001
 40
0.3750000000000001
 40
0.3750000000000001
 40
0.5000000000000001
 40
0.5000000000000001
 40
0.6250000000000001
 40
0.6250000000000001
 40
0.6875000000000002
 40
0.6875000000000002
 40
0.7500000000000002
 40
0.7500000000000002
 40
0.7812500000000002
 40
0.7812500000000002
 40
0.8125000000000001
 40
0.8125000000000001
 40
0.8437500000000001
 40
0.8437500000000001
 40
0.875
 40
0.875
 40
0.90625
 40
0.90625
 40
0.9375
 40
0.9375
 40
0.953125
 40
0.953125
 40
0.96875
 40
0.96875
 40
0.9843750000000001
 40
1.0
 40
1.0
 40
1.0
 40
1.0
 10
-0.2783073794277329
 20
2.413566390257224
 30
0.0
 10
-0.2782346277237075
 20
2.387293125020778
 30
0.0
 10
-0.27374261419108
 20
2.361124264005697
 30
0.0
 10
-0.2566930020972625
 20
2.311498381148937
 30
0.0
 10
-0.244239289862249
 20
2.288113308787462
 30
0.0
 10
-0.2141881795561376
 20
2.245095623318043
 30
0.0
 10
-0.196633296199699
 20
2.225413522463696
 30
0.0
 10
-0.1585737997807479
 20
2.189288123976585
 30
0.0
 10
-0.1380575443810709
 20
2.172824225278463
 30
0.0
 10
-0.0738526429782772
 20
2.127292768310675
 30
0.0
 10
-0.0276077762032978
 20
2.101999456522767
 30
0.0
 10
0.0676542247865727
 20
2.057961148576565
 30
0.0
 10
0.1167752624046278
 20
2.039247973873159
 30
0.0
 10
0.2663232476597308
 20
1.990085285348531
 30
0.0
 10
0.3688859263984299
 20
1.966502420559679
 30
0.0
 10
0.5756329605831861
 20
1.930273451858523
 30
0.0
 10
0.6799568078960702
 20
1.917789333691318
 30
0.0
 10
0.9937344421612648
 20
1.891934401021041
 30
0.0
 10
1.20399963067779
 20
1.889962647351688
 30
0.0
 10
1.623570905152343
 20
1.903018024106463
 30
0.0
 10
1.833119251802762
 20
1.918287814540033
 30
0.0
 10
2.25075808403799
 20
1.959584301149769
 30
0.0
 10
2.459234496122825
 20
1.985756141080939
 30
0.0
 10
2.770571155077362
 20
2.030455694557444
 30
0.0
 10
2.874805616554941
 20
2.046443370542115
 30
0.0
 10
3.081876097988936
 20
2.079793267276496
 30
0.0
 10
3.184661161183592
 20
2.097143638369012
 30
0.0
 10
3.340313876495356
 20
2.12468512889862
 30
0.0
 10
3.392351785061178
 20
2.134097126841161
 30
0.0
 10
3.495727140980319
 20
2.153134454603685
 30
0.0
 10
3.546839066834133
 20
2.162706313582954
 30
0.0
 10
3.648781301898355
 20
2.182157392159479
 30
0.0
 10
3.700042157298192
 20
2.192138738166512
 30
0.0
 10
3.804254841331203
 20
2.21287631215244
 30
0.0
 10
3.85689081112212
 20
2.223557633526051
 30
0.0
 10
3.959990862460045
 20
2.244783389933276
 30
0.0
 10
4.010409168036563
 20
2.25531696906594
 30
0.0
 10
4.110563781624527
 20
2.276609537285466
 30
0.0
 10
4.160446548139894
 20
2.287403267525062
 30
0.0
 10
4.239265266330771
 20
2.304841725142549
 30
0.0
 10
4.266190274269499
 20
2.310859315315546
 30
0.0
 10
4.320518879814225
 20
2.32311025893898
 30
0.0
 10
4.347901850514736
 20
2.329338719884483
 30
0.0
 10
4.400938409302118
 20
2.341489990634825
 30
0.0
 10
4.45205263586876
 20
2.353289844440947
 30
0.0
 10
4.498607911508152
 20
2.364222526251702
 30
0.0
 10
4.521854499322052
 20
2.36973643845044
 30
0.0
  0
CIRCLE
  5
75
330
1F
100
AcDbEntity
  8
0
  6
Continuous
 62
     7
370
    25
100
AcDbCircle
 10
3.7980356762
 20
1.1958357443
 30
0.0
 40
0.3000000000000012
  0
CIRCLE
  5
76
330
1F
100
AcDbEntity
  8
0
  6
Continuous
 62
     7
370
    25
100
AcDbCircle
 10
2.0380356762
 20
1.197890928
 30
0.0
 40
0.3000000000000007
  0
CIRCLE
  5
77
330
1F
100
AcDbEntity
  8
0
  6
Continuous
 62
     7
370
    25
100
AcDbCircle
 10
1.3367079325
 20
1.1987098811
 30
0.0
 40
0.2399999999999993
  0
CIRCLE
  5
78
330
1F
100
AcDbEntity
  8
0
  6
Continuous
 62
     7
370
    25
100
AcDbCircle
 10
0.7767079325
 20
1.1993638031
 30
0.0
 40
0.1800000000000004
  0
CIRCLE
  5
79
330
1F
100
AcDbEntity
  8
0
  6
Continuous
 62
     7
370
    25
100
AcDbCircle
 10
2.9180356762
 20
1.1968633362
 30
0.0
 40
0.4000000000000017
  0
CIRCLE
  5
7A
330
1F
100
AcDbEntity
  8
0
  6
Continuous
 62
     7
370
    25
100
AcDbCircle
 10
0.3767079325
 20
1.1998308903
 30
0.0
 40
0.0800000000000003
  0
SPLINE
  5
7B
330
1F
100
AcDbEntity
  8
0
  6
Continuous
 62
     7
370
    25
100
AcDbSpline
210
0.0
220
0.0
230
1.0
 70
     8
 71
     3
 72
    51
 73
    47
 74
     0
 42
0.00000001
 43
0.00000001
 40
0.0
 40
0.0
 40
0.0
 40
0.0
 40
0.015625
 40
0.03125
 40
0.03125
 40
0.046875
 40
0.046875
 40
0.0625
 40
0.0625
 40
0.09375
 40
0.09375
 40
0.125
 40
0.125
 40
0.15625
 40
0.15625
 40
0.1875000000000001
 40
0.1875000000000001
 40
0.2187500000000001
 40
0.2187500000000001
 40
0.2500000000000001
 40
0.2500000000000001
 40
0.3125000000000002
 40
0.3125000000000002
 40
0.3750000000000003
 40
0.3750000000000003
 40
0.5000000000000004
 40
0.5000000000000004
 40
0.6250000000000006
 40
0.6250000000000006
 40
0.7500000000000008
 40
0.7500000000000008
 40
0.8125000000000007
 40
0.8125000000000007
 40
0.8750000000000006
 40
0.8750000000000006
 40
0.9062500000000004
 40
0.9062500000000004
 40
0.9375000000000004
 40
0.9375000000000004
 40
0.9531250000000003
 40
0.9531250000000003
 40
0.9687500000000002
 40
0.9687500000000002
 40
0.9843750000000001
 40
0.9843750000000001
 40
1.0
 40
1.0
 40
1.0
 40
1.0
 10
-0.2021262025529789
 20
1.15107161812337
 30
0.0
 10
-0.1788796147390828
 20
1.145557705924629
 30
0.0
 10
-0.132324339099691
 20
1.134625024113867
 30
0.0
 10
-0.0812101125330516
 20
1.122825170307739
 30
0.0
 10
-0.0281735537456723
 20
1.110673899557388
 30
0.0
 10
-0.000790583045162
 20
1.104445438611882
 30
0.0
 10
0.0535380224995625
 20
1.09219449498844
 30
0.0
 10
0.080463030438287
 20
1.086176904815439
 30
0.0
 10
0.1592817486291611
 20
1.068738447197939
 30
0.0
 10
0.2091645151445279
 20
1.057944716958336
 30
0.0
 10
0.3093191287324875
 20
1.036652148738794
 30
0.0
 10
0.3597374343090053
 20
1.026118569606123
 30
0.0
 10
0.4628374856469275
 20
1.004892813198881
 30
0.0
 10
0.515473455437843
 20
0.9942114918252636
 30
0.0
 10
0.6196861394708489
 20
0.9734739178393168
 30
0.0
 10
0.6709469948706825
 20
0.9634925718322764
 30
0.0
 10
0.7728892299349029
 20
0.9440414932557366
 30
0.0
 10
0.8240011557887139
 20
0.9344696342764587
 30
0.0
 10
0.9273765117078534
 20
0.9154323065139198
 30
0.0
 10
0.9794144202736739
 20
0.9060203085713716
 30
0.0
 10
1.135067135585435
 20
0.8784788180417398
 30
0.0
 10
1.237852198780089
 20
0.8611284469492074
 30
0.0
 10
1.444922680214088
 20
0.8277785502147978
 30
0.0
 10
1.549157141691658
 20
0.8117908742301082
 30
0.0
 10
1.860493800646193
 20
0.7670913207535573
 30
0.0
 10
2.068970212731016
 20
0.7409194808223545
 30
0.0
 10
2.486609044966249
 20
0.6996229942125586
 30
0.0
 10
2.696157391616656
 20
0.6843532037789541
 30
0.0
 10
3.115728666091208
 20
0.6712978270241122
 30
0.0
 10
3.32599385460773
 20
0.6732695806934357
 30
0.0
 10
3.639771488872926
 20
0.699124513363665
 30
0.0
 10
3.74409533618581
 20
0.7116086315308551
 30
0.0
 10
3.950842370370576
 20
0.7478376002319792
 30
0.0
 10
4.053405049109278
 20
0.771420465020814
 30
0.0
 10
4.202953034364392
 20
0.8205831535454212
 30
0.0
 10
4.252074071982448
 20
0.8392963282488196
 30
0.0
 10
4.347336072972325
 20
0.8833346361950059
 30
0.0
 10
4.393580939747306
 20
0.9086279479829075
 30
0.0
 10
4.45778584115011
 20
0.9541594049506872
 30
0.0
 10
4.478302096549792
 20
0.970623303648805
 30
0.0
 10
4.516361592968745
 20
1.006748702135911
 30
0.0
 10
4.533916476325186
 20
1.026430802990257
 30
0.0
 10
4.563967586631305
 20
1.069448488459669
 30
0.0
 10
4.576421298866322
 20
1.092833560821144
 30
0.0
 10
4.593470910960145
 20
1.142459443677899
 30
0.0
 10
4.597962924492785
 20
1.168628304692978
 30
0.0
 10
4.598035676196808
 20
1.194901569929428
 30
0.0
  0
SPLINE
  5
7D
330
1F
100
AcDbEntity
  8
0
  6
Continuous
 62
     7
370
    25
100
AcDbSpline
210
0.0
220
0.0
230
1.0
 70
     8
 71
     3
 72
    51
 73
    47
 74
     0
 42
0.00000001
 43
0.00000001
 40
0.0
 40
0.0
 40
0.0
 40
0.0
 40
0.0156250000000002
 40
0.0156250000000002
 40
0.0312500000000004
 40
0.0312500000000004
 40
0.0468750000000007
 40
0.0468750000000007
 40
0.0625000000000009
 40
0.0625000000000009
 40
0.0937500000000009
 40
0.0937500000000009
 40
0.1250000000000009
 40
0.1250000000000009
 40
0.1875000000000007
 40
0.1875000000000007
 40
0.2500000000000004
 40
0.2500000000000004
 40
0.3750000000000003
 40
0.3750000000000003
 40
0.5000000000000002
 40
0.5000000000000002
 40
0.6250000000000001
 40
0.6250000000000001
 40
0.6875000000000001
 40
0.6875000000000001
 40
0.75
 40
0.75
 40
0.78125
 40
0.78125
 40
0.8125
 40
0.8125
 40
0.84375
 40
0.84375
 40
0.875
 40
0.875
 40
0.90625
 40
0.90625
 40
0.9375
 40
0.9375
 40
0.953125
 40
0.953125
 40
0.96875
 40
0.96875
 40
0.984375
 40
1.0
 40
1.0
 40
1.0
 40
1.0
 10
4.598035676196808
 20
1.194901569929427
 30
0.0
 10
4.598045685433948
 20
1.221174933985262
 30
0.0
 10
4.593636125895005
 20
1.247357814977934
 30
0.0
 10
4.576742919531639
 20
1.297037157773778
 30
0.0
 10
4.564362931877687
 20
1.320461343212592
 30
0.0
 10
4.534447476035415
 20
1.363573476023725
 30
0.0
 10
4.516954678236839
 20
1.38331077697591
 30
0.0
 10
4.47900916536309
 20
1.419555883352697
 30
0.0
 10
4.458544872901697
 20
1.436084326413718
 30
0.0
 10
4.394483713768397
 20
1.481817802426921
 30
0.0
 10
4.348318750159709
 20
1.50725665969773
 30
0.0
 10
4.253195942113235
 20
1.551594823718263
 30
0.0
 10
4.204134094550433
 20
1.570462636465879
 30
0.0
 10
4.05474171332318
 20
1.620096156067872
 30
0.0
 10
3.952253829262141
 20
1.644001975493238
 30
0.0
 10
3.745621941766921
 20
1.680882015996252
 30
0.0
 10
3.641337936904131
 20
1.693694691530743
 30
0.0
 10
3.327643302200275
 20
1.720537893024972
 30
0.0
 10
3.117385367867987
 20
1.723171970613034
 30
0.0
 10
2.697775050651477
 20
1.711438304865597
 30
0.0
 10
2.488179643899656
 20
1.696828665843854
 30
0.0
 10
2.070412800059769
 20
1.656847943174368
 30
0.0
 10
1.861854981184663
 20
1.631332932157176
 30
0.0
 10
1.550379063601076
 20
1.58761430848904
 30
0.0
 10
1.446094758201001
 20
1.571955049562308
 30
0.0
 10
1.238920252178727
 20
1.539257588683386
 30
0.0
 10
1.136081045391816
 20
1.522231075816196
 30
0.0
 10
0.9803423468301811
 20
1.495180026763601
 30
0.0
 10
0.9282750487168093
 20
1.485931994521634
 30
0.0
 10
0.8248402382336631
 20
1.467220392771301
 30
0.0
 10
0.7736984146772617
 20
1.457809583447405
 30
0.0
 10
0.6716954146271474
 20
1.438679718616292
 30
0.0
 10
0.6204033723826595
 20
1.428859893423101
 30
0.0
 10
0.5161258821775115
 20
1.408450691461705
 30
0.0
 10
0.4634565274472792
 20
1.397935225974269
 30
0.0
 10
0.3602901266463693
 20
1.377034339229268
 30
0.0
 10
0.3098388905150788
 20
1.366659629624846
 30
0.0
 10
0.2096177023944261
 20
1.345682653293113
 30
0.0
 10
0.1597011831933941
 20
1.335046106928574
 30
0.0
 10
0.0808279250356609
 20
1.317856014173916
 30
0.0
 10
0.0538840953162676
 20
1.311923267420258
 30
0.0
 10
-0.0004828310680334
 20
1.299843519259669
 30
0.0
 10
-0.0278852855184357
 20
1.293701345358807
 30
0.0
 10
-0.0809598575867709
 20
1.281717199639617
 30
0.0
 10
-0.1321110000108854
 20
1.270078413789711
 30
0.0
 10
-0.1787004825407775
 20
1.25929243497312
 30
0.0
 10
-0.2019643238031721
 20
1.253851776700201
 30
0.0
  0
CIRCLE
  5
7E
330
1F
100
AcDbEntity
  8
0
  6
Continuous
 62
     7
370
    25
100
AcDbCircle
 10
3.7279482213
 20
3.5933161217
 30
0.0
 40
0.3000000000000025
  0
CIRCLE
  5
7F
330
1F
100
AcDbEntity
  8
0
  6
Continuous
 62
     7
370
    25
100
AcDbCircle
 10
1.9679482213
 20
3.5953713054
 30
0.0
 40
0.3000000000000018
  0
CIRCLE
  5
80
330
1F
100
AcDbEntity
  8
0
  6
Continuous
 62
     7
370
    25
100
AcDbCircle
 10
1.2666204776
 20
3.5961902584
 30
0.0
 40
0.2400000000000004
  0
CIRCLE
  5
81
330
1F
100
AcDbEntity
  8
0
  6
Continuous
 62
     7
370
    25
100
AcDbCircle
 10
0.7066204776
 20
3.5968441805
 30
0.0
 40
0.1799999999999994
  0
CIRCLE
  5
82
330
1F
100
AcDbEntity
  8
0
  6
Continuous
 62
     7
370
    25
100
AcDbCircle
 10
2.8479482213
 20
3.5943437135
 30
0.0
 40
0.4000000000000012
  0
CIRCLE
  5
83
330
1F
100
AcDbEntity
  8
0
  6
Continuous
 62
     7
370
    25
100
AcDbCircle
 10
0.3066204776
 20
3.5973112677
 30
0.0
 40
0.0799999999999996
  0
SPLINE
  5
84
330
1F
100
AcDbEntity
  8
0
  6
Continuous
 62
     7
370
    25
100
AcDbSpline
210
0.0
220
0.0
230
1.0
 70
     8
 71
     3
 72
    51
 73
    47
 74
     0
 42
0.00000001
 43
0.00000001
 40
0.0
 40
0.0
 40
0.0
 40
0.0
 40
0.015625
 40
0.03125
 40
0.03125
 40
0.046875
 40
0.046875
 40
0.0625
 40
0.0625
 40
0.09375
 40
0.09375
 40
0.125
 40
0.125
 40
0.15625
 40
0.15625
 40
0.1875000000000001
 40
0.1875000000000001
 40
0.2187500000000001
 40
0.2187500000000001
 40
0.25
 40
0.25
 40
0.3125
 40
0.3125
 40
0.375
 40
0.375
 40
0.5
 40
0.5
 40
0.6250000000000001
 40
0.6250000000000001
 40
0.7500000000000002
 40
0.7500000000000002
 40
0.8125
 40
0.8125
 40
0.8749999999999998
 40
0.8749999999999998
 40
0.9062499999999997
 40
0.9062499999999997
 40
0.9374999999999996
 40
0.9374999999999996
 40
0.9531249999999997
 40
0.9531249999999997
 40
0.9687499999999998
 40
0.9687499999999998
 40
0.9843749999999999
 40
0.9843749999999999
 40
1.0
 40
1.0
 40
1.0
 40
1.0
 10
-0.2722136574516066
 20
3.548551995490641
 30
0.0
 10
-0.2489670696377105
 20
3.543038083291901
 30
0.0
 10
-0.2024117939983187
 20
3.532105401481136
 30
0.0
 10
-0.1512975674316793
 20
3.520305547675012
 30
0.0
 10
-0.0982610086443
 20
3.50815427692466
 30
0.0
 10
-0.0708780379437897
 20
3.501925815979154
 30
0.0
 10
-0.0165494323990652
 20
3.489674872355711
 30
0.0
 10
0.0103755755396593
 20
3.48365728218271
 30
0.0
 10
0.0891942937305334
 20
3.46621882456521
 30
0.0
 10
0.1390770602459006
 20
3.455425094325606
 30
0.0
 10
0.2392316738338597
 20
3.434132526106065
 30
0.0
 10
0.2896499794103776
 20
3.423598946973395
 30
0.0
 10
0.3927500307482998
 20
3.402373190566152
 30
0.0
 10
0.4453860005392149
 20
3.391691869192533
 30
0.0
 10
0.5495986845722213
 20
3.370954295206591
 30
0.0
 10
0.6008595399720547
 20
3.360972949199545
 30
0.0
 10
0.7028017750362756
 20
3.341521870623006
 30
0.0
 10
0.7539137008900864
 20
3.33195001164373
 30
0.0
 10
0.8572890568092253
 20
3.312912683881192
 30
0.0
 10
0.909326965375046
 20
3.303500685938642
 30
0.0
 10
1.064979680686807
 20
3.275959195409011
 30
0.0
 10
1.167764743881462
 20
3.258608824316478
 30
0.0
 10
1.374835225315459
 20
3.225258927582069
 30
0.0
 10
1.479069686793032
 20
3.209271251597382
 30
0.0
 10
1.790406345747566
 20
3.164571698120827
 30
0.0
 10
1.998882757832392
 20
3.138399858189625
 30
0.0
 10
2.41652159006762
 20
3.097103371579831
 30
0.0
 10
2.626069936718031
 20
3.081833581146226
 30
0.0
 10
3.045641211192578
 20
3.068778204391382
 30
0.0
 10
3.255906399709103
 20
3.070749958060706
 30
0.0
 10
3.5696840339743
 20
3.096604890730937
 30
0.0
 10
3.674007881287183
 20
3.109089008898126
 30
0.0
 10
3.88075491547195
 20
3.145317977599253
 30
0.0
 10
3.983317594210651
 20
3.168900842388085
 30
0.0
 10
4.132865579465762
 20
3.218063530912692
 30
0.0
 10
4.181986617083823
 20
3.236776705616089
 30
0.0
 10
4.277248618073694
 20
3.280815013562278
 30
0.0
 10
4.323493484848679
 20
3.306108325350179
 30
0.0
 10
4.387698386251483
 20
3.35163978231796
 30
0.0
 10
4.408214641651163
 20
3.368103681016078
 30
0.0
 10
4.44627413807012
 20
3.404229079503181
 30
0.0
 10
4.463829021426561
 20
3.423911180357529
 30
0.0
 10
4.493880131732676
 20
3.46692886582694
 30
0.0
 10
4.506333843967697
 20
3.490313938188418
 30
0.0
 10
4.52338345606152
 20
3.539939821045172
 30
0.0
 10
4.527875469594158
 20
3.566108682060254
 30
0.0
 10
4.527948221298179
 20
3.592381947296698
 30
0.0
  0
SPLINE
  5
86
330
1F
100
AcDbEntity
  8
0
  6
Continuous
 62
     7
370
    25
100
AcDbSpline
210
0.0
220
0.0
230
1.0
 70
     8
 71
     3
 72
    51
 73
    47
 74
     0
 42
0.00000001
 43
0.00000001
 40
0.0
 40
0.0
 40
0.0
 40
0.0
 40
0.0156250000000002
 40
0.0156250000000002
 40
0.0312500000000005
 40
0.0312500000000005
 40
0.0468750000000007
 40
0.0468750000000007
 40
0.0625000000000009
 40
0.0625000000000009
 40
0.093750000000001
 40
0.093750000000001
 40
0.1250000000000011
 40
0.1250000000000011
 40
0.1875000000000011
 40
0.1875000000000011
 40
0.2500000000000011
 40
0.2500000000000011
 40
0.3750000000000009
 40
0.3750000000000009
 40
0.5000000000000009
 40
0.5000000000000009
 40
0.6250000000000008
 40
0.6250000000000008
 40
0.6875000000000007
 40
0.6875000000000007
 40
0.7500000000000006
 40
0.7500000000000006
 40
0.7812500000000006
 40
0.7812500000000006
 40
0.8125000000000004
 40
0.8125000000000004
 40
0.8437500000000003
 40
0.8437500000000003
 40
0.8750000000000002
 40
0.8750000000000002
 40
0.9062500000000001
 40
0.9062500000000001
 40
0.9375
 40
0.9375
 40
0.953125
 40
0.953125
 40
0.96875
 40
0.96875
 40
0.984375
 40
1.0
 40
1.0
 40
1.0
 40
1.0
 10
4.527948221298179
 20
3.592381947296699
 30
0.0
 10
4.527958230535324
 20
3.618655311352535
 30
0.0
 10
4.523548670996382
 20
3.644838192345209
 30
0.0
 10
4.506655464633011
 20
3.694517535141047
 30
0.0
 10
4.494275476979065
 20
3.717941720579866
 30
0.0
 10
4.464360021136781
 20
3.761053853390997
 30
0.0
 10
4.446867223338213
 20
3.78079115434318
 30
0.0
 10
4.408921710464455
 20
3.817036260719971
 30
0.0
 10
4.388457418003068
 20
3.83356470378099
 30
0.0
 10
4.324396258869768
 20
3.879298179794192
 30
0.0
 10
4.278231295261082
 20
3.904737037065002
 30
0.0
 10
4.183108487214607
 20
3.949075201085534
 30
0.0
 10
4.134046639651807
 20
3.967943013833152
 30
0.0
 10
3.984654258424553
 20
4.017576533435148
 30
0.0
 10
3.882166374363516
 20
4.041482352860511
 30
0.0
 10
3.675534486868293
 20
4.078362393363523
 30
0.0
 10
3.571250482005504
 20
4.091175068898015
 30
0.0
 10
3.257555847301645
 20
4.118018270392241
 30
0.0
 10
3.047297912969358
 20
4.120652347980304
 30
0.0
 10
2.62768759575285
 20
4.108918682232872
 30
0.0
 10
2.41809218900103
 20
4.094309043211129
 30
0.0
 10
2.000325345161139
 20
4.054328320541639
 30
0.0
 10
1.791767526286035
 20
4.028813309524445
 30
0.0
 10
1.480291608702448
 20
3.985094685856312
 30
0.0
 10
1.376007303302373
 20
3.969435426929583
 30
0.0
 10
1.168832797280099
 20
3.936737966050656
 30
0.0
 10
1.065993590493189
 20
3.919711453183468
 30
0.0
 10
0.9102548919315541
 20
3.892660404130873
 30
0.0
 10
0.8581875938181817
 20
3.883412371888907
 30
0.0
 10
0.7547527833350353
 20
3.864700770138575
 30
0.0
 10
0.7036109597786342
 20
3.855289960814678
 30
0.0
 10
0.6016079597285199
 20
3.836160095983564
 30
0.0
 10
0.5503159174840323
 20
3.826340270790374
 30
0.0
 10
0.4460384272788845
 20
3.805931068828976
 30
0.0
 10
0.3933690725486515
 20
3.795415603341541
 30
0.0
 10
0.2902026717477416
 20
3.774514716596542
 30
0.0
 10
0.2397514356164511
 20
3.76414000699212
 30
0.0
 10
0.1395302474957987
 20
3.743163030660387
 30
0.0
 10
0.0896137282947664
 20
3.732526484295846
 30
0.0
 10
0.0107404701370332
 20
3.715336391541188
 30
0.0
 10
-0.0162033595823601
 20
3.709403644787529
 30
0.0
 10
-0.0705702859666611
 20
3.697323896626941
 30
0.0
 10
-0.0979727404170634
 20
3.691181722726079
 30
0.0
 10
-0.1510473124853987
 20
3.679197577006888
 30
0.0
 10
-0.2021984549095135
 20
3.66755879115698
 30
0.0
 10
-0.2487879374394052
 20
3.656772812340393
 30
0.0
 10
-0.2720517787018001
 20
3.651332154067473
 30
0.0
  0
CIRCLE
  5
87
330
1F
100
AcDbEntity
  8
0
  6
Continuous
 62
     7
370
    25
100
AcDbCircle
 10
3.9475199727
 20
4.74563988
 30
0.0
 40
0.0800000000000014
  0
CIRCLE
  5
88
330
1F
100
AcDbEntity
  8
0
  6
Continuous
 62
     7
370
    25
100
AcDbCircle
 10
1.406192229
 20
4.7426723258
 30
0.0
 40
0.3999999999999981
  0
CIRCLE
  5
89
330
1F
100
AcDbEntity
  8
0
  6
Continuous
 62
     7
370
    25
100
AcDbCircle
 10
3.5475199727
 20
4.7451727928
 30
0.0
 40
0.1799999999999993
  0
CIRCLE
  5
8A
330
1F
100
AcDbEntity
  8
0
  6
Continuous
 62
     7
370
    25
100
AcDbCircle
 10
2.9875199727
 20
4.7445188707
 30
0.0
 40
0.2400000000000024
  0
CIRCLE
  5
8B
330
1F
100
AcDbEntity
  8
0
  6
Continuous
 62
     7
370
    25
100
AcDbCircle
 10
2.286192229
 20
4.7436999176
 30
0.0
 40
0.3000000000000034
  0
CIRCLE
  5
8C
330
1F
100
AcDbEntity
  8
0
  6
Continuous
 62
     7
370
    25
100
AcDbCircle
 10
0.526192229
 20
4.741644734
 30
0.0
 40
0.3000000000000028
  0
SPLINE
  5
8D
330
1F
100
AcDbEntity
  8
0
  6
Continuous
 62
     7
370
    25
100
AcDbSpline
210
0.0
220
0.0
230
1.0
 70
     8
 71
     3
 72
    51
 73
    47
 74
     0
 42
0.00000001
 43
0.00000001
 40
0.0
 40
0.0
 40
0.0
 40
0.0
 40
0.0156249999999998
 40
0.0312499999999996
 40
0.0312499999999996
 40
0.0468749999999995
 40
0.0468749999999995
 40
0.0624999999999993
 40
0.0624999999999993
 40
0.0937499999999993
 40
0.0937499999999993
 40
0.1249999999999994
 40
0.1249999999999994
 40
0.1562499999999994
 40
0.1562499999999994
 40
0.1874999999999994
 40
0.1874999999999994
 40
0.2187499999999995
 40
0.2187499999999995
 40
0.2499999999999995
 40
0.2499999999999995
 40
0.3124999999999996
 40
0.3124999999999996
 40
0.3749999999999996
 40
0.3749999999999996
 40
0.4999999999999998
 40
0.4999999999999998
 40
0.6249999999999999
 40
0.6249999999999999
 40
0.75
 40
0.75
 40
0.8125000000000001
 40
0.8125000000000001
 40
0.8750000000000002
 40
0.8750000000000002
 40
0.9062500000000003
 40
0.9062500000000003
 40
0.9375000000000003
 40
0.9375000000000003
 40
0.9531250000000003
 40
0.9531250000000003
 40
0.9687500000000002
 40
0.9687500000000002
 40
0.9843750000000002
 40
0.9843750000000002
 40
1.0
 40
1.0
 40
1.0
 40
1.0
 10
4.526192228966046
 20
4.799660766325797
 30
0.0
 10
4.50292838770365
 20
4.805101424598713
 30
0.0
 10
4.456338905173757
 20
4.8158874034153
 30
0.0
 10
4.405187762749642
 20
4.827526189265204
 30
0.0
 10
4.352113190681304
 20
4.839510334984394
 30
0.0
 10
4.3247107362309
 20
4.845652508885253
 30
0.0
 10
4.2703438098466
 20
4.85773225704584
 30
0.0
 10
4.243399980127205
 20
4.863665003799497
 30
0.0
 10
4.164526721969469
 20
4.880855096554146
 30
0.0
 10
4.114610202768435
 20
4.891491642918686
 30
0.0
 10
4.014389014647781
 20
4.912468619250414
 30
0.0
 10
3.963937778516493
 20
4.922843328854833
 30
0.0
 10
3.860771377715581
 20
4.943744215599826
 30
0.0
 10
3.80810202298535
 20
4.954259681087259
 30
0.0
 10
3.7038245327802
 20
4.974668883048648
 30
0.0
 10
3.652532490535713
 20
4.984488708241833
 30
0.0
 10
3.5505294904856
 20
5.003618573072945
 30
0.0
 10
3.4993876669292
 20
5.013029382396838
 30
0.0
 10
3.395952856446053
 20
5.031740984147163
 30
0.0
 10
3.343885558332676
 20
5.040989016389127
 30
0.0
 10
3.188146859771039
 20
5.068040065441714
 30
0.0
 10
3.085307652984128
 20
5.085066578308895
 30
0.0
 10
2.878133146961854
 20
5.117764039187804
 30
0.0
 10
2.773848841561775
 20
5.133423298114531
 30
0.0
 10
2.462372923978187
 20
5.177141921782648
 30
0.0
 10
2.253815105103079
 20
5.20265693279982
 30
0.0
 10
1.836048261263188
 20
5.242637655469291
 30
0.0
 10
1.626452854511366
 20
5.257247294491019
 30
0.0
 10
1.206842537294863
 20
5.268980960238425
 30
0.0
 10
0.9965846029625729
 20
5.266346882650351
 30
0.0
 10
0.6828899682587198
 20
5.239503681156105
 30
0.0
 10
0.5786059633959302
 20
5.22669100562161
 30
0.0
 10
0.3719740759007082
 20
5.189810965118578
 30
0.0
 10
0.2694861918396713
 20
5.165905145693207
 30
0.0
 10
0.1200938106124219
 20
5.116271626091201
 30
0.0
 10
0.0710319630496233
 20
5.097403813343584
 30
0.0
 10
-0.0240908449968515
 20
5.053065649323045
 30
0.0
 10
-0.0702558086055349
 20
5.027626792052236
 30
0.0
 10
-0.1343169677388338
 20
4.981893316039032
 30
0.0
 10
-0.1547812602002232
 20
4.965364872978008
 30
0.0
 10
-0.1927267730739743
 20
4.929119766601214
 30
0.0
 10
-0.2102195708725444
 20
4.90938246564903
 30
0.0
 10
-0.2401350267148172
 20
4.866270332837894
 30
0.0
 10
-0.2525150143687694
 20
4.84284614739907
 30
0.0
 10
-0.2694082207321289
 20
4.793166804603241
 30
0.0
 10
-0.2738177802710736
 20
4.766983923610567
 30
0.0
 10
-0.2738077710339296
 20
4.740710559554731
 30
0.0
  0
SPLINE
  5
8F
330
1F
100
AcDbEntity
  8
0
  6
Continuous
 62
     7
370
    25
100
AcDbSpline
210
0.0
220
0.0
230
1.0
 70
     8
 71
     3
 72
    51
 73
    47
 74
     0
 42
0.00000001
 43
0.00000001
 40
0.0
 40
0.0
 40
0.0
 40
0.0
 40
0.0156249999999999
 40
0.0156249999999999
 40
0.0312499999999998
 40
0.0312499999999998
 40
0.0468749999999998
 40
0.0468749999999998
 40
0.0624999999999997
 40
0.0624999999999997
 40
0.0937499999999997
 40
0.0937499999999997
 40
0.1249999999999997
 40
0.1249999999999997
 40
0.1874999999999998
 40
0.1874999999999998
 40
0.2499999999999999
 40
0.2499999999999999
 40
0.3749999999999999
 40
0.3749999999999999
 40
0.4999999999999999
 40
0.4999999999999999
 40
0.6249999999999999
 40
0.6249999999999999
 40
0.6874999999999999
 40
0.6874999999999999
 40
0.7499999999999999
 40
0.7499999999999999
 40
0.78125
 40
0.78125
 40
0.8125000000000001
 40
0.8125000000000001
 40
0.8437500000000001
 40
0.8437500000000001
 40
0.8750000000000002
 40
0.8750000000000002
 40
0.9062500000000002
 40
0.9062500000000002
 40
0.9375000000000003
 40
0.9375000000000003
 40
0.9531250000000002
 40
0.9531250000000002
 40
0.9687500000000001
 40
0.9687500000000001
 40
0.9843750000000001
 40
1.0
 40
1.0
 40
1.0
 40
1.0
 10
-0.2738077710339438
 20
4.740710559554731
 30
0.0
 10
-0.2737350193299112
 20
4.714437294318285
 30
0.0
 10
-0.2692430057972747
 20
4.688268433303202
 30
0.0
 10
-0.2521933937034437
 20
4.63864255044645
 30
0.0
 10
-0.2397396814684247
 20
4.615257478084979
 30
0.0
 10
-0.2096885711623014
 20
4.572239792615568
 30
0.0
 10
-0.1921336878058569
 20
4.552557691761222
 30
0.0
 10
-0.1540741913868962
 20
4.516432293274125
 30
0.0
 10
-0.1335579359872146
 20
4.499968394576008
 30
0.0
 10
-0.0693530345844073
 20
4.454436937608235
 30
0.0
 10
-0.0231081678094221
 20
4.429143625820339
 30
0.0
 10
0.0721538331804602
 20
4.385105317874165
 30
0.0
 10
0.1212748707985205
 20
4.366392143170773
 30
0.0
 10
0.2708228560536378
 20
4.317229454646186
 30
0.0
 10
0.3733855347923431
 20
4.293646589857361
 30
0.0
 10
0.5801325689771097
 20
4.257417621156264
 30
0.0
 10
0.6844564162899972
 20
4.244933502989088
 30
0.0
 10
0.9982340505551983
 20
4.219078570318898
 30
0.0
 10
1.208499239071722
 20
4.217106816649598
 30
0.0
 10
1.628070513546273
 20
4.23016219340449
 30
0.0
 10
1.837618860196685
 20
4.245431983838122
 30
0.0
 10
2.255257692431903
 20
4.286728470447967
 30
0.0
 10
2.463734104516729
 20
4.312900310379196
 30
0.0
 10
2.775070763471257
 20
4.357599863855785
 30
0.0
 10
2.879305224948827
 20
4.373587539840489
 30
0.0
 10
3.08637570638282
 20
4.406937436574922
 30
0.0
 10
3.189160769577469
 20
4.424287807667469
 30
0.0
 10
3.344813484889228
 20
4.451829298197117
 30
0.0
 10
3.396851393455046
 20
4.461241296139674
 30
0.0
 10
3.500226749374183
 20
4.480278623902223
 30
0.0
 10
3.551338675227992
 20
4.48985048288151
 30
0.0
 10
3.653280910292211
 20
4.50930156145806
 30
0.0
 10
3.704541765692044
 20
4.519282907465109
 30
0.0
 10
3.808754449725049
 20
4.540020481451067
 30
0.0
 10
3.86139041951596
 20
4.550701802824689
 30
0.0
 10
3.964490470853881
 20
4.571927559231946
 30
0.0
 10
4.014908776430397
 20
4.582461138364622
 30
0.0
 10
4.115063390018351
 20
4.603753706584174
 30
0.0
 10
4.164946156533719
 20
4.614547436823785
 30
0.0
 10
4.243764874724592
 20
4.631985894441295
 30
0.0
 10
4.270689882663315
 20
4.638003484614302
 30
0.0
 10
4.325018488208038
 20
4.65025442823775
 30
0.0
 10
4.352401458908547
 20
4.656482889183258
 30
0.0
 10
4.405438017695926
 20
4.668634159933615
 30
0.0
 10
4.456552244262565
 20
4.680434013739751
 30
0.0
 10
4.503107519901954
 20
4.691366695550517
 30
0.0
 10
4.52635410771585
 20
4.696880607749261
 30
0.0
  0
CIRCLE
  5
90
330
1F
100
AcDbEntity
  8
0
  6
Continuous
 62
     7
370
    25
100
AcDbCircle
 10
3.7324478297
 20
5.920460291
 30
0.0
 40
0.3000000000000056
  0
CIRCLE
  5
91
330
1F
100
AcDbEntity
  8
0
  6
Continuous
 62
     7
370
    25
100
AcDbCircle
 10
1.9724478297
 20
5.9225154747
 30
0.0
 40
0.3000000000000009
  0
CIRCLE
  5
92
330
1F
100
AcDbEntity
  8
0
  6
Continuous
 62
     7
370
    25
100
AcDbCircle
 10
1.271120086
 20
5.9233344277
 30
0.0
 40
0.2399999999999973
  0
CIRCLE
  5
93
330
1F
100
AcDbEntity
  8
0
  6
Continuous
 62
     7
370
    25
100
AcDbCircle
 10
0.711120086
 20
5.9239883498
 30
0.0
 40
0.1799999999999984
  0
CIRCLE
  5
94
330
1F
100
AcDbEntity
  8
0
  6
Continuous
 62
     7
370
    25
100
AcDbCircle
 10
2.8524478297
 20
5.9214878828
 30
0.0
 40
0.3999999999999986
  0
CIRCLE
  5
95
330
1F
100
AcDbEntity
  8
0
  6
Continuous
 62
     7
370
    25
100
AcDbCircle
 10
0.311120086
 20
5.924455437
 30
0.0
 40
0.0800000000000009
  0
SPLINE
  5
96
330
1F
100
AcDbEntity
  8
0
  6
Continuous
 62
     7
370
    25
100
AcDbSpline
210
0.0
220
0.0
230
1.0
 70
     8
 71
     3
 72
    51
 73
    47
 74
     0
 42
0.00000001
 43
0.00000001
 40
0.0
 40
0.0
 40
0.0
 40
0.0
 40
0.015625
 40
0.03125
 40
0.03125
 40
0.046875
 40
0.046875
 40
0.0625
 40
0.0625
 40
0.09375
 40
0.09375
 40
0.125
 40
0.125
 40
0.15625
 40
0.15625
 40
0.1875
 40
0.1875
 40
0.21875
 40
0.21875
 40
0.2499999999999999
 40
0.2499999999999999
 40
0.3124999999999999
 40
0.3124999999999999
 40
0.3749999999999999
 40
0.3749999999999999
 40
0.4999999999999999
 40
0.4999999999999999
 40
0.6249999999999999
 40
0.6249999999999999
 40
0.7499999999999999
 40
0.7499999999999999
 40
0.8124999999999997
 40
0.8124999999999997
 40
0.8749999999999996
 40
0.8749999999999996
 40
0.9062499999999996
 40
0.9062499999999996
 40
0.9374999999999996
 40
0.9374999999999996
 40
0.9531249999999998
 40
0.9531249999999998
 40
0.9687499999999999
 40
0.9687499999999999
 40
0.984375
 40
0.984375
 40
1.0
 40
1.0
 40
1.0
 40
1.0
 10
-0.267714049057817
 20
5.875696164788146
 30
0.0
 10
-0.2444674612439208
 20
5.870182252589406
 30
0.0
 10
-0.1979121856045287
 20
5.859249570778642
 30
0.0
 10
-0.1467979590378896
 20
5.847449716972514
 30
0.0
 10
-0.0937614002505104
 20
5.835298446222164
 30
0.0
 10
-0.0663784295499997
 20
5.829069985276657
 30
0.0
 10
-0.0120498240052756
 20
5.816819041653217
 30
0.0
 10
0.0148751839334493
 20
5.810801451480216
 30
0.0
 10
0.0936939021243227
 20
5.793362993862714
 30
0.0
 10
0.1435766686396899
 20
5.782569263623111
 30
0.0
 10
0.2437312822276491
 20
5.761276695403571
 30
0.0
 10
0.2941495878041673
 20
5.750743116270898
 30
0.0
 10
0.3972496391420894
 20
5.729517359863658
 30
0.0
 10
0.4498856089330046
 20
5.71883603849004
 30
0.0
 10
0.5540982929660109
 20
5.698098464504095
 30
0.0
 10
0.6053591483658447
 20
5.68811711849705
 30
0.0
 10
0.7073013834300652
 20
5.668666039920515
 30
0.0
 10
0.758413309283876
 20
5.659094180941237
 30
0.0
 10
0.8617886652030149
 20
5.640056853178697
 30
0.0
 10
0.9138265737688356
 20
5.630644855236149
 30
0.0
 10
1.069479289080597
 20
5.603103364706515
 30
0.0
 10
1.172264352275251
 20
5.585752993613982
 30
0.0
 10
1.379334833709249
 20
5.552403096879576
 30
0.0
 10
1.483569295186821
 20
5.536415420894887
 30
0.0
 10
1.794905954141355
 20
5.491715867418334
 30
0.0
 10
2.003382366226182
 20
5.465544027487127
 30
0.0
 10
2.421021198461408
 20
5.424247540877343
 30
0.0
 10
2.630569545111821
 20
5.408977750443731
 30
0.0
 10
3.050140819586368
 20
5.395922373688887
 30
0.0
 10
3.260406008102892
 20
5.397894127358214
 30
0.0
 10
3.574183642368089
 20
5.423749060028442
 30
0.0
 10
3.678507489680973
 20
5.43623317819563
 30
0.0
 10
3.885254523865738
 20
5.472462146896757
 30
0.0
 10
3.98781720260444
 20
5.496045011685591
 30
0.0
 10
4.137365187859549
 20
5.545207700210196
 30
0.0
 10
4.186486225477611
 20
5.563920874913597
 30
0.0
 10
4.281748226467485
 20
5.607959182859783
 30
0.0
 10
4.327993093242465
 20
5.633252494647685
 30
0.0
 10
4.392197994645271
 20
5.678783951615464
 30
0.0
 10
4.412714250044951
 20
5.695247850313583
 30
0.0
 10
4.450773746463907
 20
5.731373248800689
 30
0.0
 10
4.468328629820351
 20
5.751055349655034
 30
0.0
 10
4.498379740126466
 20
5.794073035124449
 30
0.0
 10
4.510833452361478
 20
5.817458107485917
 30
0.0
 10
4.527883064455311
 20
5.867083990342679
 30
0.0
 10
4.532375077987948
 20
5.893252851357756
 30
0.0
 10
4.532447829691969
 20
5.919526116594204
 30
0.0
  0
SPLINE
  5
98
330
1F
100
AcDbEntity
  8
0
  6
Continuous
 62
     7
370
    25
100
AcDbSpline
210
0.0
220
0.0
230
1.0
 70
     8
 71
     3
 72
    51
 73
    47
 74
     0
 42
0.00000001
 43
0.00000001
 40
0.0
 40
0.0
 40
0.0
 40
0.0
 40
0.0156250000000001
 40
0.0156250000000001
 40
0.0312500000000002
 40
0.0312500000000002
 40
0.0468750000000003
 40
0.0468750000000003
 40
0.0625000000000003
 40
0.0625000000000003
 40
0.0937500000000004
 40
0.0937500000000004
 40
0.1250000000000007
 40
0.1250000000000007
 40
0.1875000000000007
 40
0.1875000000000007
 40
0.2500000000000009
 40
0.2500000000000009
 40
0.3750000000000007
 40
0.3750000000000007
 40
0.5000000000000004
 40
0.5000000000000004
 40
0.6250000000000004
 40
0.6250000000000004
 40
0.6875000000000004
 40
0.6875000000000004
 40
0.7500000000000004
 40
0.7500000000000004
 40
0.7812500000000004
 40
0.7812500000000004
 40
0.8125000000000004
 40
0.8125000000000004
 40
0.8437500000000003
 40
0.8437500000000003
 40
0.8750000000000003
 40
0.8750000000000003
 40
0.9062500000000002
 40
0.9062500000000002
 40
0.9375000000000002
 40
0.9375000000000002
 40
0.9531250000000002
 40
0.9531250000000002
 40
0.9687500000000001
 40
0.9687500000000001
 40
0.9843750000000001
 40
1.0
 40
1.0
 40
1.0
 40
1.0
 10
4.532447829691968
 20
5.919526116594204
 30
0.0
 10
4.532457838929113
 20
5.945799480650039
 30
0.0
 10
4.528048279390165
 20
5.971982361642713
 30
0.0
 10
4.511155073026802
 20
6.021661704438549
 30
0.0
 10
4.498775085372855
 20
6.045085889877367
 30
0.0
 10
4.468859629530571
 20
6.088198022688502
 30
0.0
 10
4.451366831732
 20
6.107935323640686
 30
0.0
 10
4.413421318858248
 20
6.144180430017477
 30
0.0
 10
4.392957026396858
 20
6.160708873078496
 30
0.0
 10
4.328895867263557
 20
6.206442349091693
 30
0.0
 10
4.282730903654872
 20
6.231881206362504
 30
0.0
 10
4.187608095608397
 20
6.276219370383042
 30
0.0
 10
4.138546248045595
 20
6.295087183130657
 30
0.0
 10
3.989153866818339
 20
6.344720702732648
 30
0.0
 10
3.886665982757304
 20
6.368626522158018
 30
0.0
 10
3.680034095262082
 20
6.405506562661027
 30
0.0
 10
3.575750090399291
 20
6.418319238195521
 30
0.0
 10
3.262055455695436
 20
6.445162439689756
 30
0.0
 10
3.051797521363147
 20
6.447796517277816
 30
0.0
 10
2.632187204146637
 20
6.43606285153037
 30
0.0
 10
2.422591797394818
 20
6.421453212508633
 30
0.0
 10
2.004824953554927
 20
6.381472489839142
 30
0.0
 10
1.796267134679822
 20
6.355957478821955
 30
0.0
 10
1.484791217096237
 20
6.312238855153815
 30
0.0
 10
1.380506911696162
 20
6.29657959622709
 30
0.0
 10
1.173332405673886
 20
6.26388213534816
 30
0.0
 10
1.070493198886977
 20
6.246855622480973
 30
0.0
 10
0.9147545003253423
 20
6.219804573428377
 30
0.0
 10
0.8626872022119706
 20
6.210556541186412
 30
0.0
 10
0.7592523917288235
 20
6.191844939436077
 30
0.0
 10
0.7081105681724222
 20
6.182434130112181
 30
0.0
 10
0.606107568122308
 20
6.163304265281067
 30
0.0
 10
0.5548155258778202
 20
6.153484440087879
 30
0.0
 10
0.4505380356726728
 20
6.133075238126481
 30
0.0
 10
0.3978686809424398
 20
6.122559772639047
 30
0.0
 10
0.2947022801415303
 20
6.101658885894048
 30
0.0
 10
0.2442510440102394
 20
6.091284176289625
 30
0.0
 10
0.144029855889587
 20
6.07030719995789
 30
0.0
 10
0.0941133366885546
 20
6.05967065359335
 30
0.0
 10
0.0152400785308215
 20
6.042480560838692
 30
0.0
 10
-0.0117037511885718
 20
6.036547814085035
 30
0.0
 10
-0.0660706775728732
 20
6.024468065924445
 30
0.0
 10
-0.0934731320232751
 20
6.018325892023582
 30
0.0
 10
-0.1465477040916104
 20
6.006341746304393
 30
0.0
 10
-0.1976988465157256
 20
5.994702960454486
 30
0.0
 10
-0.2442883290456169
 20
5.983916981637895
 30
0.0
 10
-0.2675521703080125
 20
5.978476323364978
 30
0.0
  0
CIRCLE
  5
99
330
1F
100
AcDbEntity
  8
0
  6
Continuous
 62
     7
370
    25
100
AcDbCircle
 10
3.9067463586
 20
7.0843143095
 30
0.0
 40
0.0800000000000005
  0
CIRCLE
  5
9A
330
1F
100
AcDbEntity
  8
0
  6
Continuous
 62
     7
370
    25
100
AcDbCircle
 10
1.3654186149
 20
7.0813467553
 30
0.0
 40
0.3999999999999966
  0
CIRCLE
  5
9B
330
1F
100
AcDbEntity
  8
0
  6
Continuous
 62
     7
370
    25
100
AcDbCircle
 10
3.5067463586
 20
7.0838472223
 30
0.0
 40
0.1799999999999979
  0
CIRCLE
  5
9C
330
1F
100
AcDbEntity
  8
0
  6
Continuous
 62
     7
370
    25
100
AcDbCircle
 10
2.9467463586
 20
7.0831933002
 30
0.0
 40
0.240000000000002
  0
CIRCLE
  5
9D
330
1F
100
AcDbEntity
  8
0
  6
Continuous
 62
     7
370
    25
100
AcDbCircle
 10
2.2454186149
 20
7.0823743472
 30
0.0
 40
0.2999999999999976
  0
CIRCLE
  5
9E
330
1F
100
AcDbEntity
  8
0
  6
Continuous
 62
     7
370
    25
100
AcDbCircle
 10
0.4854186149
 20
7.0803191635
 30
0.0
 40
0.3000000000000012
  0
SPLINE
  5
9F
330
1F
100
AcDbEntity
  8
0
  6
Continuous
 62
     7
370
    25
100
AcDbSpline
210
0.0
220
0.0
230
1.0
 70
     8
 71
     3
 72
    51
 73
    47
 74
     0
 42
0.00000001
 43
0.00000001
 40
0.0
 40
0.0
 40
0.0
 40
0.0
 40
0.0156249999999998
 40
0.0312499999999996
 40
0.0312499999999996
 40
0.0468749999999994
 40
0.0468749999999994
 40
0.0624999999999992
 40
0.0624999999999992
 40
0.093749999999999
 40
0.093749999999999
 40
0.1249999999999988
 40
0.1249999999999988
 40
0.1562499999999985
 40
0.1562499999999985
 40
0.1874999999999983
 40
0.1874999999999983
 40
0.2187499999999981
 40
0.2187499999999981
 40
0.2499999999999978
 40
0.2499999999999978
 40
0.3124999999999979
 40
0.3124999999999979
 40
0.374999999999998
 40
0.374999999999998
 40
0.4999999999999983
 40
0.4999999999999983
 40
0.6249999999999988
 40
0.6249999999999988
 40
0.7499999999999991
 40
0.7499999999999991
 40
0.8124999999999993
 40
0.8124999999999993
 40
0.8749999999999996
 40
0.8749999999999996
 40
0.9062499999999998
 40
0.9062499999999998
 40
0.9374999999999999
 40
0.9374999999999999
 40
0.9531249999999999
 40
0.9531249999999999
 40
0.96875
 40
0.96875
 40
0.984375
 40
0.984375
 40
1.0
 40
1.0
 40
1.0
 40
1.0
 10
4.485418614891572
 20
7.138335195858001
 30
0.0
 10
4.462154773629172
 20
7.143775854130907
 30
0.0
 10
4.415565291099274
 20
7.15456183294748
 30
0.0
 10
4.364414148675156
 20
7.166200618797366
 30
0.0
 10
4.311339576606812
 20
7.178184764516534
 30
0.0
 10
4.283937122156409
 20
7.184326938417386
 30
0.0
 10
4.229570195772101
 20
7.19640668657795
 30
0.0
 10
4.202626366052706
 20
7.202339433331597
 30
0.0
 10
4.123753107894963
 20
7.219529526086217
 30
0.0
 10
4.073836588693929
 20
7.23016607245074
 30
0.0
 10
3.973615400573264
 20
7.251143048782427
 30
0.0
 10
3.92316416444197
 20
7.261517758386828
 30
0.0
 10
3.819997763641053
 20
7.282418645131786
 30
0.0
 10
3.767328408910815
 20
7.292934110619203
 30
0.0
 10
3.663050918705659
 20
7.313343312580551
 30
0.0
 10
3.611758876461169
 20
7.323163137773722
 30
0.0
 10
3.509755876411046
 20
7.342293002604795
 30
0.0
 10
3.45861405285464
 20
7.351703811928669
 30
0.0
 10
3.355179242371485
 20
7.37041541367896
 30
0.0
 10
3.303111944258109
 20
7.379663445920906
 30
0.0
 10
3.147373245696463
 20
7.406714494973432
 30
0.0
 10
3.044534038909544
 20
7.423741007840576
 30
0.0
 10
2.837359532887254
 20
7.456438468719422
 30
0.0
 10
2.733075227487172
 20
7.472097727646104
 30
0.0
 10
2.42159930990357
 20
7.515816351314116
 30
0.0
 10
2.213041491028454
 20
7.541331362331214
 30
0.0
 10
1.795274647188548
 20
7.581312085000529
 30
0.0
 10
1.58567924043672
 20
7.595921724022184
 30
0.0
 10
1.166068923220212
 20
7.607655389769436
 30
0.0
 10
0.9558109888879233
 20
7.60502131218129
 30
0.0
 10
0.6421163541840784
 20
7.578178110686933
 30
0.0
 10
0.537832349321293
 20
7.565365435152397
 30
0.0
 10
0.331200461826086
 20
7.5284853946493
 30
0.0
 10
0.2287125777650577
 20
7.504579575223888
 30
0.0
 10
0.0793201965378267
 20
7.454946055621836
 30
0.0
 10
0.0302583489750343
 20
7.436078242874196
 30
0.0
 10
-0.0648644590714238
 20
7.39174007885362
 30
0.0
 10
-0.1110294226800982
 20
7.366301221582798
 30
0.0
 10
-0.1750905818133818
 20
7.320567745569573
 30
0.0
 10
-0.195554874274765
 20
7.304039302508539
 30
0.0
 10
-0.2335003871485029
 20
7.267794196131737
 30
0.0
 10
-0.2509931849470671
 20
7.248056895179543
 30
0.0
 10
-0.2809086407893246
 20
7.204944762368405
 30
0.0
 10
-0.2932886284432681
 20
7.181520576929566
 30
0.0
 10
-0.3101818348066107
 20
7.131841234133736
 30
0.0
 10
-0.3145913943455436
 20
7.105658353141053
 30
0.0
 10
-0.3145813851083909
 20
7.079384989085219
 30
0.0
  0
SPLINE
  5
A1
330
1F
100
AcDbEntity
  8
0
  6
Continuous
 62
     7
370
    25
100
AcDbSpline
210
0.0
220
0.0
230
1.0
 70
     8
 71
     3
 72
    51
 73
    47
 74
     0
 42
0.00000001
 43
0.00000001
 40
0.0
 40
0.0
 40
0.0
 40
0.0
 40
0.015625
 40
0.015625
 40
0.03125
 40
0.03125
 40
0.046875
 40
0.046875
 40
0.0625
 40
0.0625
 40
0.0937500000000001
 40
0.0937500000000001
 40
0.1250000000000001
 40
0.1250000000000001
 40
0.1875000000000001
 40
0.1875000000000001
 40
0.2500000000000001
 40
0.2500000000000001
 40
0.3750000000000001
 40
0.3750000000000001
 40
0.5
 40
0.5
 40
0.6250000000000001
 40
0.6250000000000001
 40
0.6875000000000001
 40
0.6875000000000001
 40
0.7500000000000002
 40
0.7500000000000002
 40
0.7812500000000002
 40
0.7812500000000002
 40
0.8125000000000002
 40
0.8125000000000002
 40
0.8437500000000003
 40
0.8437500000000003
 40
0.8750000000000003
 40
0.8750000000000003
 40
0.9062500000000003
 40
0.9062500000000003
 40
0.9375000000000003
 40
0.9375000000000003
 40
0.9531250000000003
 40
0.9531250000000003
 40
0.9687500000000002
 40
0.9687500000000002
 40
0.9843750000000001
 40
1.0
 40
1.0
 40
1.0
 40
1.0
 10
-0.3145813851084051
 20
7.079384989085217
 30
0.0
 10
-0.3145086334043687
 20
7.053111723848773
 30
0.0
 10
-0.3100166198717246
 20
7.026942862833686
 30
0.0
 10
-0.2929670077778841
 20
6.977316979976947
 30
0.0
 10
-0.2805132955428606
 20
6.953931907615473
 30
0.0
 10
-0.250462185236729
 20
6.910914222146062
 30
0.0
 10
-0.2329073018802811
 20
6.891232121291726
 30
0.0
 10
-0.194847805461313
 20
6.855106722804634
 30
0.0
 10
-0.1743315500616287
 20
6.838642824106524
 30
0.0
 10
-0.1101266486588134
 20
6.793111367138777
 30
0.0
 10
-0.0638817818838219
 20
6.767818055350887
 30
0.0
 10
0.031380219106069
 20
6.723779747404741
 30
0.0
 10
0.0805012567241331
 20
6.705066572701349
 30
0.0
 10
0.2300492419792605
 20
6.655903884176785
 30
0.0
 10
0.3326119207179703
 20
6.632321019387982
 30
0.0
 10
0.5393589549027424
 20
6.596092050686917
 30
0.0
 10
0.6436828022156325
 20
6.583607932519763
 30
0.0
 10
0.957460436480837
 20
6.557752999849632
 30
0.0
 10
1.167725624997361
 20
6.555781246180378
 30
0.0
 10
1.587296899471908
 20
6.568836622935345
 30
0.0
 10
1.79684524612232
 20
6.584106413369015
 30
0.0
 10
2.214484078357528
 20
6.625402899978952
 30
0.0
 10
2.42296049044235
 20
6.65157473991021
 30
0.0
 10
2.734297149396869
 20
6.696274293386866
 30
0.0
 10
2.838531610874439
 20
6.71226196937159
 30
0.0
 10
3.045602092308423
 20
6.745611866106059
 30
0.0
 10
3.148387155503071
 20
6.762962237198629
 30
0.0
 10
3.304039870814822
 20
6.790503727728309
 30
0.0
 10
3.35607777938064
 20
6.799915725670876
 30
0.0
 10
3.459453135299773
 20
6.818953053433442
 30
0.0
 10
3.510565061153581
 20
6.82852491241274
 30
0.0
 10
3.612507296217796
 20
6.847975990989305
 30
0.0
 10
3.663768151617625
 20
6.857957336996365
 30
0.0
 10
3.767980835650628
 20
6.878694910982346
 30
0.0
 10
3.820616805441539
 20
6.88937623235598
 30
0.0
 10
3.923716856779453
 20
6.910601988763259
 30
0.0
 10
3.97413516235597
 20
6.921135567895941
 30
0.0
 10
4.07428977594392
 20
6.942428136115515
 30
0.0
 10
4.124172542459286
 20
6.953221866355137
 30
0.0
 10
4.202991260650155
 20
6.970660323972658
 30
0.0
 10
4.229916268588877
 20
6.976677914145666
 30
0.0
 10
4.284244874133596
 20
6.988928857769126
 30
0.0
 10
4.311627844834104
 20
6.995157318714639
 30
0.0
 10
4.364664403621479
 20
7.007308589465006
 30
0.0
 10
4.415778630188116
 20
7.019108443271151
 30
0.0
 10
4.462333905827504
 20
7.030041125081925
 30
0.0
 10
4.4855804936414
 20
7.035555037280671
 30
0.0
  0
CIRCLE
  5
A2
330
1F
100
AcDbEntity
  8
0
  6
Continuous
 62
     7
370
    25
100
AcDbCircle
 10
3.6916742156
 20
8.2591347205
 30
0.0
 40
0.2999999999999994
  0
CIRCLE
  5
A3
330
1F
100
AcDbEntity
  8
0
  6
Continuous
 62
     7
370
    25
100
AcDbCircle
 10
1.9316742156
 20
8.2611899042
 30
0.0
 40
0.3000000000000009
  0
CIRCLE
  5
A4
330
1F
100
AcDbEntity
  8
0
  6
Continuous
 62
     7
370
    25
100
AcDbCircle
 10
1.2303464719
 20
8.2620088572
 30
0.0
 40
0.2400000000000002
  0
CIRCLE
  5
A5
330
1F
100
AcDbEntity
  8
0
  6
Continuous
 62
     7
370
    25
100
AcDbCircle
 10
0.6703464719
 20
8.2626627793
 30
0.0
 40
0.1799999999999998
  0
CIRCLE
  5
A6
330
1F
100
AcDbEntity
  8
0
  6
Continuous
 62
     7
370
    25
100
AcDbCircle
 10
2.8116742156
 20
8.2601623124
 30
0.0
 40
0.400000000000003
  0
CIRCLE
  5
A7
330
1F
100
AcDbEntity
  8
0
  6
Continuous
 62
     7
370
    25
100
AcDbCircle
 10
0.2703464719
 20
8.2631298665
 30
0.0
 40
0.0799999999999997
  0
SPLINE
  5
A8
330
1F
100
AcDbEntity
  8
0
  6
Continuous
 62
     7
370
    25
100
AcDbSpline
210
0.0
220
0.0
230
1.0
 70
     8
 71
     3
 72
    51
 73
    47
 74
     0
 42
0.00000001
 43
0.00000001
 40
0.0
 40
0.0
 40
0.0
 40
0.0
 40
0.015625
 40
0.03125
 40
0.03125
 40
0.046875
 40
0.046875
 40
0.0625
 40
0.0625
 40
0.09375
 40
0.09375
 40
0.125
 40
0.125
 40
0.15625
 40
0.15625
 40
0.1874999999999999
 40
0.1874999999999999
 40
0.2187499999999999
 40
0.2187499999999999
 40
0.25
 40
0.25
 40
0.3125000000000002
 40
0.3125000000000002
 40
0.3750000000000002
 40
0.3750000000000002
 40
0.5000000000000003
 40
0.5000000000000003
 40
0.6250000000000003
 40
0.6250000000000003
 40
0.7500000000000002
 40
0.7500000000000002
 40
0.8125
 40
0.8125
 40
0.8749999999999998
 40
0.8749999999999998
 40
0.9062499999999997
 40
0.9062499999999997
 40
0.9374999999999996
 40
0.9374999999999996
 40
0.9531249999999997
 40
0.9531249999999997
 40
0.9687499999999998
 40
0.9687499999999998
 40
0.9843749999999999
 40
0.9843749999999999
 40
1.0
 40
1.0
 40
1.0
 40
1.0
 10
-0.3084876631322793
 20
8.214370594318634
 30
0.0
 10
-0.2852410753183831
 20
8.208856682119894
 30
0.0
 10
-0.2386857996789914
 20
8.197924000309133
 30
0.0
 10
-0.187571573112352
 20
8.186124146503007
 30
0.0
 10
-0.1345350143249727
 20
8.173972875752648
 30
0.0
 10
-0.1071520436244623
 20
8.167744414807146
 30
0.0
 10
-0.0528234380797379
 20
8.155493471183705
 30
0.0
 10
-0.025898430141013
 20
8.149475881010705
 30
0.0
 10
0.0529202880498608
 20
8.132037423393204
 30
0.0
 10
0.1028030545652276
 20
8.121243693153598
 30
0.0
 10
0.2029576681531871
 20
8.099951124934059
 30
0.0
 10
0.253375973729705
 20
8.089417545801389
 30
0.0
 10
0.3564760250676272
 20
8.068191789394149
 30
0.0
 10
0.4091119948585423
 20
8.05751046802053
 30
0.0
 10
0.5133246788915486
 20
8.036772894034584
 30
0.0
 10
0.5645855342913824
 20
8.026791548027546
 30
0.0
 10
0.6665277693556025
 20
8.007340469451005
 30
0.0
 10
0.7176396952094137
 20
7.997768610471727
 30
0.0
 10
0.8210150511285534
 20
7.978731282709186
 30
0.0
 10
0.8730529596943729
 20
7.969319284766637
 30
0.0
 10
1.028705675006135
 20
7.941777794237007
 30
0.0
 10
1.131490738200789
 20
7.924427423144473
 30
0.0
 10
1.338561219634788
 20
7.891077526410063
 30
0.0
 10
1.442795681112359
 20
7.875089850425375
 30
0.0
 10
1.754132340066892
 20
7.830390296948821
 30
0.0
 10
1.962608752151718
 20
7.804218457017615
 30
0.0
 10
2.380247584386946
 20
7.762921970407834
 30
0.0
 10
2.589795931037358
 20
7.747652179974224
 30
0.0
 10
3.009367205511906
 20
7.734596803219373
 30
0.0
 10
3.219632394028431
 20
7.736568556888704
 30
0.0
 10
3.533410028293627
 20
7.762423489558934
 30
0.0
 10
3.637733875606512
 20
7.774907607726127
 30
0.0
 10
3.844480909791277
 20
7.811136576427247
 30
0.0
 10
3.94704358852998
 20
7.834719441216084
 30
0.0
 10
4.096591573785092
 20
7.883882129740688
 30
0.0
 10
4.145712611403147
 20
7.90259530444409
 30
0.0
 10
4.240974612393026
 20
7.94663361239027
 30
0.0
 10
4.287219479168009
 20
7.971926924178173
 30
0.0
 10
4.351424380570807
 20
8.017458381145955
 30
0.0
 10
4.371940635970493
 20
8.033922279844079
 30
0.0
 10
4.410000132389446
 20
8.070047678331177
 30
0.0
 10
4.427555015745887
 20
8.089729779185522
 30
0.0
 10
4.457606126052005
 20
8.132747464654939
 30
0.0
 10
4.470059838287022
 20
8.156132537016418
 30
0.0
 10
4.487109450380847
 20
8.205758419873167
 30
0.0
 10
4.491601463913486
 20
8.231927280888247
 30
0.0
 10
4.491674215617508
 20
8.25820054612469
 30
0.0
  0
SPLINE
  5
AA
330
1F
100
AcDbEntity
  8
0
  6
Continuous
 62
     7
370
    25
100
AcDbSpline
210
0.0
220
0.0
230
1.0
 70
     8
 71
     3
 72
    51
 73
    47
 74
     0
 42
0.00000001
 43
0.00000001
 40
0.0
 40
0.0
 40
0.0
 40
0.0
 40
0.0156250000000002
 40
0.0156250000000002
 40
0.0312500000000004
 40
0.0312500000000004
 40
0.0468750000000007
 40
0.0468750000000007
 40
0.0625000000000009
 40
0.0625000000000009
 40
0.093750000000001
 40
0.093750000000001
 40
0.1250000000000011
 40
0.1250000000000011
 40
0.1875000000000009
 40
0.1875000000000009
 40
0.2500000000000008
 40
0.2500000000000008
 40
0.3750000000000008
 40
0.3750000000000008
 40
0.5000000000000008
 40
0.5000000000000008
 40
0.625000000000001
 40
0.625000000000001
 40
0.687500000000001
 40
0.687500000000001
 40
0.750000000000001
 40
0.750000000000001
 40
0.781250000000001
 40
0.781250000000001
 40
0.8125000000000009
 40
0.8125000000000009
 40
0.8437500000000008
 40
0.8437500000000008
 40
0.8750000000000007
 40
0.8750000000000007
 40
0.9062500000000006
 40
0.9062500000000006
 40
0.9375000000000004
 40
0.9375000000000004
 40
0.9531250000000003
 40
0.9531250000000003
 40
0.9687500000000002
 40
0.9687500000000002
 40
0.9843750000000001
 40
1.0
 40
1.0
 40
1.0
 40
1.0
 10
4.491674215617509
 20
8.258200546124693
 30
0.0
 10
4.491684224854646
 20
8.28447391018053
 30
0.0
 10
4.487274665315709
 20
8.310656791173198
 30
0.0
 10
4.470381458952337
 20
8.360336133969046
 30
0.0
 10
4.458001471298393
 20
8.383760319407859
 30
0.0
 10
4.428086015456111
 20
8.426872452218987
 30
0.0
 10
4.41059321765754
 20
8.44660975317118
 30
0.0
 10
4.372647704783789
 20
8.482854859547958
 30
0.0
 10
4.352183412322396
 20
8.499383302608985
 30
0.0
 10
4.288122253189097
 20
8.545116778622184
 30
0.0
 10
4.241957289580408
 20
8.570555635892994
 30
0.0
 10
4.146834481533936
 20
8.614893799913528
 30
0.0
 10
4.097772633971135
 20
8.633761612661143
 30
0.0
 10
3.94838025274388
 20
8.683395132263136
 30
0.0
 10
3.845892368682845
 20
8.7073009516885
 30
0.0
 10
3.639260481187619
 20
8.744180992191522
 30
0.0
 10
3.534976476324831
 20
8.756993667726011
 30
0.0
 10
3.221281841620975
 20
8.783836869220242
 30
0.0
 10
3.011023907288684
 20
8.786470946808304
 30
0.0
 10
2.591413590072178
 20
8.774737281060856
 30
0.0
 10
2.381818183320356
 20
8.760127642039123
 30
0.0
 10
1.964051339480466
 20
8.720146919369633
 30
0.0
 10
1.755493520605363
 20
8.69463190835244
 30
0.0
 10
1.444017603021775
 20
8.650913284684309
 30
0.0
 10
1.339733297621701
 20
8.635254025757579
 30
0.0
 10
1.132558791599426
 20
8.602556564878649
 30
0.0
 10
1.029719584812516
 20
8.585530052011462
 30
0.0
 10
0.8739808862508812
 20
8.558479002958867
 30
0.0
 10
0.821913588137509
 20
8.549230970716899
 30
0.0
 10
0.7184787776543624
 20
8.53051936896657
 30
0.0
 10
0.6673369540979613
 20
8.521108559642675
 30
0.0
 10
0.5653339540478471
 20
8.501978694811553
 30
0.0
 10
0.5140419118033597
 20
8.492158869618367
 30
0.0
 10
0.4097644215982115
 20
8.471749667656974
 30
0.0
 10
0.3570950668679789
 20
8.461234202169535
 30
0.0
 10
0.253928666067069
 20
8.440333315424535
 30
0.0
 10
0.2034774299357785
 20
8.429958605820111
 30
0.0
 10
0.1032562418151261
 20
8.408981629488377
 30
0.0
 10
0.0533397226140937
 20
8.398345083123838
 30
0.0
 10
-0.0255335355436394
 20
8.381154990369183
 30
0.0
 10
-0.0524773652630324
 20
8.375222243615523
 30
0.0
 10
-0.1068442916473341
 20
8.363142495454936
 30
0.0
 10
-0.1342467460977357
 20
8.35700032155407
 30
0.0
 10
-0.1873213181660716
 20
8.34501617583488
 30
0.0
 10
-0.2384724605901858
 20
8.333377389984971
 30
0.0
 10
-0.2850619431200779
 20
8.322591411168387
 30
0.0
 10
-0.3083257843824724
 20
8.317150752895468
 30
0.0
  0
LINE
  5
AB
330
1F
100
AcDbEntity
  8
0
  6
Continuous
 62
     7
370
    25
100
AcDbLine
 10
4.5919419542
 20
-0.0277439389
 30
0.0
 11
4.5917800755
 21
0.0750362197
 31
0.0
  0
LINE
  5
AC
330
1F
100
AcDbEntity
  8
0
  6
Continuous
 62
     7
370
    25
100
AcDbLine
 10
4.5218544993
 20
2.3697364385
 30
0.0
 11
4.5216926206
 21
2.472516597
 31
0.0
  0
LINE
  5
AD
330
1F
100
AcDbEntity
  8
0
  6
Continuous
 62
     7
370
    25
100
AcDbLine
 10
-0.2019643238
 20
1.2538517767
 30
0.0
 11
-0.2021262026
 21
1.1510716181
 31
0.0
  0
LINE
  5
AE
330
1F
100
AcDbEntity
  8
0
  6
Continuous
 62
     7
370
    25
100
AcDbLine
 10
-0.2720517787
 20
3.6513321541
 30
0.0
 11
-0.2722136575
 21
3.5485519955
 31
0.0
  0
LINE
  5
AF
330
1F
100
AcDbEntity
  8
0
  6
Continuous
 62
     7
370
    25
100
AcDbLine
 10
4.5263541077
 20
4.6968806077
 30
0.0
 11
4.526192229
 21
4.7996607663
 31
0.0
  0
LINE
  5
B0
330
1F
100
AcDbEntity
  8
0
  6
Continuous
 62
     7
370
    25
100
AcDbLine
 10
-0.2675521703
 20
5.9784763234
 30
0.0
 11
-0.2677140491
 21
5.8756961648
 31
0.0
  0
LINE
  5
B1
330
1F
100
AcDbEntity
  8
0
  6
Continuous
 62
     7
370
    25
100
AcDbLine
 10
4.4855804936
 20
7.0355550373
 30
0.0
 11
4.4854186149
 21
7.1383351959
 31
0.0
  0
LINE
  5
B2
330
1F
100
AcDbEntity
  8
0
  6
Continuous
 62
     7
370
    25
100
AcDbLine
 10
-0.3083257844
 20
8.3171507529
 30
0.0
 11
-0.3084876631
 21
8.2143705943
 31
0.0
  0
ENDSEC
  0
SECTION
  2
OBJECTS
  0
DICTIONARY
  5
C
330
0
100
AcDbDictionary
281
     1
  3
ACAD_GROUP
350
D
  3
ACAD_LAYOUT
350
1A
  3
ACAD_MLINESTYLE
350
17
  3
ACAD_PLOTSETTINGS
350
19
  3
ACAD_PLOTSTYLENAME
350
E
  3
ACAD_SCALELIST
350
47
  3
DWGPROPS
350
B3
  0
DICTIONARY
  5
D
102
{ACAD_REACTORS
330
C
102
}
330
C
100
AcDbDictionary
281
     1
  0
DICTIONARY
  5
1A
102
{ACAD_REACTORS
330
C
102
}
330
C
100
AcDbDictionary
281
     1
  3
Layout1
350
1E
  3
Layout2
350
26
  3
Model
350
22
  0
DICTIONARY
  5
17
102
{ACAD_REACTORS
330
C
102
}
330
C
100
AcDbDictionary
281
     1
  3
Standard
350
18
  0
DICTIONARY
  5
19
102
{ACAD_REACTORS
330
C
102
}
330
C
100
AcDbDictionary
281
     1
  0
ACDBDICTIONARYWDFLT
  5
E
102
{ACAD_REACTORS
330
C
102
}
330
C
100
AcDbDictionary
281
     1
  3
Normal
350
F
100
AcDbDictionaryWithDefault
340
F
  0
DICTIONARY
  5
47
102
{ACAD_REACTORS
330
C
102
}
330
C
100
AcDbDictionary
281
     1
  3
A0
350
48
  3
A1
350
49
  3
A2
350
4A
  3
A3
350
4B
  3
A4
350
4C
  3
A5
350
4D
  3
A6
350
4E
  3
A7
350
4F
  3
A8
350
50
  3
A9
350
51
  3
B0
350
52
  3
B1
350
53
  3
B2
350
54
  3
B3
350
55
  3
B4
350
56
  3
B5
350
57
  3
B6
350
58
  0
XRECORD
  5
B3
102
{ACAD_REACTORS
330
C
102
}
330
C
100
AcDbXrecord
280
     1
  1
DWGPROPS COOKIE
  2

  3

  4

  6

  7

  8
subha
  9

300
=
301
=
302
=
303
=
304
=
305
=
306
=
307
=
308
=
309
=
 40
0.0
 41
2460255.392525961
 42
2460255.392583438
  1

 90
        0
  0
LAYOUT
  5
1E
102
{ACAD_REACTORS
330
1A
102
}
330
1A
100
AcDbPlotSettings
  1

  2
none_device
  4

  6

 40
0.0
 41
0.0
 42
0.0
 43
0.0
 44
0.0
 45
0.0
 46
0.0
 47
0.0
 48
0.0
 49
0.0
140
0.0
141
0.0
142
1.0
143
1.0
 70
   688
 72
     1
 73
     0
 74
     5
  7

 75
    16
147
1.0
148
0.0
149
0.0
100
AcDbLayout
  1
Layout1
 70
     1
 71
     1
 10
0.0
 20
0.0
 11
420.0
 21
297.0
 12
0.0
 22
0.0
 32
0.0
 14
1.0000000000E+20
 24
1.0000000000E+20
 34
1.0000000000E+20
 15
-1.0000000000E+20
 25
-1.0000000000E+20
 35
-1.0000000000E+20
146
0.0
 13
0.0
 23
0.0
 33
0.0
 16
1.0
 26
0.0
 36
0.0
 17
0.0
 27
1.0
 37
0.0
 76
     0
330
1B
  0
LAYOUT
  5
26
102
{ACAD_REACTORS
330
1A
102
}
330
1A
100
AcDbPlotSettings
  1

  2
none_device
  4

  6

 40
0.0
 41
0.0
 42
0.0
 43
0.0
 44
0.0
 45
0.0
 46
0.0
 47
0.0
 48
0.0
 49
0.0
140
0.0
141
0.0
142
1.0
143
1.0
 70
   688
 72
     1
 73
     0
 74
     5
  7

 75
    16
147
1.0
148
0.0
149
0.0
100
AcDbLayout
  1
Layout2
 70
     1
 71
     2
 10
0.0
 20
0.0
 11
0.0
 21
0.0
 12
0.0
 22
0.0
 32
0.0
 14
0.0
 24
0.0
 34
0.0
 15
0.0
 25
0.0
 35
0.0
146
0.0
 13
0.0
 23
0.0
 33
0.0
 16
1.0
 26
0.0
 36
0.0
 17
0.0
 27
1.0
 37
0.0
 76
     0
330
23
  0
LAYOUT
  5
22
102
{ACAD_REACTORS
330
1A
102
}
330
1A
100
AcDbPlotSettings
  1

  2
none_device
  4
ANSI_A_(11.00_x_8.50_Inches)
  6

 40
6.35
 41
19.05
 42
6.35000508
 43
19.05000254
 44
279.4
 45
215.9
 46
84.0513245988
 47
-6.3794334926
 48
0.0
 49
0.0
140
0.0
141
0.0
142
0.9062277781
143
1.0
 70
  1696
 72
     0
 73
     0
 74
     0
  7

 75
     0
147
0.0179189148
148
-1300.4909072572
149
0.0
100
AcDbLayout
  1
Model
 70
     1
 71
     0
 10
0.0
 20
0.0
 11
420.0
 21
297.0
 12
0.0
 22
0.0
 32
0.0
 14
-0.3145813851
 24
-0.5035613144
 34
0.0
 15
4.5980356762
 25
8.7821836204
 35
0.0
146
0.0
 13
0.0
 23
0.0
 33
0.0
 16
1.0
 26
0.0
 36
0.0
 17
0.0
 27
1.0
 37
0.0
 76
     0
330
1F
331
29
  0
MLINESTYLE
  5
18
102
{ACAD_REACTORS
330
17
102
}
330
17
100
AcDbMlineStyle
  2
Standard
 70
     0
  3

 62
   256
 51
90.0
 52
90.0
 71
     2
 49
0.5
 62
   256
  6
BYLAYER
 49
-0.5
 62
   256
  6
BYLAYER
  0
ACDBPLACEHOLDER
  5
F
102
{ACAD_REACTORS
330
E
102
}
330
E
  0
SCALE
  5
48
102
{ACAD_REACTORS
330
47
102
}
330
47
100
AcDbScale
 70
     0
300
1:1
140
1.0
141
1.0
290
     1
  0
SCALE
  5
49
102
{ACAD_REACTORS
330
47
102
}
330
47
100
AcDbScale
 70
     0
300
1:2
140
1.0
141
2.0
290
     0
  0
SCALE
  5
4A
102
{ACAD_REACTORS
330
47
102
}
330
47
100
AcDbScale
 70
     0
300
1:4
140
1.0
141
4.0
290
     0
  0
SCALE
  5
4B
102
{ACAD_REACTORS
330
47
102
}
330
47
100
AcDbScale
 70
     0
300
1:5
140
1.0
141
5.0
290
     0
  0
SCALE
  5
4C
102
{ACAD_REACTORS
330
47
102
}
330
47
100
AcDbScale
 70
     0
300
1:8
140
1.0
141
8.0
290
     0
  0
SCALE
  5
4D
102
{ACAD_REACTORS
330
47
102
}
330
47
100
AcDbScale
 70
     0
300
1:10
140
1.0
141
10.0
290
     0
  0
SCALE
  5
4E
102
{ACAD_REACTORS
330
47
102
}
330
47
100
AcDbScale
 70
     0
300
1:16
140
1.0
141
16.0
290
     0
  0
SCALE
  5
4F
102
{ACAD_REACTORS
330
47
102
}
330
47
100
AcDbScale
 70
     0
300
1:20
140
1.0
141
20.0
290
     0
  0
SCALE
  5
50
102
{ACAD_REACTORS
330
47
102
}
330
47
100
AcDbScale
 70
     0
300
1:30
140
1.0
141
30.0
290
     0
  0
SCALE
  5
51
102
{ACAD_REACTORS
330
47
102
}
330
47
100
AcDbScale
 70
     0
300
1:40
140
1.0
141
40.0
290
     0
  0
SCALE
  5
52
102
{ACAD_REACTORS
330
47
102
}
330
47
100
AcDbScale
 70
     0
300
1:50
140
1.0
141
50.0
290
     0
  0
SCALE
  5
53
102
{ACAD_REACTORS
330
47
102
}
330
47
100
AcDbScale
 70
     0
300
1:100
140
1.0
141
100.0
290
     0
  0
SCALE
  5
54
102
{ACAD_REACTORS
330
47
102
}
330
47
100
AcDbScale
 70
     0
300
2:1
140
2.0
141
1.0
290
     0
  0
SCALE
  5
55
102
{ACAD_REACTORS
330
47
102
}
330
47
100
AcDbScale
 70
     0
300
4:1
140
4.0
141
1.0
290
     0
  0
SCALE
  5
56
102
{ACAD_REACTORS
330
47
102
}
330
47
100
AcDbScale
 70
     0
300
8:1
140
8.0
141
1.0
290
     0
  0
SCALE
  5
57
102
{ACAD_REACTORS
330
47
102
}
330
47
100
AcDbScale
 70
     0
300
10:1
140
10.0
141
1.0
290
     0
  0
SCALE
  5
58
102
{ACAD_REACTORS
330
47
102
}
330
47
100
AcDbScale
 70
     0
300
100:1
140
100.0
141
1.0
290
     0
  0
ENDSEC
  0
EOF
