  0
SECTION
  2
HEADER
  9
$ACADVER
  1
AC1015
  9
$ACADMAINTVER
 70
     6
  9
$DWGCODEPAGE
  3
ANSI_1252
  9
$INSBASE
 10
0.0
 20
0.0
 30
0.0
  9
$EXTMIN
 10
-0.0222882248
 20
-0.5247415964
 30
0.0
  9
$EXTMAX
 10
4.8903288365
 20
8.7600506198
 30
0.0
  9
$LIMMIN
 10
0.0
 20
0.0
  9
$LIMMAX
 10
420.0
 20
297.0
  9
$ORTHOMODE
 70
     0
  9
$REGENMODE
 70
     1
  9
$FILLMODE
 70
     1
  9
$QTEXTMODE
 70
     0
  9
$MIRRTEXT
 70
     1
  9
$LTSCALE
 40
1.0
  9
$ATTMODE
 70
     1
  9
$TEXTSIZE
 40
0.35
  9
$TRACEWID
 40
1.0
  9
$TEXTSTYLE
  7
Standard
  9
$CLAYER
  8
0
  9
$CELTYPE
  6
ByLayer
  9
$CECOLOR
 62
   256
  9
$CELTSCALE
 40
1.0
  9
$DISPSILH
 70
     0
  9
$DIMSCALE
 40
1.0
  9
$DIMASZ
 40
0.3302
  9
$DIMEXO
 40
0.0
  9
$DIMDLI
 40
3.75
  9
$DIMRND
 40
0.0
  9
$DIMDLE
 40
0.0
  9
$DIMEXE
 40
0.1
  9
$DIMTP
 40
0.0
  9
$DIMTM
 40
0.0
  9
$DIMTXT
 40
0.35
  9
$DIMCEN
 40
2.5
  9
$DIMTSZ
 40
0.0
  9
$DIMTOL
 70
     0
  9
$DIMLIM
 70
     0
  9
$DIMTIH
 70
     1
  9
$DIMTOH
 70
     1
  9
$DIMSE1
 70
     0
  9
$DIMSE2
 70
     0
  9
$DIMTAD
 70
     1
  9
$DIMZIN
 70
     1
  9
$DIMBLK
  1

  9
$DIMASO
 70
     1
  9
$DIMSHO
 70
     1
  9
$DIMPOST
  1

  9
$DIMAPOST
  1

  9
$DIMALT
 70
     0
  9
$DIMALTD
 70
     3
  9
$DIMALTF
 40
0.3937007874
  9
$DIMLFAC
 40
1.0
  9
$DIMTOFL
 70
     1
  9
$DIMTVP
 40
0.0
  9
$DIMTIX
 70
     0
  9
$DIMSOXD
 70
     0
  9
$DIMSAH
 70
     0
  9
$DIMBLK1
  1

  9
$DIMBLK2
  1

  9
$DIMSTYLE
  2
ISO-25
  9
$DIMCLRD
 70
     0
  9
$DIMCLRE
 70
     0
  9
$DIMCLRT
 70
     0
  9
$DIMTFAC
 40
1.0
  9
$DIMGAP
 40
0.1524
  9
$DIMJUST
 70
     0
  9
$DIMSD1
 70
     0
  9
$DIMSD2
 70
     0
  9
$DIMTOLJ
 70
     0
  9
$DIMTZIN
 70
     1
  9
$DIMALTZ
 70
     0
  9
$DIMALTTZ
 70
     0
  9
$DIMUPT
 70
     0
  9
$DIMDEC
 70
     2
  9
$DIMTDEC
 70
     2
  9
$DIMALTU
 70
     2
  9
$DIMALTTD
 70
     3
  9
$DIMTXSTY
  7
Standard
  9
$DIMAUNIT
 70
     0
  9
$DIMADEC
 70
     2
  9
$DIMALTRND
 40
0.0
  9
$DIMAZIN
 70
     0
  9
$DIMDSEP
 70
    44
  9
$DIMATFIT
 70
     3
  9
$DIMFRAC
 70
     0
  9
$DIMLDRBLK
  1

  9
$DIMLUNIT
 70
     2
  9
$DIMLWD
 70
    -2
  9
$DIMLWE
 70
    -2
  9
$DIMTMOVE
 70
     0
  9
$LUNITS
 70
     2
  9
$LUPREC
 70
     2
  9
$SKETCHINC
 40
1.0
  9
$FILLETRAD
 40
0.0
  9
$AUNITS
 70
     0
  9
$AUPREC
 70
     2
  9
$MENU
  1
.
  9
$ELEVATION
 40
0.0
  9
$PELEVATION
 40
0.0
  9
$THICKNESS
 40
0.0
  9
$LIMCHECK
 70
     0
  9
$CHAMFERA
 40
0.0
  9
$CHAMFERB
 40
0.0
  9
$CHAMFERC
 40
0.0
  9
$CHAMFERD
 40
0.0
  9
$SKPOLY
 70
     0
  9
$TDCREATE
 40
2460255.641705382
  9
$TDUCREATE
 40
2460255.412538715
  9
$TDUPDATE
 40
2460255.641734722
  9
$TDUUPDATE
 40
2460255.412568056
  9
$TDINDWG
 40
0.0000000116
  9
$TDUSRTIMER
 40
0.0000000116
  9
$USRTIMER
 70
     1
  9
$ANGBASE
 50
0.0
  9
$ANGDIR
 70
     0
  9
$PDMODE
 70
     0
  9
$PDSIZE
 40
-1.0
  9
$PLINEWID
 40
0.0
  9
$SPLFRAME
 70
     0
  9
$SPLINETYPE
 70
     6
  9
$SPLINESEGS
 70
     8
  9
$HANDSEED
  5
B4
  9
$SURFTAB1
 70
     6
  9
$SURFTAB2
 70
     6
  9
$SURFTYPE
 70
     6
  9
$SURFU
 70
     6
  9
$SURFV
 70
     6
  9
$UCSBASE
  2

  9
$UCSNAME
  2

  9
$UCSORG
 10
0.0
 20
0.0
 30
0.0
  9
$UCSXDIR
 10
1.0
 20
0.0
 30
0.0
  9
$UCSYDIR
 10
0.0
 20
1.0
 30
0.0
  9
$UCSORTHOREF
  2

  9
$UCSORTHOVIEW
 70
     0
  9
$UCSORGTOP
 10
0.0
 20
0.0
 30
0.0
  9
$UCSORGBOTTOM
 10
0.0
 20
0.0
 30
0.0
  9
$UCSORGLEFT
 10
0.0
 20
0.0
 30
0.0
  9
$UCSORGRIGHT
 10
0.0
 20
0.0
 30
0.0
  9
$UCSORGFRONT
 10
0.0
 20
0.0
 30
0.0
  9
$UCSORGBACK
 10
0.0
 20
0.0
 30
0.0
  9
$PUCSBASE
  2

  9
$PUCSNAME
  2

  9
$PUCSORG
 10
0.0
 20
0.0
 30
0.0
  9
$PUCSXDIR
 10
1.0
 20
0.0
 30
0.0
  9
$PUCSYDIR
 10
0.0
 20
1.0
 30
0.0
  9
$PUCSORTHOREF
  2

  9
$PUCSORTHOVIEW
 70
     0
  9
$PUCSORGTOP
 10
0.0
 20
0.0
 30
0.0
  9
$PUCSORGBOTTOM
 10
0.0
 20
0.0
 30
0.0
  9
$PUCSORGLEFT
 10
0.0
 20
0.0
 30
0.0
  9
$PUCSORGRIGHT
 10
0.0
 20
0.0
 30
0.0
  9
$PUCSORGFRONT
 10
0.0
 20
0.0
 30
0.0
  9
$PUCSORGBACK
 10
0.0
 20
0.0
 30
0.0
  9
$USERI1
 70
     0
  9
$USERI2
 70
     0
  9
$USERI3
 70
     0
  9
$USERI4
 70
     0
  9
$USERI5
 70
     0
  9
$USERR1
 40
0.0
  9
$USERR2
 40
0.0
  9
$USERR3
 40
0.0
  9
$USERR4
 40
0.0
  9
$USERR5
 40
0.0
  9
$WORLDVIEW
 70
     1
  9
$SHADEDGE
 70
     3
  9
$SHADEDIF
 70
    70
  9
$TILEMODE
 70
     1
  9
$MAXACTVP
 70
    64
  9
$PINSBASE
 10
0.0
 20
0.0
 30
0.0
  9
$PLIMCHECK
 70
     0
  9
$PEXTMIN
 10
1.0000000000E+20
 20
1.0000000000E+20
 30
1.0000000000E+20
  9
$PEXTMAX
 10
-1.0000000000E+20
 20
-1.0000000000E+20
 30
-1.0000000000E+20
  9
$PLIMMIN
 10
0.0
 20
0.0
  9
$PLIMMAX
 10
420.0
 20
297.0
  9
$UNITMODE
 70
     0
  9
$VISRETAIN
 70
     1
  9
$PLINEGEN
 70
     0
  9
$PSLTSCALE
 70
     1
  9
$TREEDEPTH
 70
  3020
  9
$CMLSTYLE
  2
Standard
  9
$CMLJUST
 70
     0
  9
$CMLSCALE
 40
20.0
  9
$PROXYGRAPHICS
 70
     1
  9
$MEASUREMENT
 70
     1
  9
$CELWEIGHT
370
    -1
  9
$ENDCAPS
280
     0
  9
$JOINSTYLE
280
     0
  9
$LWDISPLAY
290
     1
  9
$INSUNITS
 70
     5
  9
$HYPERLINKBASE
  1

  9
$STYLESHEET
  1

  9
$XEDIT
290
     1
  9
$CEPSNTYPE
380
     0
  9
$PSTYLEMODE
290
     1
  9
$FINGERPRINTGUID
  2
{0c2a4958-70a0-4e36-ad61-707d9f32b947}
  9
$VERSIONGUID
  2
{FAEB1C32-E019-11D5-929B-00C0DF256EC4}
  9
$EXTNAMES
290
     1
  9
$PSVPSCALE
 40
0.0
  9
$OLESTARTUP
290
     0
  0
ENDSEC
  0
SECTION
  2
CLASSES
  0
CLASS
  1
ACDBDICTIONARYWDFLT
  2
AcDbDictionaryWithDefault
  3
ObjectDBX Classes
 90
        0
280
     0
281
     0
  0
CLASS
  1
VISUALSTYLE
  2
AcDbVisualStyle
  3
ObjectDBX Classes
 90
     4095
280
     0
281
     0
  0
CLASS
  1
MATERIAL
  2
AcDbMaterial
  3
ObjectDBX Classes
 90
     1153
280
     0
281
     0
  0
CLASS
  1
SCALE
  2
AcDbScale
  3
ObjectDBX Classes
 90
     1153
280
     0
281
     0
  0
CLASS
  1
TABLESTYLE
  2
AcDbTableStyle
  3
ObjectDBX Classes
 90
     4095
280
     0
281
     0
  0
CLASS
  1
MLEADERSTYLE
  2
AcDbMLeaderStyle
  3
ACDB_MLEADERSTYLE_CLASS
 90
     4095
280
     0
281
     0
  0
CLASS
  1
SUN
  2
AcDbSun
  3
SCENEOE
 90
     1153
280
     0
281
     0
  0
CLASS
  1
ACDBPLACEHOLDER
  2
AcDbPlaceHolder
  3
ObjectDBX Classes
 90
        0
280
     0
281
     0
  0
CLASS
  1
LAYOUT
  2
AcDbLayout
  3
ObjectDBX Classes
 90
        0
280
     0
281
     0
  0
ENDSEC
  0
SECTION
  2
TABLES
  0
TABLE
  2
VPORT
  5
8
330
0
100
AcDbSymbolTable
 70
     1
  0
VPORT
  5
29
330
8
100
AcDbSymbolTableRecord
100
AcDbViewportTableRecord
  2
*Active
 70
     0
 10
0.0
 20
0.0
 11
1.0
 21
1.0
 12
2.4340203059
 22
4.1176545117
 13
0.0
 23
0.0
 14
10.0
 24
10.0
 15
10.0
 25
10.0
 16
0.0
 26
0.0
 36
1.0
 17
0.0
 27
0.0
 37
0.0
 40
9.4704880605
 41
0.529103608
 42
50.0
 43
0.0
 44
0.0
 50
0.0
 51
0.0
 71
     0
 72
   100
 73
     1
 74
     3
 75
     0
 76
     0
 77
     0
 78
     0
281
     0
 65
     1
110
0.0
120
0.0
130
0.0
111
1.0
121
0.0
131
0.0
112
0.0
122
1.0
132
0.0
 79
     0
146
0.0
  0
ENDTAB
  0
TABLE
  2
LTYPE
  5
5
330
0
100
AcDbSymbolTable
 70
     6
  0
LTYPE
  5
14
330
5
100
AcDbSymbolTableRecord
100
AcDbLinetypeTableRecord
  2
ByBlock
 70
     0
  3

 72
    65
 73
     0
 40
0.0
  0
LTYPE
  5
15
330
5
100
AcDbSymbolTableRecord
100
AcDbLinetypeTableRecord
  2
ByLayer
 70
     0
  3

 72
    65
 73
     0
 40
0.0
  0
LTYPE
  5
16
330
5
100
AcDbSymbolTableRecord
100
AcDbLinetypeTableRecord
  2
Continuous
 70
     0
  3
Solid line
 72
    65
 73
     0
 40
0.0
  0
LTYPE
  5
5E
330
5
100
AcDbSymbolTableRecord
100
AcDbLinetypeTableRecord
  2
HIDDEN
 70
     0
  3
Hidden __ __ __ __ __ __ __ __ __ __ __ __ __ __
 72
    65
 73
     2
 40
0.1905
 49
0.127
 74
     0
 49
-0.0635
 74
     0
  0
LTYPE
  5
5F
330
5
100
AcDbSymbolTableRecord
100
AcDbLinetypeTableRecord
  2
PHANTOM
 70
     0
  3
Phantom ______  __  __  ______  __  __  ______
 72
    65
 73
     6
 40
1.27
 49
0.635
 74
     0
 49
-0.127
 74
     0
 49
0.127
 74
     0
 49
-0.127
 74
     0
 49
0.127
 74
     0
 49
-0.127
 74
     0
  0
LTYPE
  5
60
330
5
100
AcDbSymbolTableRecord
100
AcDbLinetypeTableRecord
  2
CENTER
 70
     0
  3
Center ____ _ ____ _ ____ _ ____ _ ____ _ ____
 72
    65
 73
     4
 40
1.016
 49
0.635
 74
     0
 49
-0.127
 74
     0
 49
0.127
 74
     0
 49
-0.127
 74
     0
  0
LTYPE
  5
61
330
5
100
AcDbSymbolTableRecord
100
AcDbLinetypeTableRecord
  2
CENTERX2
 70
     0
  3
Center (2x) ________  __  ________  __  _____
 72
    65
 73
     4
 40
2.032
 49
1.27
 74
     0
 49
-0.254
 74
     0
 49
0.254
 74
     0
 49
-0.254
 74
     0
  0
LTYPE
  5
62
330
5
100
AcDbSymbolTableRecord
100
AcDbLinetypeTableRecord
  2
DOT2
 70
     0
  3
Dot (.5x) ........................................
 72
    65
 73
     2
 40
0.0635
 49
0.0
 74
     0
 49
-0.0635
 74
     0
  0
ENDTAB
  0
TABLE
  2
LAYER
  5
2
330
0
100
AcDbSymbolTable
 70
     1
  0
LAYER
  5
10
330
2
100
AcDbSymbolTableRecord
100
AcDbLayerTableRecord
  2
0
 70
     0
 62
     7
  6
Continuous
370
    -3
390
F
  0
ENDTAB
  0
TABLE
  2
STYLE
  5
3
330
0
100
AcDbSymbolTable
 70
     1
  0
STYLE
  5
11
330
3
100
AcDbSymbolTableRecord
100
AcDbTextStyleTableRecord
  2
Standard
 70
     0
 40
0.0
 41
1.0
 50
0.0
 71
     0
 42
0.35
  3
txt
  4

  0
ENDTAB
  0
TABLE
  2
VIEW
  5
6
330
0
100
AcDbSymbolTable
 70
     0
  0
ENDTAB
  0
TABLE
  2
UCS
  5
7
330
0
100
AcDbSymbolTable
 70
     0
  0
ENDTAB
  0
TABLE
  2
APPID
  5
9
330
0
100
AcDbSymbolTable
 70
     1
  0
APPID
  5
12
330
9
100
AcDbSymbolTableRecord
100
AcDbRegAppTableRecord
  2
ACAD
 70
     0
  0
ENDTAB
  0
TABLE
  2
DIMSTYLE
  5
A
330
0
100
AcDbSymbolTable
 70
     1
100
AcDbDimStyleTable
  0
DIMSTYLE
105
27
330
A
100
AcDbSymbolTableRecord
100
AcDbDimStyleTableRecord
  2
ISO-25
 70
     0
 41
2.5
 42
0.625
 43
3.75
 44
1.25
 73
     0
 74
     0
 77
     1
 78
     8
140
2.5
141
2.5
143
0.0393700787
147
0.625
171
     3
172
     1
178
     0
271
     2
272
     2
274
     3
278
    44
283
     0
284
     8
340
11
  0
ENDTAB
  0
TABLE
  2
BLOCK_RECORD
  5
1
330
0
100
AcDbSymbolTable
 70
     1
  0
BLOCK_RECORD
  5
1F
330
1
100
AcDbSymbolTableRecord
100
AcDbBlockTableRecord
  2
*Model_Space
340
22
  0
BLOCK_RECORD
  5
1B
330
1
100
AcDbSymbolTableRecord
100
AcDbBlockTableRecord
  2
*Paper_Space
340
1E
  0
BLOCK_RECORD
  5
23
330
1
100
AcDbSymbolTableRecord
100
AcDbBlockTableRecord
  2
*Paper_Space0
340
26
  0
ENDTAB
  0
ENDSEC
  0
SECTION
  2
BLOCKS
  0
BLOCK
  5
20
330
1F
100
AcDbEntity
  8
0
100
AcDbBlockBegin
  2
*Model_Space
 70
     0
 10
0.0
 20
0.0
 30
0.0
  3
*Model_Space
  1

  0
ENDBLK
  5
21
330
1F
100
AcDbEntity
  8
0
100
AcDbBlockEnd
  0
BLOCK
  5
1C
330
1B
100
AcDbEntity
 67
     1
  8
0
100
AcDbBlockBegin
  2
*Paper_Space
 70
     0
 10
0.0
 20
0.0
 30
0.0
  3
*Paper_Space
  1

  0
ENDBLK
  5
1D
330
1B
100
AcDbEntity
 67
     1
  8
0
100
AcDbBlockEnd
  0
BLOCK
  5
24
330
23
100
AcDbEntity
  8
0
100
AcDbBlockBegin
  2
*Paper_Space0
 70
     0
 10
0.0
 20
0.0
 30
0.0
  3
*Paper_Space0
  1

  0
ENDBLK
  5
25
330
23
100
AcDbEntity
  8
0
100
AcDbBlockEnd
  0
ENDSEC
  0
SECTION
  2
ENTITIES
  0
CIRCLE
  5
63
330
1F
100
AcDbEntity
  8
0
  6
Continuous
 62
     7
370
    25
100
AcDbCircle
 10
3.983967376
 20
8.2370017199
 30
0.0
 40
0.1500000000000012
  0
CIRCLE
  5
64
330
1F
100
AcDbEntity
  8
0
  6
Continuous
 62
     7
370
    25
100
AcDbCircle
 10
2.223967376
 20
8.2390569035
 30
0.0
 40
0.1500000000000012
  0
CIRCLE
  5
65
330
1F
100
AcDbEntity
  8
0
  6
Continuous
 62
     7
370
    25
100
AcDbCircle
 10
1.5226396323
 20
8.2398758566
 30
0.0
 40
0.2399999999999991
  0
CIRCLE
  5
66
330
1F
100
AcDbEntity
  8
0
  6
Continuous
 62
     7
370
    25
100
AcDbCircle
 10
0.9626396323
 20
8.2405297787
 30
0.0
 40
0.18
  0
CIRCLE
  5
67
330
1F
100
AcDbEntity
  8
0
  6
Continuous
 62
     7
370
    25
100
AcDbCircle
 10
3.103967376
 20
8.2380293117
 30
0.0
 40
0.3999999999999972
  0
CIRCLE
  5
68
330
1F
100
AcDbEntity
  8
0
  6
Continuous
 62
     7
370
    25
100
AcDbCircle
 10
0.5626396323
 20
8.2409968659
 30
0.0
 40
0.0800000000000006
  0
SPLINE
  5
69
330
1F
100
AcDbEntity
  8
0
  6
Continuous
 62
     7
370
    25
100
AcDbSpline
210
0.0
220
0.0
230
1.0
 70
     8
 71
     3
 72
    51
 73
    47
 74
     0
 42
0.00000001
 43
0.00000001
 40
0.0
 40
0.0
 40
0.0
 40
0.0
 40
0.015625
 40
0.03125
 40
0.03125
 40
0.046875
 40
0.046875
 40
0.0625
 40
0.0625
 40
0.0937500000000001
 40
0.0937500000000001
 40
0.1250000000000001
 40
0.1250000000000001
 40
0.1562500000000001
 40
0.1562500000000001
 40
0.1875000000000002
 40
0.1875000000000002
 40
0.2187500000000003
 40
0.2187500000000003
 40
0.2500000000000004
 40
0.2500000000000004
 40
0.3125000000000004
 40
0.3125000000000004
 40
0.3750000000000006
 40
0.3750000000000006
 40
0.5000000000000006
 40
0.5000000000000006
 40
0.6250000000000006
 40
0.6250000000000006
 40
0.7500000000000007
 40
0.7500000000000007
 40
0.8125000000000004
 40
0.8125000000000004
 40
0.8750000000000002
 40
0.8750000000000002
 40
0.9062500000000001
 40
0.9062500000000001
 40
0.9375
 40
0.9375
 40
0.953125
 40
0.953125
 40
0.96875
 40
0.96875
 40
0.984375
 40
0.984375
 40
1.0
 40
1.0
 40
1.0
 40
1.0
 10
-0.0161945027899443
 20
8.1922375936497
 30
0.0
 10
0.0070520850239519
 20
8.186723681450959
 30
0.0
 10
0.0536073606633439
 20
8.175790999640196
 30
0.0
 10
0.104721587229983
 20
8.16399114583407
 30
0.0
 10
0.1577581460173623
 20
8.151839875083718
 30
0.0
 10
0.1851411167178726
 20
8.14561141413821
 30
0.0
 10
0.2394697222625971
 20
8.13336047051477
 30
0.0
 10
0.266394730201322
 20
8.127342880341768
 30
0.0
 10
0.3452134483921954
 20
8.10990442272427
 30
0.0
 10
0.3950962149075629
 20
8.099110692484668
 30
0.0
 10
0.4952508284955217
 20
8.077818124265125
 30
0.0
 10
0.54566913407204
 20
8.067284545132452
 30
0.0
 10
0.6487691854099624
 20
8.046058788725215
 30
0.0
 10
0.7014051552008769
 20
8.035377467351587
 30
0.0
 10
0.8056178392338832
 20
8.014639893365647
 30
0.0
 10
0.8568786946337174
 20
8.004658547358602
 30
0.0
 10
0.9588209296979372
 20
7.985207468782068
 30
0.0
 10
1.009932855551749
 20
7.975635609802792
 30
0.0
 10
1.113308211470888
 20
7.95659828204025
 30
0.0
 10
1.165346120036709
 20
7.947186284097706
 30
0.0
 10
1.32099883534847
 20
7.919644793568069
 30
0.0
 10
1.423783898543124
 20
7.902294422475537
 30
0.0
 10
1.630854379977122
 20
7.86894452574113
 30
0.0
 10
1.735088841454694
 20
7.852956849756443
 30
0.0
 10
2.046425500409227
 20
7.808257296279885
 30
0.0
 10
2.254901912494054
 20
7.782085456348689
 30
0.0
 10
2.672540744729281
 20
7.740788969738883
 30
0.0
 10
2.882089091379692
 20
7.725519179305283
 30
0.0
 10
3.301660365854243
 20
7.712463802550445
 30
0.0
 10
3.511925554370766
 20
7.714435556219766
 30
0.0
 10
3.825703188635964
 20
7.740290488889999
 30
0.0
 10
3.930027035948847
 20
7.752774607057186
 30
0.0
 10
4.136774070133613
 20
7.789003575758316
 30
0.0
 10
4.239336748872314
 20
7.812586440547147
 30
0.0
 10
4.388884734127426
 20
7.861749129071753
 30
0.0
 10
4.438005771745485
 20
7.88046230377515
 30
0.0
 10
4.533267772735359
 20
7.924500611721339
 30
0.0
 10
4.579512639510339
 20
7.949793923509238
 30
0.0
 10
4.643717540913141
 20
7.995325380477018
 30
0.0
 10
4.664233796312823
 20
8.011789279175138
 30
0.0
 10
4.702293292731783
 20
8.047914677662243
 30
0.0
 10
4.719848176088222
 20
8.06759677851659
 30
0.0
 10
4.74989928639434
 20
8.110614463986
 30
0.0
 10
4.762352998629357
 20
8.133999536347481
 30
0.0
 10
4.779402610723181
 20
8.183625419204226
 30
0.0
 10
4.783894624255821
 20
8.20979428021931
 30
0.0
 10
4.783967375959842
 20
8.236067545455755
 30
0.0
  0
SPLINE
  5
6B
330
1F
100
AcDbEntity
  8
0
  6
Continuous
 62
     7
370
    25
100
AcDbSpline
210
0.0
220
0.0
230
1.0
 70
     8
 71
     3
 72
    51
 73
    47
 74
     0
 42
0.00000001
 43
0.00000001
 40
0.0
 40
0.0
 40
0.0
 40
0.0
 40
0.0156250000000003
 40
0.0156250000000003
 40
0.0312500000000006
 40
0.0312500000000006
 40
0.0468750000000009
 40
0.0468750000000009
 40
0.0625000000000012
 40
0.0625000000000012
 40
0.0937500000000015
 40
0.0937500000000015
 40
0.1250000000000018
 40
0.1250000000000018
 40
0.1875000000000019
 40
0.1875000000000019
 40
0.2500000000000021
 40
0.2500000000000021
 40
0.3750000000000019
 40
0.3750000000000019
 40
0.5000000000000018
 40
0.5000000000000018
 40
0.6250000000000016
 40
0.6250000000000016
 40
0.6875000000000017
 40
0.6875000000000017
 40
0.7500000000000017
 40
0.7500000000000017
 40
0.7812500000000014
 40
0.7812500000000014
 40
0.8125000000000013
 40
0.8125000000000013
 40
0.8437500000000011
 40
0.8437500000000011
 40
0.875000000000001
 40
0.875000000000001
 40
0.9062500000000008
 40
0.9062500000000008
 40
0.9375000000000007
 40
0.9375000000000007
 40
0.9531250000000006
 40
0.9531250000000006
 40
0.9687500000000003
 40
0.9687500000000003
 40
0.9843750000000002
 40
1.0
 40
1.0
 40
1.0
 40
1.0
 10
4.783967375959844
 20
8.236067545455757
 30
0.0
 10
4.783977385196979
 20
8.262340909511593
 30
0.0
 10
4.779567825658038
 20
8.28852379050426
 30
0.0
 10
4.762674619294676
 20
8.338203133300107
 30
0.0
 10
4.750294631640726
 20
8.36162731873892
 30
0.0
 10
4.720379175798447
 20
8.404739451550052
 30
0.0
 10
4.702886377999876
 20
8.42447675250224
 30
0.0
 10
4.664940865126123
 20
8.460721858879024
 30
0.0
 10
4.644476572664731
 20
8.477250301940051
 30
0.0
 10
4.580415413531433
 20
8.522983777953245
 30
0.0
 10
4.534250449922745
 20
8.548422635224059
 30
0.0
 10
4.43912764187627
 20
8.592760799244592
 30
0.0
 10
4.390065794313469
 20
8.611628611992204
 30
0.0
 10
4.240673413086217
 20
8.661262131594205
 30
0.0
 10
4.138185529025179
 20
8.685167951019567
 30
0.0
 10
3.931553641529953
 20
8.722047991522576
 30
0.0
 10
3.827269636667167
 20
8.734860667057074
 30
0.0
 10
3.513575001963309
 20
8.761703868551297
 30
0.0
 10
3.303317067631019
 20
8.764337946139369
 30
0.0
 10
2.883706750414511
 20
8.752604280391925
 30
0.0
 10
2.674111343662691
 20
8.737994641370186
 30
0.0
 10
2.256344499822799
 20
8.698013918700696
 30
0.0
 10
2.047786680947695
 20
8.672498907683499
 30
0.0
 10
1.73631076336411
 20
8.62878028401537
 30
0.0
 10
1.632026457964035
 20
8.61312102508864
 30
0.0
 10
1.42485195194176
 20
8.58042356420971
 30
0.0
 10
1.32201274515485
 20
8.563397051342523
 30
0.0
 10
1.166274046593215
 20
8.53634600228993
 30
0.0
 10
1.114206748479843
 20
8.527097970047963
 30
0.0
 10
1.010771937996697
 20
8.508386368297632
 30
0.0
 10
0.9596301144402957
 20
8.498975558973736
 30
0.0
 10
0.8576271143901807
 20
8.479845694142622
 30
0.0
 10
0.8063350721456929
 20
8.470025868949426
 30
0.0
 10
0.7020575819405455
 20
8.449616666988035
 30
0.0
 10
0.6493882272103128
 20
8.439101201500597
 30
0.0
 10
0.5462218264094025
 20
8.418200314755598
 30
0.0
 10
0.4957705902781128
 20
8.407825605151174
 30
0.0
 10
0.3955494021574604
 20
8.386848628819441
 30
0.0
 10
0.3456328829564276
 20
8.376212082454906
 30
0.0
 10
0.2667596247986945
 20
8.359021989700244
 30
0.0
 10
0.2398157950793015
 20
8.353089242946586
 30
0.0
 10
0.1854488686950002
 20
8.341009494785999
 30
0.0
 10
0.1580464142445979
 20
8.334867320885136
 30
0.0
 10
0.1049718421762623
 20
8.322883175165943
 30
0.0
 10
0.0538206997521495
 20
8.311244389316041
 30
0.0
 10
0.0072312172222561
 20
8.300458410499454
 30
0.0
 10
-0.0160326240401375
 20
8.295017752226531
 30
0.0
  0
CIRCLE
  5
6C
330
1F
100
AcDbEntity
  8
0
  6
Continuous
 62
     7
370
    25
100
AcDbCircle
 10
4.1990395189
 20
7.0621813088
 30
0.0
 40
0.0800000000000001
  0
CIRCLE
  5
6D
330
1F
100
AcDbEntity
  8
0
  6
Continuous
 62
     7
370
    25
100
AcDbCircle
 10
1.6577117752
 20
7.0592137547
 30
0.0
 40
0.4000000000000012
  0
CIRCLE
  5
6E
330
1F
100
AcDbEntity
  8
0
  6
Continuous
 62
     7
370
    25
100
AcDbCircle
 10
3.7990395189
 20
7.0617142216
 30
0.0
 40
0.1799999999999997
  0
CIRCLE
  5
6F
330
1F
100
AcDbEntity
  8
0
  6
Continuous
 62
     7
370
    25
100
AcDbCircle
 10
3.2390395189
 20
7.0610602995
 30
0.0
 40
0.2399999999999984
  0
CIRCLE
  5
70
330
1F
100
AcDbEntity
  8
0
  6
Continuous
 62
     7
370
    25
100
AcDbCircle
 10
2.5377117752
 20
7.0602413465
 30
0.0
 40
0.149999999999999
  0
CIRCLE
  5
71
330
1F
100
AcDbEntity
  8
0
  6
Continuous
 62
     7
370
    25
100
AcDbCircle
 10
0.7777117752
 20
7.0581861628
 30
0.0
 40
0.149999999999999
  0
SPLINE
  5
72
330
1F
100
AcDbEntity
  8
0
  6
Continuous
 62
     7
370
    25
100
AcDbSpline
210
0.0
220
0.0
230
1.0
 70
     8
 71
     3
 72
    51
 73
    47
 74
     0
 42
0.00000001
 43
0.00000001
 40
0.0
 40
0.0
 40
0.0
 40
0.0
 40
0.0156249999999998
 40
0.0312499999999997
 40
0.0312499999999997
 40
0.0468749999999995
 40
0.0468749999999995
 40
0.0624999999999993
 40
0.0624999999999993
 40
0.0937499999999992
 40
0.0937499999999992
 40
0.124999999999999
 40
0.124999999999999
 40
0.1562499999999988
 40
0.1562499999999988
 40
0.1874999999999987
 40
0.1874999999999987
 40
0.2187499999999985
 40
0.2187499999999985
 40
0.2499999999999983
 40
0.2499999999999983
 40
0.3124999999999986
 40
0.3124999999999986
 40
0.3749999999999988
 40
0.3749999999999988
 40
0.4999999999999989
 40
0.4999999999999989
 40
0.624999999999999
 40
0.624999999999999
 40
0.749999999999999
 40
0.749999999999999
 40
0.812499999999999
 40
0.812499999999999
 40
0.874999999999999
 40
0.874999999999999
 40
0.906249999999999
 40
0.906249999999999
 40
0.937499999999999
 40
0.937499999999999
 40
0.9531249999999992
 40
0.9531249999999992
 40
0.9687499999999996
 40
0.9687499999999996
 40
0.9843749999999998
 40
0.9843749999999998
 40
1.0
 40
1.0
 40
1.0
 40
1.0
 10
4.777711775233897
 20
7.116202195189107
 30
0.0
 10
4.7544479339715
 20
7.121642853462016
 30
0.0
 10
4.7078584514416
 20
7.132428832278586
 30
0.0
 10
4.656707309017483
 20
7.144067618128471
 30
0.0
 10
4.603632736949143
 20
7.156051763847639
 30
0.0
 10
4.57623028249874
 20
7.162193937748492
 30
0.0
 10
4.521863356114432
 20
7.174273685909056
 30
0.0
 10
4.494919526395037
 20
7.1802064326627
 30
0.0
 10
4.416046268237294
 20
7.19739652541732
 30
0.0
 10
4.36612974903626
 20
7.208033071781836
 30
0.0
 10
4.2659085609156
 20
7.229010048113528
 30
0.0
 10
4.215457324784303
 20
7.239384757717926
 30
0.0
 10
4.112290923983387
 20
7.260285644462884
 30
0.0
 10
4.05962156925315
 20
7.270801109950301
 30
0.0
 10
3.955344079047991
 20
7.291210311911649
 30
0.0
 10
3.9040520368035
 20
7.301030137104818
 30
0.0
 10
3.802049036753377
 20
7.320160001935894
 30
0.0
 10
3.750907213196972
 20
7.329570811259766
 30
0.0
 10
3.647472402713817
 20
7.348282413010058
 30
0.0
 10
3.595405104600439
 20
7.357530445252003
 30
0.0
 10
3.439666406038792
 20
7.384581494304532
 30
0.0
 10
3.336827199251874
 20
7.401608007171669
 30
0.0
 10
3.129652693229584
 20
7.434305468050513
 30
0.0
 10
3.025368387829499
 20
7.449964726977192
 30
0.0
 10
2.713892470245896
 20
7.493683350645193
 30
0.0
 10
2.505334651370785
 20
7.519198361662302
 30
0.0
 10
2.087567807530875
 20
7.559179084331599
 30
0.0
 10
1.877972400779048
 20
7.573788723353263
 30
0.0
 10
1.458362083562539
 20
7.585522389100513
 30
0.0
 10
1.248104149230252
 20
7.58288831151236
 30
0.0
 10
0.9344095145264062
 20
7.556045110017997
 30
0.0
 10
0.8301255096636216
 20
7.543232434483466
 30
0.0
 10
0.623493622168415
 20
7.506352393980359
 30
0.0
 10
0.5210057381073872
 20
7.482446574554952
 30
0.0
 10
0.3716133568801558
 20
7.432813054952883
 30
0.0
 10
0.3225515093173641
 20
7.41394524220525
 30
0.0
 10
0.2274287012709063
 20
7.369607078184684
 30
0.0
 10
0.1812637376622316
 20
7.344168220913851
 30
0.0
 10
0.1172025785289486
 20
7.298434744900625
 30
0.0
 10
0.0967382860675658
 20
7.281906301839595
 30
0.0
 10
0.0587927731938283
 20
7.245661195462794
 30
0.0
 10
0.0412999753952641
 20
7.225923894510604
 30
0.0
 10
0.0113845195530073
 20
7.182811761699451
 30
0.0
 10
-0.0009954681009363
 20
7.159387576260631
 30
0.0
 10
-0.0178886744642778
 20
7.10970823346478
 30
0.0
 10
-0.0222982340032107
 20
7.083525352472118
 30
0.0
 10
-0.022288224766058
 20
7.057251988416281
 30
0.0
  0
SPLINE
  5
74
330
1F
100
AcDbEntity
  8
0
  6
Continuous
 62
     7
370
    25
100
AcDbSpline
210
0.0
220
0.0
230
1.0
 70
     8
 71
     3
 72
    51
 73
    47
 74
     0
 42
0.00000001
 43
0.00000001
 40
0.0
 40
0.0
 40
0.0
 40
0.0
 40
0.0156249999999998
 40
0.0156249999999998
 40
0.0312499999999996
 40
0.0312499999999996
 40
0.0468749999999993
 40
0.0468749999999993
 40
0.0624999999999991
 40
0.0624999999999991
 40
0.0937499999999992
 40
0.0937499999999992
 40
0.1249999999999993
 40
0.1249999999999993
 40
0.1874999999999993
 40
0.1874999999999993
 40
0.2499999999999993
 40
0.2499999999999993
 40
0.3749999999999993
 40
0.3749999999999993
 40
0.4999999999999994
 40
0.4999999999999994
 40
0.6249999999999994
 40
0.6249999999999994
 40
0.6874999999999994
 40
0.6874999999999994
 40
0.7499999999999994
 40
0.7499999999999994
 40
0.7812499999999996
 40
0.7812499999999996
 40
0.8124999999999996
 40
0.8124999999999996
 40
0.8437499999999996
 40
0.8437499999999996
 40
0.8749999999999996
 40
0.8749999999999996
 40
0.9062499999999996
 40
0.9062499999999996
 40
0.9374999999999996
 40
0.9374999999999996
 40
0.9531249999999997
 40
0.9531249999999997
 40
0.9687499999999998
 40
0.9687499999999998
 40
0.9843749999999999
 40
1.0
 40
1.0
 40
1.0
 40
1.0
 10
-0.0222882247660709
 20
7.057251988416279
 30
0.0
 10
-0.0222154730620306
 20
7.030978723179834
 30
0.0
 10
-0.0177234595293813
 20
7.004809862164758
 30
0.0
 10
-0.0006738474355315
 20
6.955183979308015
 30
0.0
 10
0.0117798647994959
 20
6.931798906946543
 30
0.0
 10
0.0418309751056351
 20
6.888781221477132
 30
0.0
 10
0.0593858584620865
 20
6.869099120622803
 30
0.0
 10
0.0974453548810608
 20
6.83297372213572
 30
0.0
 10
0.1179616102807483
 20
6.816509823437614
 30
0.0
 10
0.1821665116835711
 20
6.770978366469878
 30
0.0
 10
0.2284113784585668
 20
6.745685054681997
 30
0.0
 10
0.3236733794484657
 20
6.701646746735856
 30
0.0
 10
0.3727944170665329
 20
6.682933572032486
 30
0.0
 10
0.5223424023216693
 20
6.633770883507947
 30
0.0
 10
0.6249050810603833
 20
6.610188018719157
 30
0.0
 10
0.8316521152451615
 20
6.573959050018143
 30
0.0
 10
0.9359759625580539
 20
6.561474931850995
 30
0.0
 10
1.249753596823261
 20
6.53561999918092
 30
0.0
 10
1.460018785339786
 20
6.5336482455117
 30
0.0
 10
1.879590059814334
 20
6.546703622266742
 30
0.0
 10
2.089138406464737
 20
6.561973412700452
 30
0.0
 10
2.506777238699951
 20
6.603269899310455
 30
0.0
 10
2.71525365078476
 20
6.629441739241761
 30
0.0
 10
3.026590309739271
 20
6.674141292718456
 30
0.0
 10
3.130824771216838
 20
6.690128968703206
 30
0.0
 10
3.337895252650815
 20
6.723478865437706
 30
0.0
 10
3.440680315845463
 20
6.740829236530301
 30
0.0
 10
3.59633303115721
 20
6.768370727060004
 30
0.0
 10
3.648370939723025
 20
6.777782725002577
 30
0.0
 10
3.751746295642156
 20
6.796820052765168
 30
0.0
 10
3.802858221495961
 20
6.806391911744468
 30
0.0
 10
3.904800456560171
 20
6.825842990321059
 30
0.0
 10
3.956061311960001
 20
6.835824336328122
 30
0.0
 10
4.060273995992998
 20
6.856561910314123
 30
0.0
 10
4.112909965783908
 20
6.867243231687767
 30
0.0
 10
4.216010017121818
 20
6.888468988095066
 30
0.0
 10
4.266428322698331
 20
6.899002567227762
 30
0.0
 10
4.366582936286279
 20
6.920295135447351
 30
0.0
 10
4.416465702801641
 20
6.93108886568698
 30
0.0
 10
4.495284420992506
 20
6.948527323304514
 30
0.0
 10
4.522209428931228
 20
6.954544913477526
 30
0.0
 10
4.576538034475949
 20
6.966795857100995
 30
0.0
 10
4.603921005176453
 20
6.973024318046505
 30
0.0
 10
4.656957563963828
 20
6.985175588796881
 30
0.0
 10
4.708071790530462
 20
6.996975442603036
 30
0.0
 10
4.754627066169848
 20
7.007908124413821
 30
0.0
 10
4.777873653983747
 20
7.013422036612574
 30
0.0
  0
CIRCLE
  5
75
330
1F
100
AcDbEntity
  8
0
  6
Continuous
 62
     7
370
    25
100
AcDbCircle
 10
4.02474099
 20
5.8983272903
 30
0.0
 40
0.1500000000000026
  0
CIRCLE
  5
76
330
1F
100
AcDbEntity
  8
0
  6
Continuous
 62
     7
370
    25
100
AcDbCircle
 10
2.26474099
 20
5.900382474
 30
0.0
 40
0.1500000000000017
  0
CIRCLE
  5
77
330
1F
100
AcDbEntity
  8
0
  6
Continuous
 62
     7
370
    25
100
AcDbCircle
 10
1.5634132463
 20
5.901201427
 30
0.0
 40
0.2400000000000035
  0
CIRCLE
  5
78
330
1F
100
AcDbEntity
  8
0
  6
Continuous
 62
     7
370
    25
100
AcDbCircle
 10
1.0034132463
 20
5.9018553491
 30
0.0
 40
0.1799999999999984
  0
CIRCLE
  5
79
330
1F
100
AcDbEntity
  8
0
  6
Continuous
 62
     7
370
    25
100
AcDbCircle
 10
3.14474099
 20
5.8993548822
 30
0.0
 40
0.400000000000003
  0
CIRCLE
  5
7A
330
1F
100
AcDbEntity
  8
0
  6
Continuous
 62
     7
370
    25
100
AcDbCircle
 10
0.6034132463
 20
5.9023224363
 30
0.0
 40
0.0799999999999992
  0
SPLINE
  5
7B
330
1F
100
AcDbEntity
  8
0
  6
Continuous
 62
     7
370
    25
100
AcDbSpline
210
0.0
220
0.0
230
1.0
 70
     8
 71
     3
 72
    51
 73
    47
 74
     0
 42
0.00000001
 43
0.00000001
 40
0.0
 40
0.0
 40
0.0
 40
0.0
 40
0.015625
 40
0.03125
 40
0.03125
 40
0.046875
 40
0.046875
 40
0.0625
 40
0.0625
 40
0.09375
 40
0.09375
 40
0.125
 40
0.125
 40
0.15625
 40
0.15625
 40
0.1875
 40
0.1875
 40
0.2187500000000001
 40
0.2187500000000001
 40
0.2500000000000002
 40
0.2500000000000002
 40
0.3125000000000003
 40
0.3125000000000003
 40
0.3750000000000005
 40
0.3750000000000005
 40
0.5000000000000007
 40
0.5000000000000007
 40
0.6250000000000008
 40
0.6250000000000008
 40
0.7500000000000009
 40
0.7500000000000009
 40
0.8125000000000008
 40
0.8125000000000008
 40
0.8750000000000007
 40
0.8750000000000007
 40
0.9062500000000007
 40
0.9062500000000007
 40
0.9375000000000006
 40
0.9375000000000006
 40
0.9531250000000004
 40
0.9531250000000004
 40
0.9687500000000003
 40
0.9687500000000003
 40
0.9843750000000002
 40
0.9843750000000002
 40
1.0
 40
1.0
 40
1.0
 40
1.0
 10
0.0245791112845166
 20
5.85356316411921
 30
0.0
 10
0.0478256990984128
 20
5.848049251920468
 30
0.0
 10
0.0943809747378049
 20
5.837116570109707
 30
0.0
 10
0.1454952013044439
 20
5.825316716303579
 30
0.0
 10
0.1985317600918229
 20
5.813165445553225
 30
0.0
 10
0.2259147307923336
 20
5.806936984607722
 30
0.0
 10
0.2802433363370583
 20
5.794686040984281
 30
0.0
 10
0.3071683442757829
 20
5.788668450811279
 30
0.0
 10
0.3859870624666566
 20
5.77122999319378
 30
0.0
 10
0.4358698289820235
 20
5.760436262954176
 30
0.0
 10
0.5360244425699829
 20
5.739143694734635
 30
0.0
 10
0.5864427481465012
 20
5.728610115601965
 30
0.0
 10
0.689542799484423
 20
5.707384359194722
 30
0.0
 10
0.7421787692753385
 20
5.696703037821104
 30
0.0
 10
0.8463914533083445
 20
5.675965463835158
 30
0.0
 10
0.8976523087081787
 20
5.665984117828115
 30
0.0
 10
0.9995945437723988
 20
5.646533039251579
 30
0.0
 10
1.05070646962621
 20
5.6369611802723
 30
0.0
 10
1.15408182554535
 20
5.617923852509761
 30
0.0
 10
1.206119734111169
 20
5.608511854567213
 30
0.0
 10
1.36177244942293
 20
5.580970364037579
 30
0.0
 10
1.464557512617586
 20
5.563619992945045
 30
0.0
 10
1.671627994051583
 20
5.530270096210642
 30
0.0
 10
1.775862455529154
 20
5.51428242022595
 30
0.0
 10
2.08719911448369
 20
5.469582866749398
 30
0.0
 10
2.295675526568512
 20
5.443411026818197
 30
0.0
 10
2.713314358803744
 20
5.402114540208399
 30
0.0
 10
2.922862705454154
 20
5.386844749774794
 30
0.0
 10
3.342433979928702
 20
5.373789373019954
 30
0.0
 10
3.552699168445227
 20
5.375761126689276
 30
0.0
 10
3.866476802710422
 20
5.401616059359507
 30
0.0
 10
3.97080065002331
 20
5.414100177526694
 30
0.0
 10
4.17754768420807
 20
5.450329146227819
 30
0.0
 10
4.280110362946774
 20
5.473912011016656
 30
0.0
 10
4.429658348201886
 20
5.523074699541263
 30
0.0
 10
4.478779385819941
 20
5.541787874244662
 30
0.0
 10
4.574041386809819
 20
5.585826182190845
 30
0.0
 10
4.620286253584803
 20
5.611119493978752
 30
0.0
 10
4.6844911549876
 20
5.656650950946527
 30
0.0
 10
4.705007410387287
 20
5.67311484964465
 30
0.0
 10
4.74306690680624
 20
5.709240248131749
 30
0.0
 10
4.760621790162681
 20
5.728922348986097
 30
0.0
 10
4.790672900468802
 20
5.77194003445551
 30
0.0
 10
4.803126612703811
 20
5.79532510681698
 30
0.0
 10
4.820176224797646
 20
5.844950989673743
 30
0.0
 10
4.824668238330282
 20
5.871119850688821
 30
0.0
 10
4.824740990034303
 20
5.897393115925268
 30
0.0
  0
SPLINE
  5
7D
330
1F
100
AcDbEntity
  8
0
  6
Continuous
 62
     7
370
    25
100
AcDbSpline
210
0.0
220
0.0
230
1.0
 70
     8
 71
     3
 72
    51
 73
    47
 74
     0
 42
0.00000001
 43
0.00000001
 40
0.0
 40
0.0
 40
0.0
 40
0.0
 40
0.0156250000000001
 40
0.0156250000000001
 40
0.0312500000000003
 40
0.0312500000000003
 40
0.0468750000000004
 40
0.0468750000000004
 40
0.0625000000000006
 40
0.0625000000000006
 40
0.0937500000000008
 40
0.0937500000000008
 40
0.1250000000000011
 40
0.1250000000000011
 40
0.1875000000000013
 40
0.1875000000000013
 40
0.2500000000000014
 40
0.2500000000000014
 40
0.3750000000000013
 40
0.3750000000000013
 40
0.5000000000000009
 40
0.5000000000000009
 40
0.6250000000000006
 40
0.6250000000000006
 40
0.6875000000000004
 40
0.6875000000000004
 40
0.7500000000000002
 40
0.7500000000000002
 40
0.7812500000000001
 40
0.7812500000000001
 40
0.8125000000000001
 40
0.8125000000000001
 40
0.84375
 40
0.84375
 40
0.875
 40
0.875
 40
0.9062499999999999
 40
0.9062499999999999
 40
0.9374999999999999
 40
0.9374999999999999
 40
0.9531249999999999
 40
0.9531249999999999
 40
0.9687499999999999
 40
0.9687499999999999
 40
0.984375
 40
1.0
 40
1.0
 40
1.0
 40
1.0
 10
4.824740990034304
 20
5.897393115925268
 30
0.0
 10
4.82475099927145
 20
5.923666479981103
 30
0.0
 10
4.820341439732502
 20
5.949849360973777
 30
0.0
 10
4.803448233369139
 20
5.999528703769616
 30
0.0
 10
4.791068245715183
 20
6.022952889208433
 30
0.0
 10
4.761152789872911
 20
6.066065022019564
 30
0.0
 10
4.743659992074332
 20
6.085802322971748
 30
0.0
 10
4.705714479200587
 20
6.122047429348537
 30
0.0
 10
4.685250186739192
 20
6.138575872409557
 30
0.0
 10
4.621189027605896
 20
6.184309348422761
 30
0.0
 10
4.575024063997208
 20
6.209748205693567
 30
0.0
 10
4.479901255950731
 20
6.254086369714106
 30
0.0
 10
4.43083940838793
 20
6.272954182461718
 30
0.0
 10
4.281447027160675
 20
6.322587702063713
 30
0.0
 10
4.178959143099641
 20
6.346493521489077
 30
0.0
 10
3.972327255604417
 20
6.383373561992095
 30
0.0
 10
3.86804325074163
 20
6.396186237526584
 30
0.0
 10
3.554348616037767
 20
6.423029439020815
 30
0.0
 10
3.344090681705479
 20
6.425663516608876
 30
0.0
 10
2.924480364488973
 20
6.413929850861432
 30
0.0
 10
2.714884957737151
 20
6.399320211839697
 30
0.0
 10
2.297118113897265
 20
6.359339489170209
 30
0.0
 10
2.088560295022158
 20
6.333824478153013
 30
0.0
 10
1.777084377438571
 20
6.29010585448488
 30
0.0
 10
1.672800072038496
 20
6.274446595558144
 30
0.0
 10
1.465625566016222
 20
6.24174913467923
 30
0.0
 10
1.362786359229313
 20
6.224722621812038
 30
0.0
 10
1.207047660667677
 20
6.197671572759441
 30
0.0
 10
1.154980362554306
 20
6.188423540517475
 30
0.0
 10
1.051545552071159
 20
6.169711938767142
 30
0.0
 10
1.000403728514757
 20
6.160301129443244
 30
0.0
 10
0.8984007284646436
 20
6.141171264612131
 30
0.0
 10
0.8471086862201559
 20
6.131351439418943
 30
0.0
 10
0.7428311960150078
 20
6.110942237457546
 30
0.0
 10
0.6901618412847751
 20
6.100426771970112
 30
0.0
 10
0.5869954404838655
 20
6.07952588522511
 30
0.0
 10
0.5365442043525747
 20
6.069151175620688
 30
0.0
 10
0.436323016231922
 20
6.048174199288955
 30
0.0
 10
0.38640649703089
 20
6.037537652924415
 30
0.0
 10
0.3075332388731568
 20
6.020347560169756
 30
0.0
 10
0.2805894091537635
 20
6.014414813416098
 30
0.0
 10
0.2262224827694625
 20
6.002335065255509
 30
0.0
 10
0.1988200283190602
 20
5.996192891354647
 30
0.0
 10
0.1457454562507249
 20
5.984208745635456
 30
0.0
 10
0.0945943138266108
 20
5.972569959785551
 30
0.0
 10
0.0480048312967184
 20
5.961783980968959
 30
0.0
 10
0.0247409900343228
 20
5.956343322696042
 30
0.0
  0
CIRCLE
  5
7E
330
1F
100
AcDbEntity
  8
0
  6
Continuous
 62
     7
370
    25
100
AcDbCircle
 10
4.239813133
 20
4.7235068793
 30
0.0
 40
0.080000000000001
  0
CIRCLE
  5
7F
330
1F
100
AcDbEntity
  8
0
  6
Continuous
 62
     7
370
    25
100
AcDbCircle
 10
1.6984853893
 20
4.7205393251
 30
0.0
 40
0.4000000000000024
  0
CIRCLE
  5
80
330
1F
100
AcDbEntity
  8
0
  6
Continuous
 62
     7
370
    25
100
AcDbCircle
 10
3.839813133
 20
4.7230397921
 30
0.0
 40
0.1800000000000024
  0
CIRCLE
  5
81
330
1F
100
AcDbEntity
  8
0
  6
Continuous
 62
     7
370
    25
100
AcDbCircle
 10
3.279813133
 20
4.72238587
 30
0.0
 40
0.2400000000000024
  0
CIRCLE
  5
82
330
1F
100
AcDbEntity
  8
0
  6
Continuous
 62
     7
370
    25
100
AcDbCircle
 10
2.5784853893
 20
4.721566917
 30
0.0
 40
0.1499999999999999
  0
CIRCLE
  5
83
330
1F
100
AcDbEntity
  8
0
  6
Continuous
 62
     7
370
    25
100
AcDbCircle
 10
0.8184853893
 20
4.7195117333
 30
0.0
 40
0.1500000000000015
  0
SPLINE
  5
84
330
1F
100
AcDbEntity
  8
0
  6
Continuous
 62
     7
370
    25
100
AcDbSpline
210
0.0
220
0.0
230
1.0
 70
     8
 71
     3
 72
    51
 73
    47
 74
     0
 42
0.00000001
 43
0.00000001
 40
0.0
 40
0.0
 40
0.0
 40
0.0
 40
0.0156249999999998
 40
0.0312499999999997
 40
0.0312499999999997
 40
0.0468749999999995
 40
0.0468749999999995
 40
0.0624999999999993
 40
0.0624999999999993
 40
0.0937499999999993
 40
0.0937499999999993
 40
0.1249999999999994
 40
0.1249999999999994
 40
0.1562499999999994
 40
0.1562499999999994
 40
0.1874999999999995
 40
0.1874999999999995
 40
0.2187499999999995
 40
0.2187499999999995
 40
0.2499999999999996
 40
0.2499999999999996
 40
0.3124999999999996
 40
0.3124999999999996
 40
0.3749999999999996
 40
0.3749999999999996
 40
0.4999999999999996
 40
0.4999999999999996
 40
0.6249999999999994
 40
0.6249999999999994
 40
0.7499999999999994
 40
0.7499999999999994
 40
0.8124999999999994
 40
0.8124999999999994
 40
0.8749999999999994
 40
0.8749999999999994
 40
0.9062499999999994
 40
0.9062499999999994
 40
0.9374999999999994
 40
0.9374999999999994
 40
0.9531249999999997
 40
0.9531249999999997
 40
0.9687499999999998
 40
0.9687499999999998
 40
0.984375
 40
0.984375
 40
1.0
 40
1.0
 40
1.0
 40
1.0
 10
4.818485389308387
 20
4.777527765656055
 30
0.0
 10
4.795221548045992
 20
4.782968423928978
 30
0.0
 10
4.748632065516095
 20
4.793754402745569
 30
0.0
 10
4.697480923091983
 20
4.805393188595483
 30
0.0
 10
4.644406351023644
 20
4.81737733431468
 30
0.0
 10
4.617003896573246
 20
4.823519508215544
 30
0.0
 10
4.562636970188943
 20
4.835599256376141
 30
0.0
 10
4.53569314046955
 20
4.841532003129803
 30
0.0
 10
4.456819882311818
 20
4.858722095884469
 30
0.0
 10
4.406903363110786
 20
4.869358642249015
 30
0.0
 10
4.306682174990137
 20
4.890335618580758
 30
0.0
 10
4.256230938858847
 20
4.900710328185187
 30
0.0
 10
4.153064538057937
 20
4.921611214930198
 30
0.0
 10
4.100395183327707
 20
4.93212668041764
 30
0.0
 10
3.996117693122561
 20
4.952535882379046
 30
0.0
 10
3.944825650878076
 20
4.962355707572243
 30
0.0
 10
3.842822650827965
 20
4.981485572403368
 30
0.0
 10
3.791680827271565
 20
4.99089638172727
 30
0.0
 10
3.688246016788421
 20
5.009607983477618
 30
0.0
 10
3.63617871867505
 20
5.018856015719589
 30
0.0
 10
3.480440020113416
 20
5.045907064772201
 30
0.0
 10
3.377600813326508
 20
5.0629335776394
 30
0.0
 10
3.170426307304237
 20
5.09563103851834
 30
0.0
 10
3.066142001904159
 20
5.111290297445086
 30
0.0
 10
2.754666084320581
 20
5.155008921113251
 30
0.0
 10
2.546108265445476
 20
5.180523932130461
 30
0.0
 10
2.128341421605594
 20
5.220504654800003
 30
0.0
 10
1.918746014853774
 20
5.235114293821763
 30
0.0
 10
1.499135697637271
 20
5.246847959569247
 30
0.0
 10
1.288877763304982
 20
5.244213881981199
 30
0.0
 10
0.9751831286011229
 20
5.217370680487011
 30
0.0
 10
0.870899123738331
 20
5.204558004952531
 30
0.0
 10
0.6642672362431036
 20
5.167677964449538
 30
0.0
 10
0.5617793521820628
 20
5.143772145024187
 30
0.0
 10
0.4123869709548051
 20
5.094138625422199
 30
0.0
 10
0.363325123392003
 20
5.075270812674586
 30
0.0
 10
0.2682023153455212
 20
5.030932648654071
 30
0.0
 10
0.2220373517368337
 20
5.005493791383267
 30
0.0
 10
0.1579761926035268
 20
4.959760315370073
 30
0.0
 10
0.1375119001421347
 20
4.943231872309052
 30
0.0
 10
0.0995663872683777
 20
4.906986765932266
 30
0.0
 10
0.0820735894698037
 20
4.887249464980084
 30
0.0
 10
0.052158133627524
 20
4.844137332168956
 30
0.0
 10
0.0397781459735673
 20
4.820713146730139
 30
0.0
 10
0.0228849396102002
 20
4.771033803934299
 30
0.0
 10
0.0184753800712506
 20
4.744850922941629
 30
0.0
 10
0.0184853893083908
 20
4.718577558885793
 30
0.0
  0
SPLINE
  5
86
330
1F
100
AcDbEntity
  8
0
  6
Continuous
 62
     7
370
    25
100
AcDbSpline
210
0.0
220
0.0
230
1.0
 70
     8
 71
     3
 72
    51
 73
    47
 74
     0
 42
0.00000001
 43
0.00000001
 40
0.0
 40
0.0
 40
0.0
 40
0.0
 40
0.0156249999999999
 40
0.0156249999999999
 40
0.0312499999999999
 40
0.0312499999999999
 40
0.0468749999999998
 40
0.0468749999999998
 40
0.0624999999999998
 40
0.0624999999999998
 40
0.0937499999999999
 40
0.0937499999999999
 40
0.125
 40
0.125
 40
0.1875000000000001
 40
0.1875000000000001
 40
0.2500000000000001
 40
0.2500000000000001
 40
0.3750000000000002
 40
0.3750000000000002
 40
0.5000000000000002
 40
0.5000000000000002
 40
0.6250000000000002
 40
0.6250000000000002
 40
0.6875000000000001
 40
0.6875000000000001
 40
0.7500000000000001
 40
0.7500000000000001
 40
0.78125
 40
0.78125
 40
0.8124999999999999
 40
0.8124999999999999
 40
0.8437499999999998
 40
0.8437499999999998
 40
0.8749999999999996
 40
0.8749999999999996
 40
0.9062499999999994
 40
0.9062499999999994
 40
0.9374999999999993
 40
0.9374999999999993
 40
0.9531249999999996
 40
0.9531249999999996
 40
0.9687499999999997
 40
0.9687499999999997
 40
0.9843749999999999
 40
1.0
 40
1.0
 40
1.0
 40
1.0
 10
0.0184853893083908
 20
4.718577558885794
 30
0.0
 10
0.0185581410124185
 20
4.692304293649348
 30
0.0
 10
0.0230501545450495
 20
4.666135432634265
 30
0.0
 10
0.0400997666388701
 20
4.616509549777506
 30
0.0
 10
0.052553478873885
 20
4.593124477416038
 30
0.0
 10
0.0826045891799996
 20
4.550106791946618
 30
0.0
 10
0.1001594725364395
 20
4.530424691092273
 30
0.0
 10
0.1382189689553934
 20
4.494299292605162
 30
0.0
 10
0.1587352243550718
 20
4.477835393907044
 30
0.0
 10
0.2229401257578697
 20
4.432303936939261
 30
0.0
 10
0.2691849925328501
 20
4.407010625151353
 30
0.0
 10
0.3644469935227237
 20
4.362972317205161
 30
0.0
 10
0.4135680311407802
 20
4.344259142501756
 30
0.0
 10
0.563116016395888
 20
4.295096453977139
 30
0.0
 10
0.6656786951345882
 20
4.271513589188296
 30
0.0
 10
0.8724257293193473
 20
4.235284620487156
 30
0.0
 10
0.9767495766322324
 20
4.222800502319957
 30
0.0
 10
1.290527210897429
 20
4.196945569649703
 30
0.0
 10
1.500792399413952
 20
4.194973815980362
 30
0.0
 10
1.920363673888506
 20
4.20802919273517
 30
0.0
 10
2.129912020538918
 20
4.223298983168753
 30
0.0
 10
2.547550852774151
 20
4.26459546977852
 30
0.0
 10
2.756027264858979
 20
4.290767309709709
 30
0.0
 10
3.067363923813514
 20
4.335466863186237
 30
0.0
 10
3.171598385291088
 20
4.35145453917092
 30
0.0
 10
3.378668866725088
 20
4.384804435905313
 30
0.0
 10
3.481453929919741
 20
4.402154806997836
 30
0.0
 10
3.637106645231504
 20
4.429696297527457
 30
0.0
 10
3.689144553797324
 20
4.439108295470003
 30
0.0
 10
3.792519909716468
 20
4.458145623232533
 30
0.0
 10
3.843631835570277
 20
4.467717482211805
 30
0.0
 10
3.9455740706345
 20
4.487168560788338
 30
0.0
 10
3.996834926034333
 20
4.497149906795374
 30
0.0
 10
4.101047610067345
 20
4.517887480781311
 30
0.0
 10
4.153683579858257
 20
4.528568802154926
 30
0.0
 10
4.256783631196183
 20
4.549794558562163
 30
0.0
 10
4.307201936772701
 20
4.560328137694827
 30
0.0
 10
4.407356550360662
 20
4.58162070591436
 30
0.0
 10
4.457239316876029
 20
4.592414436153961
 30
0.0
 10
4.536058035066904
 20
4.609852893771452
 30
0.0
 10
4.562983043005629
 20
4.615870483944453
 30
0.0
 10
4.617311648550356
 20
4.628121427567891
 30
0.0
 10
4.644694619250866
 20
4.634349888513395
 30
0.0
 10
4.697731178038246
 20
4.646501159263741
 30
0.0
 10
4.74884540460489
 20
4.658301013069867
 30
0.0
 10
4.795400680244279
 20
4.669233694880623
 30
0.0
 10
4.818647268058177
 20
4.674747607079362
 30
0.0
  0
CIRCLE
  5
87
330
1F
100
AcDbEntity
  8
0
  6
Continuous
 62
     7
370
    25
100
AcDbCircle
 10
4.0202413816
 20
3.571183121
 30
0.0
 40
0.1500000000000012
  0
CIRCLE
  5
88
330
1F
100
AcDbEntity
  8
0
  6
Continuous
 62
     7
370
    25
100
AcDbCircle
 10
2.2602413816
 20
3.5732383047
 30
0.0
 40
0.1499999999999995
  0
CIRCLE
  5
89
330
1F
100
AcDbEntity
  8
0
  6
Continuous
 62
     7
370
    25
100
AcDbCircle
 10
1.5589136379
 20
3.5740572577
 30
0.0
 40
0.2400000000000007
  0
CIRCLE
  5
8A
330
1F
100
AcDbEntity
  8
0
  6
Continuous
 62
     7
370
    25
100
AcDbCircle
 10
0.9989136379
 20
3.5747111798
 30
0.0
 40
0.1799999999999994
  0
CIRCLE
  5
8B
330
1F
100
AcDbEntity
  8
0
  6
Continuous
 62
     7
370
    25
100
AcDbCircle
 10
3.1402413816
 20
3.5722107129
 30
0.0
 40
0.4000000000000004
  0
CIRCLE
  5
8C
330
1F
100
AcDbEntity
  8
0
  6
Continuous
 62
     7
370
    25
100
AcDbCircle
 10
0.5989136379
 20
3.575178267
 30
0.0
 40
0.0799999999999997
  0
SPLINE
  5
8D
330
1F
100
AcDbEntity
  8
0
  6
Continuous
 62
     7
370
    25
100
AcDbSpline
210
0.0
220
0.0
230
1.0
 70
     8
 71
     3
 72
    51
 73
    47
 74
     0
 42
0.00000001
 43
0.00000001
 40
0.0
 40
0.0
 40
0.0
 40
0.0
 40
0.015625
 40
0.03125
 40
0.03125
 40
0.046875
 40
0.046875
 40
0.0624999999999999
 40
0.0624999999999999
 40
0.0937499999999999
 40
0.0937499999999999
 40
0.1249999999999999
 40
0.1249999999999999
 40
0.1562499999999999
 40
0.1562499999999999
 40
0.1874999999999999
 40
0.1874999999999999
 40
0.21875
 40
0.21875
 40
0.25
 40
0.25
 40
0.3125000000000001
 40
0.3125000000000001
 40
0.3750000000000001
 40
0.3750000000000001
 40
0.5000000000000002
 40
0.5000000000000002
 40
0.6250000000000003
 40
0.6250000000000003
 40
0.7500000000000004
 40
0.7500000000000004
 40
0.8125000000000002
 40
0.8125000000000002
 40
0.8750000000000001
 40
0.8750000000000001
 40
0.9062500000000001
 40
0.9062500000000001
 40
0.9375
 40
0.9375
 40
0.953125
 40
0.953125
 40
0.96875
 40
0.96875
 40
0.984375
 40
0.984375
 40
1.0
 40
1.0
 40
1.0
 40
1.0
 10
0.0200795028907276
 20
3.526418994821706
 30
0.0
 10
0.0433260907046238
 20
3.520905082622966
 30
0.0
 10
0.0898813663440155
 20
3.509972400812203
 30
0.0
 10
0.1409955929106549
 20
3.498172547006075
 30
0.0
 10
0.1940321516980339
 20
3.486021276255725
 30
0.0
 10
0.2214151223985449
 20
3.479792815310219
 30
0.0
 10
0.2757437279432694
 20
3.467541871686778
 30
0.0
 10
0.3026687358819939
 20
3.461524281513775
 30
0.0
 10
0.3814874540728677
 20
3.444085823896275
 30
0.0
 10
0.4313702205882345
 20
3.433292093656673
 30
0.0
 10
0.531524834176194
 20
3.41199952543713
 30
0.0
 10
0.5819431397527122
 20
3.40146594630446
 30
0.0
 10
0.6850431910906337
 20
3.380240189897219
 30
0.0
 10
0.7376791608815492
 20
3.369558868523599
 30
0.0
 10
0.8418918449145555
 20
3.348821294537652
 30
0.0
 10
0.8931527003143894
 20
3.338839948530613
 30
0.0
 10
0.9950949353786095
 20
3.319388869954071
 30
0.0
 10
1.046206861232421
 20
3.309817010974796
 30
0.0
 10
1.14958221715156
 20
3.290779683212255
 30
0.0
 10
1.20162012571738
 20
3.281367685269707
 30
0.0
 10
1.357272841029142
 20
3.253826194740077
 30
0.0
 10
1.460057904223797
 20
3.236475823647543
 30
0.0
 10
1.667128385657794
 20
3.203125926913135
 30
0.0
 10
1.771362847135366
 20
3.187138250928446
 30
0.0
 10
2.082699506089899
 20
3.142438697451893
 30
0.0
 10
2.291175918174722
 20
3.11626685752069
 30
0.0
 10
2.708814750409955
 20
3.074970370910894
 30
0.0
 10
2.918363097060366
 20
3.059700580477291
 30
0.0
 10
3.337934371534913
 20
3.046645203722447
 30
0.0
 10
3.548199560051438
 20
3.048616957391771
 30
0.0
 10
3.861977194316635
 20
3.074471890062002
 30
0.0
 10
3.966301041629521
 20
3.086956008229192
 30
0.0
 10
4.173048075814282
 20
3.123184976930315
 30
0.0
 10
4.275610754552985
 20
3.146767841719149
 30
0.0
 10
4.425158739808098
 20
3.195930530243758
 30
0.0
 10
4.474279777426154
 20
3.214643704947153
 30
0.0
 10
4.569541778416028
 20
3.258682012893344
 30
0.0
 10
4.615786645191012
 20
3.283975324681243
 30
0.0
 10
4.679991546593811
 20
3.329506781649025
 30
0.0
 10
4.700507801993499
 20
3.345970680347141
 30
0.0
 10
4.738567298412452
 20
3.382096078834248
 30
0.0
 10
4.756122181768889
 20
3.401778179688591
 30
0.0
 10
4.786173292075016
 20
3.444795865158012
 30
0.0
 10
4.798627004310028
 20
3.468180937519477
 30
0.0
 10
4.815676616403852
 20
3.51780682037624
 30
0.0
 10
4.820168629936491
 20
3.543975681391315
 30
0.0
 10
4.820241381640514
 20
3.570248946627763
 30
0.0
  0
SPLINE
  5
8F
330
1F
100
AcDbEntity
  8
0
  6
Continuous
 62
     7
370
    25
100
AcDbSpline
210
0.0
220
0.0
230
1.0
 70
     8
 71
     3
 72
    51
 73
    47
 74
     0
 42
0.00000001
 43
0.00000001
 40
0.0
 40
0.0
 40
0.0
 40
0.0
 40
0.0156250000000001
 40
0.0156250000000001
 40
0.0312500000000003
 40
0.0312500000000003
 40
0.0468750000000004
 40
0.0468750000000004
 40
0.0625000000000005
 40
0.0625000000000005
 40
0.0937500000000007
 40
0.0937500000000007
 40
0.1250000000000009
 40
0.1250000000000009
 40
0.1875000000000008
 40
0.1875000000000008
 40
0.2500000000000007
 40
0.2500000000000007
 40
0.3750000000000006
 40
0.3750000000000006
 40
0.5000000000000002
 40
0.5000000000000002
 40
0.6249999999999999
 40
0.6249999999999999
 40
0.6874999999999998
 40
0.6874999999999998
 40
0.7499999999999997
 40
0.7499999999999997
 40
0.7812499999999997
 40
0.7812499999999997
 40
0.8124999999999998
 40
0.8124999999999998
 40
0.8437499999999998
 40
0.8437499999999998
 40
0.8749999999999998
 40
0.8749999999999998
 40
0.9062499999999999
 40
0.9062499999999999
 40
0.9374999999999999
 40
0.9374999999999999
 40
0.9531249999999999
 40
0.9531249999999999
 40
0.96875
 40
0.96875
 40
0.984375
 40
1.0
 40
1.0
 40
1.0
 40
1.0
 10
4.820241381640514
 20
3.570248946627762
 30
0.0
 10
4.820251390877658
 20
3.596522310683599
 30
0.0
 10
4.815841831338711
 20
3.622705191676272
 30
0.0
 10
4.798948624975349
 20
3.67238453447211
 30
0.0
 10
4.786568637321396
 20
3.69580871991093
 30
0.0
 10
4.756653181479119
 20
3.738920852722059
 30
0.0
 10
4.739160383680545
 20
3.758658153674246
 30
0.0
 10
4.701214870806793
 20
3.794903260051034
 30
0.0
 10
4.680750578345404
 20
3.811431703112057
 30
0.0
 10
4.616689419212106
 20
3.857165179125256
 30
0.0
 10
4.570524455603418
 20
3.882604036396065
 30
0.0
 10
4.475401647556943
 20
3.926942200416602
 30
0.0
 10
4.426339799994141
 20
3.945810013164214
 30
0.0
 10
4.276947418766887
 20
3.995443532766209
 30
0.0
 10
4.174459534705851
 20
4.019349352191575
 30
0.0
 10
3.967827647210628
 20
4.056229392694588
 30
0.0
 10
3.863543642347838
 20
4.069042068229079
 30
0.0
 10
3.549849007643979
 20
4.095885269723307
 30
0.0
 10
3.339591073311691
 20
4.098519347311369
 30
0.0
 10
2.919980756095184
 20
4.086785681563933
 30
0.0
 10
2.710385349343361
 20
4.072176042542186
 30
0.0
 10
2.292618505503476
 20
4.032195319872706
 30
0.0
 10
2.084060686628369
 20
4.006680308855511
 30
0.0
 10
1.772584769044782
 20
3.962961685187376
 30
0.0
 10
1.668300463644709
 20
3.947302426260645
 30
0.0
 10
1.461125957622432
 20
3.914604965381722
 30
0.0
 10
1.358286750835523
 20
3.897578452514531
 30
0.0
 10
1.202548052273887
 20
3.870527403461938
 30
0.0
 10
1.150480754160516
 20
3.861279371219971
 30
0.0
 10
1.047045943677369
 20
3.842567769469635
 30
0.0
 10
0.9959041201209674
 20
3.83315696014574
 30
0.0
 10
0.8939011200708544
 20
3.814027095314626
 30
0.0
 10
0.8426090778263663
 20
3.804207270121437
 30
0.0
 10
0.7383315876212184
 20
3.783798068160041
 30
0.0
 10
0.6856622328909854
 20
3.773282602672607
 30
0.0
 10
0.5824958320900755
 20
3.752381715927602
 30
0.0
 10
0.5320445959587857
 20
3.74200700632318
 30
0.0
 10
0.4318234078381327
 20
3.721030029991448
 30
0.0
 10
0.3819068886371006
 20
3.710393483626909
 30
0.0
 10
0.3030336304793674
 20
3.693203390872251
 30
0.0
 10
0.2760898007599741
 20
3.687270644118593
 30
0.0
 10
0.2217228743756731
 20
3.675190895958005
 30
0.0
 10
0.1943204199252709
 20
3.669048722057142
 30
0.0
 10
0.1412458478569356
 20
3.657064576337951
 30
0.0
 10
0.0900947054328215
 20
3.645425790488048
 30
0.0
 10
0.043505222902929
 20
3.634639811671456
 30
0.0
 10
0.0202413816405345
 20
3.629199153398537
 30
0.0
  0
CIRCLE
  5
90
330
1F
100
AcDbEntity
  8
0
  6
Continuous
 62
     7
370
    25
100
AcDbCircle
 10
4.0903288365
 20
1.1737027437
 30
0.0
 40
0.1499999999999995
  0
CIRCLE
  5
91
330
1F
100
AcDbEntity
  8
0
  6
Continuous
 62
     7
370
    25
100
AcDbCircle
 10
2.3303288365
 20
1.1757579273
 30
0.0
 40
0.1500000000000008
  0
CIRCLE
  5
92
330
1F
100
AcDbEntity
  8
0
  6
Continuous
 62
     7
370
    25
100
AcDbCircle
 10
1.6290010928
 20
1.1765768804
 30
0.0
 40
0.2400000000000004
  0
CIRCLE
  5
93
330
1F
100
AcDbEntity
  8
0
  6
Continuous
 62
     7
370
    25
100
AcDbCircle
 10
1.0690010928
 20
1.1772308025
 30
0.0
 40
0.1799999999999996
  0
CIRCLE
  5
94
330
1F
100
AcDbEntity
  8
0
  6
Continuous
 62
     7
370
    25
100
AcDbCircle
 10
3.2103288365
 20
1.1747303355
 30
0.0
 40
0.4000000000000008
  0
CIRCLE
  5
95
330
1F
100
AcDbEntity
  8
0
  6
Continuous
 62
     7
370
    25
100
AcDbCircle
 10
0.6690010928
 20
1.1776978897
 30
0.0
 40
0.08
  0
SPLINE
  5
96
330
1F
100
AcDbEntity
  8
0
  6
Continuous
 62
     7
370
    25
100
AcDbSpline
210
0.0
220
0.0
230
1.0
 70
     8
 71
     3
 72
    51
 73
    47
 74
     0
 42
0.00000001
 43
0.00000001
 40
0.0
 40
0.0
 40
0.0
 40
0.0
 40
0.015625
 40
0.0312500000000001
 40
0.0312500000000001
 40
0.0468750000000001
 40
0.0468750000000001
 40
0.0625000000000001
 40
0.0625000000000001
 40
0.0937500000000002
 40
0.0937500000000002
 40
0.1250000000000003
 40
0.1250000000000003
 40
0.1562500000000003
 40
0.1562500000000003
 40
0.1875000000000004
 40
0.1875000000000004
 40
0.2187500000000005
 40
0.2187500000000005
 40
0.2500000000000006
 40
0.2500000000000006
 40
0.3125000000000006
 40
0.3125000000000006
 40
0.3750000000000006
 40
0.3750000000000006
 40
0.5000000000000007
 40
0.5000000000000007
 40
0.6250000000000008
 40
0.6250000000000008
 40
0.7500000000000009
 40
0.7500000000000009
 40
0.8125000000000007
 40
0.8125000000000007
 40
0.8750000000000004
 40
0.8750000000000004
 40
0.9062500000000004
 40
0.9062500000000004
 40
0.9375000000000004
 40
0.9375000000000004
 40
0.9531250000000003
 40
0.9531250000000003
 40
0.9687500000000002
 40
0.9687500000000002
 40
0.9843750000000002
 40
0.9843750000000002
 40
1.0
 40
1.0
 40
1.0
 40
1.0
 10
0.0901669577893553
 20
1.128938617454433
 30
0.0
 10
0.1134135456032515
 20
1.123424705255692
 30
0.0
 10
0.1599688212426432
 20
1.11249202344493
 30
0.0
 10
0.2110830478092827
 20
1.100692169638803
 30
0.0
 10
0.2641196065966616
 20
1.088540898888452
 30
0.0
 10
0.2915025772971723
 20
1.082312437942945
 30
0.0
 10
0.3458311828418971
 20
1.070061494319504
 30
0.0
 10
0.3727561907806213
 20
1.064043904146502
 30
0.0
 10
0.451574908971495
 20
1.046605446529002
 30
0.0
 10
0.5014576754868623
 20
1.0358117162894
 30
0.0
 10
0.6016122890748213
 20
1.014519148069858
 30
0.0
 10
0.6520305946513396
 20
1.003985568937186
 30
0.0
 10
0.7551306459892622
 20
0.9827598125299437
 30
0.0
 10
0.8077666157801773
 20
0.9720784911563258
 30
0.0
 10
0.9119792998131833
 20
0.9513409171703804
 30
0.0
 10
0.963240155213017
 20
0.9413595711633395
 30
0.0
 10
1.065182390277237
 20
0.9219084925868003
 30
0.0
 10
1.116294316131048
 20
0.9123366336075224
 30
0.0
 10
1.219669672050187
 20
0.8932993058449835
 30
0.0
 10
1.271707580616008
 20
0.8838873079024346
 30
0.0
 10
1.427360295927769
 20
0.8563458173728035
 30
0.0
 10
1.530145359122424
 20
0.8389954462802711
 30
0.0
 10
1.737215840556422
 20
0.8056455495458602
 30
0.0
 10
1.841450302033993
 20
0.7896578735611719
 30
0.0
 10
2.152786960988527
 20
0.744958320084621
 30
0.0
 10
2.361263373073351
 20
0.7187864801534188
 30
0.0
 10
2.778902205308584
 20
0.6774899935436216
 30
0.0
 10
2.988450551958993
 20
0.6622202031100186
 30
0.0
 10
3.40802182643354
 20
0.6491648263551753
 30
0.0
 10
3.618287014950064
 20
0.6511365800244994
 30
0.0
 10
3.932064649215262
 20
0.6769915126947288
 30
0.0
 10
4.036388496528147
 20
0.6894756308619194
 30
0.0
 10
4.243135530712911
 20
0.7257045995630436
 30
0.0
 10
4.345698209451616
 20
0.7492874643518777
 30
0.0
 10
4.495246194706723
 20
0.7984501528764849
 30
0.0
 10
4.54436723232478
 20
0.8171633275798826
 30
0.0
 10
4.63962923331466
 20
0.8612016355260697
 30
0.0
 10
4.68587410008964
 20
0.8864949473139712
 30
0.0
 10
4.750079001492442
 20
0.9320264042817508
 30
0.0
 10
4.770595256892123
 20
0.948490302979868
 30
0.0
 10
4.80865475331108
 20
0.9846157014669745
 30
0.0
 10
4.826209636667521
 20
1.00429780232132
 30
0.0
 10
4.856260746973642
 20
1.047315487790734
 30
0.0
 10
4.868714459208658
 20
1.070700560152207
 30
0.0
 10
4.885764071302481
 20
1.120326443008963
 30
0.0
 10
4.890256084835121
 20
1.146495304024042
 30
0.0
 10
4.890328836539142
 20
1.17276856926049
 30
0.0
  0
SPLINE
  5
98
330
1F
100
AcDbEntity
  8
0
  6
Continuous
 62
     7
370
    25
100
AcDbSpline
210
0.0
220
0.0
230
1.0
 70
     8
 71
     3
 72
    51
 73
    47
 74
     0
 42
0.00000001
 43
0.00000001
 40
0.0
 40
0.0
 40
0.0
 40
0.0
 40
0.015625
 40
0.015625
 40
0.0312500000000001
 40
0.0312500000000001
 40
0.0468750000000001
 40
0.0468750000000001
 40
0.0625000000000002
 40
0.0625000000000002
 40
0.09375
 40
0.09375
 40
0.1249999999999997
 40
0.1249999999999997
 40
0.1874999999999996
 40
0.1874999999999996
 40
0.2499999999999996
 40
0.2499999999999996
 40
0.3749999999999998
 40
0.3749999999999998
 40
0.4999999999999999
 40
0.4999999999999999
 40
0.6249999999999999
 40
0.6249999999999999
 40
0.6875
 40
0.6875
 40
0.75
 40
0.75
 40
0.78125
 40
0.78125
 40
0.8125
 40
0.8125
 40
0.84375
 40
0.84375
 40
0.8749999999999999
 40
0.8749999999999999
 40
0.9062499999999999
 40
0.9062499999999999
 40
0.9374999999999999
 40
0.9374999999999999
 40
0.953125
 40
0.953125
 40
0.96875
 40
0.96875
 40
0.9843750000000001
 40
1.0
 40
1.0
 40
1.0
 40
1.0
 10
4.890328836539142
 20
1.17276856926049
 30
0.0
 10
4.890338845776283
 20
1.199041933316325
 30
0.0
 10
4.885929286237338
 20
1.225224814308996
 30
0.0
 10
4.869036079873975
 20
1.274904157104842
 30
0.0
 10
4.856656092220021
 20
1.298328342543655
 30
0.0
 10
4.82674063637775
 20
1.341440475354788
 30
0.0
 10
4.809247838579173
 20
1.361177776306973
 30
0.0
 10
4.771302325705425
 20
1.39742288268376
 30
0.0
 10
4.750838033244033
 20
1.413951325744783
 30
0.0
 10
4.686776874110733
 20
1.459684801757984
 30
0.0
 10
4.640611910502047
 20
1.485123659028794
 30
0.0
 10
4.545489102455569
 20
1.529461823049326
 30
0.0
 10
4.496427254892768
 20
1.548329635796942
 30
0.0
 10
4.347034873665513
 20
1.597963155398936
 30
0.0
 10
4.244546989604475
 20
1.621868974824302
 30
0.0
 10
4.037915102109257
 20
1.658749015327315
 30
0.0
 10
3.933631097246465
 20
1.671561690861807
 30
0.0
 10
3.61993646254261
 20
1.698404892356034
 30
0.0
 10
3.409678528210321
 20
1.701038969944095
 30
0.0
 10
2.990068210993813
 20
1.689305304196662
 30
0.0
 10
2.780472804241992
 20
1.674695665174917
 30
0.0
 10
2.362705960402102
 20
1.63471494250543
 30
0.0
 10
2.154148141526997
 20
1.609199931488239
 30
0.0
 10
1.84267222394341
 20
1.565481307820103
 30
0.0
 10
1.738387918543336
 20
1.549822048893373
 30
0.0
 10
1.53121341252106
 20
1.517124588014449
 30
0.0
 10
1.428374205734151
 20
1.50009807514726
 30
0.0
 10
1.272635507172515
 20
1.473047026094664
 30
0.0
 10
1.220568209059144
 20
1.463798993852697
 30
0.0
 10
1.117133398575997
 20
1.445087392102364
 30
0.0
 10
1.065991575019596
 20
1.435676582778468
 30
0.0
 10
0.9639885749694815
 20
1.416546717947354
 30
0.0
 10
0.9126965327249942
 20
1.406726892754164
 30
0.0
 10
0.8084190425198469
 20
1.386317690792769
 30
0.0
 10
0.7557496877896132
 20
1.375802225305333
 30
0.0
 10
0.6525832869887036
 20
1.354901338560332
 30
0.0
 10
0.6021320508574131
 20
1.34452662895591
 30
0.0
 10
0.5019108627367603
 20
1.323549652624177
 30
0.0
 10
0.451994343535728
 20
1.312913106259636
 30
0.0
 10
0.3731210853779955
 20
1.29572301350498
 30
0.0
 10
0.3461772556586019
 20
1.289790266751321
 30
0.0
 10
0.2918103292743005
 20
1.277710518590732
 30
0.0
 10
0.2644078748238986
 20
1.27156834468987
 30
0.0
 10
0.2113333027555633
 20
1.25958419897068
 30
0.0
 10
0.1601821603314485
 20
1.247945413120773
 30
0.0
 10
0.1135926778015568
 20
1.237159434304184
 30
0.0
 10
0.0903288365391611
 20
1.231718776031265
 30
0.0
  0
CIRCLE
  5
99
330
1F
100
AcDbEntity
  8
0
  6
Continuous
 62
     7
370
    25
100
AcDbCircle
 10
4.2353135246
 20
2.39636271
 30
0.0
 40
0.080000000000001
  0
CIRCLE
  5
9A
330
1F
100
AcDbEntity
  8
0
  6
Continuous
 62
     7
370
    25
100
AcDbCircle
 10
1.6939857809
 20
2.3933951558
 30
0.0
 40
0.3999999999999997
  0
CIRCLE
  5
9B
330
1F
100
AcDbEntity
  8
0
  6
Continuous
 62
     7
370
    25
100
AcDbCircle
 10
3.8353135246
 20
2.3958956228
 30
0.0
 40
0.180000000000001
  0
CIRCLE
  5
9C
330
1F
100
AcDbEntity
  8
0
  6
Continuous
 62
     7
370
    25
100
AcDbCircle
 10
3.2753135246
 20
2.3952417007
 30
0.0
 40
0.2400000000000011
  0
CIRCLE
  5
9D
330
1F
100
AcDbEntity
  8
0
  6
Continuous
 62
     7
370
    25
100
AcDbCircle
 10
2.5739857809
 20
2.3944227477
 30
0.0
 40
0.1499999999999995
  0
CIRCLE
  5
9E
330
1F
100
AcDbEntity
  8
0
  6
Continuous
 62
     7
370
    25
100
AcDbCircle
 10
0.8139857809
 20
2.392367564
 30
0.0
 40
0.15
  0
SPLINE
  5
9F
330
1F
100
AcDbEntity
  8
0
  6
Continuous
 62
     7
370
    25
100
AcDbSpline
210
0.0
220
0.0
230
1.0
 70
     8
 71
     3
 72
    51
 73
    47
 74
     0
 42
0.00000001
 43
0.00000001
 40
0.0
 40
0.0
 40
0.0
 40
0.0
 40
0.015625
 40
0.0312499999999999
 40
0.0312499999999999
 40
0.0468749999999999
 40
0.0468749999999999
 40
0.0624999999999998
 40
0.0624999999999998
 40
0.0937499999999997
 40
0.0937499999999997
 40
0.1249999999999995
 40
0.1249999999999995
 40
0.1562499999999994
 40
0.1562499999999994
 40
0.1874999999999992
 40
0.1874999999999992
 40
0.2187499999999991
 40
0.2187499999999991
 40
0.2499999999999989
 40
0.2499999999999989
 40
0.312499999999999
 40
0.312499999999999
 40
0.3749999999999992
 40
0.3749999999999992
 40
0.4999999999999993
 40
0.4999999999999993
 40
0.6249999999999994
 40
0.6249999999999994
 40
0.7499999999999997
 40
0.7499999999999997
 40
0.8124999999999998
 40
0.8124999999999998
 40
0.8749999999999999
 40
0.8749999999999999
 40
0.9062500000000001
 40
0.9062500000000001
 40
0.9375000000000002
 40
0.9375000000000002
 40
0.9531250000000001
 40
0.9531250000000001
 40
0.9687500000000001
 40
0.9687500000000001
 40
0.984375
 40
0.984375
 40
1.0
 40
1.0
 40
1.0
 40
1.0
 10
4.813985780914636
 20
2.450383596354271
 30
0.0
 10
4.790721939652247
 20
2.455824254627214
 30
0.0
 10
4.744132457122363
 20
2.46661023344385
 30
0.0
 10
4.692981314698261
 20
2.478249019293807
 30
0.0
 10
4.639906742629933
 20
2.49023316501305
 30
0.0
 10
4.612504288179537
 20
2.496375338913939
 30
0.0
 10
4.558137361795248
 20
2.508455087074582
 30
0.0
 10
4.531193532075861
 20
2.514387833828268
 30
0.0
 10
4.452320273918144
 20
2.531577926583003
 30
0.0
 10
4.402403754717121
 20
2.542214472947595
 30
0.0
 10
4.302182566596491
 20
2.563191449279427
 30
0.0
 10
4.251731330465212
 20
2.5735661588839
 30
0.0
 10
4.148564929664323
 20
2.594467045629005
 30
0.0
 10
4.095895574934103
 20
2.604982511116493
 30
0.0
 10
3.991618084728975
 20
2.625391713077992
 30
0.0
 10
3.940326042484497
 20
2.635211538271234
 30
0.0
 10
3.838323042434407
 20
2.654341403102449
 30
0.0
 10
3.787181218878012
 20
2.663752212426396
 30
0.0
 10
3.683746408394885
 20
2.682463814176833
 30
0.0
 10
3.631679110281522
 20
2.691711846418853
 30
0.0
 10
3.475940411719912
 20
2.718762895471603
 30
0.0
 10
3.37310120493302
 20
2.735789408338895
 30
0.0
 10
3.165926698910778
 20
2.768486869218021
 30
0.0
 10
3.06164239351072
 20
2.784146128144859
 30
0.0
 10
2.75016647592718
 20
2.827864751813304
 30
0.0
 10
2.5416086570521
 20
2.853379762830706
 30
0.0
 10
2.123841813212257
 20
2.893360485500607
 30
0.0
 10
1.914246406460448
 20
2.907970124522563
 30
0.0
 10
1.494636089243954
 20
2.91970379027041
 30
0.0
 10
1.284378154911662
 20
2.917069712682562
 30
0.0
 10
0.970683520207778
 20
2.890226511188647
 30
0.0
 10
0.8663995153449757
 20
2.87741383565426
 30
0.0
 10
0.6597676278497157
 20
2.840533795151454
 30
0.0
 10
0.5572797437886554
 20
2.816627975726194
 30
0.0
 10
0.4078873625613519
 20
2.766994456124351
 30
0.0
 10
0.3588255149985332
 20
2.748126643376783
 30
0.0
 10
0.2637027069520119
 20
2.703788479356339
 30
0.0
 10
0.2175377433433007
 20
2.678349622085573
 30
0.0
 10
0.1534765842099529
 20
2.632616146072438
 30
0.0
 10
0.1330122917485473
 20
2.616087703011436
 30
0.0
 10
0.0950667788747583
 20
2.579842596634693
 30
0.0
 10
0.0775739810761653
 20
2.560105295682523
 30
0.0
 10
0.0476585252338482
 20
2.516993162871422
 30
0.0
 10
0.0352785375798696
 20
2.493568977432615
 30
0.0
 10
0.018385331216457
 20
2.443889634636791
 30
0.0
 10
0.0139757716774897
 20
2.417706753644124
 30
0.0
 10
0.0139857809146018
 20
2.391433389588288
 30
0.0
  0
SPLINE
  5
A1
330
1F
100
AcDbEntity
  8
0
  6
Continuous
 62
     7
370
    25
100
AcDbSpline
210
0.0
220
0.0
230
1.0
 70
     8
 71
     3
 72
    51
 73
    47
 74
     0
 42
0.00000001
 43
0.00000001
 40
0.0
 40
0.0
 40
0.0
 40
0.0
 40
0.015625
 40
0.015625
 40
0.03125
 40
0.03125
 40
0.046875
 40
0.046875
 40
0.0625
 40
0.0625
 40
0.09375
 40
0.09375
 40
0.125
 40
0.125
 40
0.1875
 40
0.1875
 40
0.2499999999999999
 40
0.2499999999999999
 40
0.3749999999999999
 40
0.3749999999999999
 40
0.5
 40
0.5
 40
0.625
 40
0.625
 40
0.6875000000000002
 40
0.6875000000000002
 40
0.7500000000000003
 40
0.7500000000000003
 40
0.7812500000000002
 40
0.7812500000000002
 40
0.8125000000000001
 40
0.8125000000000001
 40
0.84375
 40
0.84375
 40
0.8749999999999999
 40
0.8749999999999999
 40
0.9062499999999998
 40
0.9062499999999998
 40
0.9374999999999996
 40
0.9374999999999996
 40
0.9531249999999997
 40
0.9531249999999997
 40
0.9687499999999998
 40
0.9687499999999998
 40
0.9843749999999999
 40
1.0
 40
1.0
 40
1.0
 40
1.0
 10
0.0139857809146018
 20
2.391433389588288
 30
0.0
 10
0.0140585326186042
 20
2.36516012435184
 30
0.0
 10
0.0185505461512088
 20
2.338991263336754
 30
0.0
 10
0.0356001582449833
 20
2.289365380479985
 30
0.0
 10
0.0480538704799763
 20
2.265980308118496
 30
0.0
 10
0.0781049807860507
 20
2.222962622649053
 30
0.0
 10
0.0956598641424722
 20
2.20328052179469
 30
0.0
 10
0.1337193605613921
 20
2.167155123307544
 30
0.0
 10
0.1542356159610545
 20
2.150691224609405
 30
0.0
 10
0.2184405173638083
 20
2.105159767641563
 30
0.0
 10
0.2646853841387659
 20
2.079866455853611
 30
0.0
 10
0.3599473851285981
 20
2.035828147907328
 30
0.0
 10
0.4090684227466366
 20
2.017114973203878
 30
0.0
 10
0.5586164080016973
 20
1.96795228467912
 30
0.0
 10
0.6611790867403753
 20
1.94436941989018
 30
0.0
 10
0.8679261209251002
 20
1.908140451188844
 30
0.0
 10
0.9722499682379738
 20
1.895656333021547
 30
0.0
 10
1.286027602503145
 20
1.869801400350997
 30
0.0
 10
1.496292791019668
 20
1.86782964668146
 30
0.0
 10
1.915864065494233
 20
1.880885023435873
 30
0.0
 10
2.125412412144666
 20
1.896154813869261
 30
0.0
 10
2.543051244379932
 20
1.93745130047863
 30
0.0
 10
2.751527656464786
 20
1.963623140409622
 30
0.0
 10
3.062864315419361
 20
2.008322693885855
 30
0.0
 10
3.167098776896954
 20
2.024310369870438
 30
0.0
 10
3.374169258330979
 20
2.057660266604633
 30
0.0
 10
3.476954321525651
 20
2.075010637697062
 30
0.0
 10
3.632607036837438
 20
2.102552128226534
 30
0.0
 10
3.684644945403268
 20
2.111964126169029
 30
0.0
 10
3.788020301322427
 20
2.131001453931462
 30
0.0
 10
3.839132227176249
 20
2.140573312910688
 30
0.0
 10
3.941074462240489
 20
2.160024391487123
 30
0.0
 10
3.992335317640333
 20
2.170005737494112
 30
0.0
 10
4.096548001673361
 20
2.190743311479951
 30
0.0
 10
4.149183971464289
 20
2.201424632853516
 30
0.0
 10
4.252284022802232
 20
2.222650389260652
 30
0.0
 10
4.302702328378762
 20
2.233183968393272
 30
0.0
 10
4.402856941966741
 20
2.25447653661271
 30
0.0
 10
4.452739708482121
 20
2.265270266852264
 30
0.0
 10
4.531558426673013
 20
2.282708724469682
 30
0.0
 10
4.558483434611745
 20
2.288726314642656
 30
0.0
 10
4.61281204015648
 20
2.300977258266042
 30
0.0
 10
4.640195010856997
 20
2.30720571921152
 30
0.0
 10
4.693231569644386
 20
2.319356989961816
 30
0.0
 10
4.744345796211038
 20
2.331156843767894
 30
0.0
 10
4.790901071850445
 20
2.34208952557861
 30
0.0
 10
4.814147659664348
 20
2.347603437777325
 30
0.0
  0
CIRCLE
  5
A2
330
1F
100
AcDbEntity
  8
0
  6
Continuous
 62
     7
370
    25
100
AcDbCircle
 10
4.2535963788
 20
-0.0001649487
 30
0.0
 40
0.080000000000001
  0
CIRCLE
  5
A3
330
1F
100
AcDbEntity
  8
0
  6
Continuous
 62
     7
370
    25
100
AcDbCircle
 10
1.7122686351
 20
-0.0031325029
 30
0.0
 40
0.4000000000000006
  0
CIRCLE
  5
A4
330
1F
100
AcDbEntity
  8
0
  6
Continuous
 62
     7
370
    25
100
AcDbCircle
 10
3.8535963788
 20
-0.0006320359
 30
0.0
 40
0.180000000000001
  0
CIRCLE
  5
A5
330
1F
100
AcDbEntity
  8
0
  6
Continuous
 62
     7
370
    25
100
AcDbCircle
 10
3.2935963788
 20
-0.001285958
 30
0.0
 40
0.2400000000000007
  0
CIRCLE
  5
A6
330
1F
100
AcDbEntity
  8
0
  6
Continuous
 62
     7
370
    25
100
AcDbCircle
 10
2.5922686351
 20
-0.0021049111
 30
0.0
 40
0.1500000000000008
  0
CIRCLE
  5
A7
330
1F
100
AcDbEntity
  8
0
  6
Continuous
 62
     7
370
    25
100
AcDbCircle
 10
0.8322686351
 20
-0.0041600947
 30
0.0
 40
0.1500000000000005
  0
SPLINE
  5
A8
330
1F
100
AcDbEntity
  8
0
  6
Continuous
 62
     7
370
    25
100
AcDbSpline
210
0.0
220
0.0
230
1.0
 70
     8
 71
     3
 72
    51
 73
    47
 74
     0
 42
0.00000001
 43
0.00000001
 40
0.0
 40
0.0
 40
0.0
 40
0.0
 40
0.015625
 40
0.03125
 40
0.03125
 40
0.046875
 40
0.046875
 40
0.0624999999999999
 40
0.0624999999999999
 40
0.0937499999999999
 40
0.0937499999999999
 40
0.1249999999999999
 40
0.1249999999999999
 40
0.1562499999999999
 40
0.1562499999999999
 40
0.1874999999999998
 40
0.1874999999999998
 40
0.2187499999999998
 40
0.2187499999999998
 40
0.2499999999999998
 40
0.2499999999999998
 40
0.3124999999999997
 40
0.3124999999999997
 40
0.3749999999999997
 40
0.3749999999999997
 40
0.4999999999999998
 40
0.4999999999999998
 40
0.6249999999999999
 40
0.6249999999999999
 40
0.75
 40
0.75
 40
0.8125
 40
0.8125
 40
0.8750000000000001
 40
0.8750000000000001
 40
0.9062500000000001
 40
0.9062500000000001
 40
0.9375
 40
0.9375
 40
0.953125
 40
0.953125
 40
0.96875
 40
0.96875
 40
0.984375
 40
0.984375
 40
1.0
 40
1.0
 40
1.0
 40
1.0
 10
4.832268635099041
 20
0.0538559376282971
 30
0.0
 10
4.809004793836641
 20
0.0592965959012183
 30
0.0
 10
4.762415311306743
 20
0.0700825747178127
 30
0.0
 10
4.711264168882625
 20
0.0817213605677228
 30
0.0
 10
4.658189596814289
 20
0.0937055062869167
 30
0.0
 10
4.630787142363882
 20
0.0998476801877798
 30
0.0
 10
4.576420215979578
 20
0.1119274283483726
 30
0.0
 10
4.549476386260184
 20
0.1178601751020331
 30
0.0
 10
4.470603128102446
 20
0.1350502678566956
 30
0.0
 10
4.420686608901412
 20
0.1456868142212395
 30
0.0
 10
4.320465420780756
 20
0.1666637905529775
 30
0.0
 10
4.270014184649466
 20
0.1770385001574025
 30
0.0
 10
4.166847783848556
 20
0.1979393869024092
 30
0.0
 10
4.114178429118323
 20
0.2084548523898472
 30
0.0
 10
4.009900938913179
 20
0.2288640543512487
 30
0.0
 10
3.958608896668693
 20
0.2386838795444414
 30
0.0
 10
3.856605896618583
 20
0.2578137443755603
 30
0.0
 10
3.805464073062181
 20
0.2672245536994591
 30
0.0
 10
3.702029262579038
 20
0.2859361554497966
 30
0.0
 10
3.649961964465664
 20
0.295184187691766
 30
0.0
 10
3.494223265904029
 20
0.3222352367443698
 30
0.0
 10
3.391384059117121
 20
0.3392617496115642
 30
0.0
 10
3.18420955309485
 20
0.3719592104904967
 30
0.0
 10
3.079925247694774
 20
0.3876184694172349
 30
0.0
 10
2.768449330111193
 20
0.4313370930853877
 30
0.0
 10
2.559891511236092
 20
0.4568521041025883
 30
0.0
 10
2.142124667396205
 20
0.4968328267720957
 30
0.0
 10
1.932529260644385
 20
0.5114424657938509
 30
0.0
 10
1.512918943427882
 20
0.5231761315413037
 30
0.0
 10
1.30266100909559
 20
0.5205420539532553
 30
0.0
 10
0.9889663743917323
 20
0.4936988524590444
 30
0.0
 10
0.884682369528941
 20
0.4808861769245588
 30
0.0
 10
0.6780504820337183
 20
0.4440061364215563
 30
0.0
 10
0.575562597972679
 20
0.4201003169961963
 30
0.0
 10
0.426170216745423
 20
0.3704667973942088
 30
0.0
 10
0.3771083691826219
 20
0.3515989846465943
 30
0.0
 10
0.2819855611361433
 20
0.3072608206260652
 30
0.0
 10
0.2358205975274554
 20
0.2818219633552568
 30
0.0
 10
0.1717594383941513
 20
0.2360884873420607
 30
0.0
 10
0.1512951459327613
 20
0.2195600442810385
 30
0.0
 10
0.1133496330590063
 20
0.1833149379042533
 30
0.0
 10
0.0958568352604321
 20
0.1635776369520704
 30
0.0
 10
0.0659413794181555
 20
0.1204655041409396
 30
0.0
 10
0.0535613917641998
 20
0.0970413187021242
 30
0.0
 10
0.0366681854008337
 20
0.0473619759062807
 30
0.0
 10
0.0322586258618907
 20
0.0211790949136106
 30
0.0
 10
0.0322686350990285
 20
-0.0050942691422251
 30
0.0
  0
SPLINE
  5
AA
330
1F
100
AcDbEntity
  8
0
  6
Continuous
 62
     7
370
    25
100
AcDbSpline
210
0.0
220
0.0
230
1.0
 70
     8
 71
     3
 72
    51
 73
    47
 74
     0
 42
0.00000001
 43
0.00000001
 40
0.0
 40
0.0
 40
0.0
 40
0.0
 40
0.015625
 40
0.015625
 40
0.03125
 40
0.03125
 40
0.0468750000000001
 40
0.0468750000000001
 40
0.0625000000000001
 40
0.0625000000000001
 40
0.0937500000000002
 40
0.0937500000000002
 40
0.1250000000000002
 40
0.1250000000000002
 40
0.1875000000000003
 40
0.1875000000000003
 40
0.2500000000000003
 40
0.2500000000000003
 40
0.3750000000000004
 40
0.3750000000000004
 40
0.5000000000000006
 40
0.5000000000000006
 40
0.6250000000000007
 40
0.6250000000000007
 40
0.6875000000000008
 40
0.6875000000000008
 40
0.7500000000000008
 40
0.7500000000000008
 40
0.7812500000000008
 40
0.7812500000000008
 40
0.8125000000000009
 40
0.8125000000000009
 40
0.8437500000000009
 40
0.8437500000000009
 40
0.8750000000000009
 40
0.8750000000000009
 40
0.9062500000000009
 40
0.9062500000000009
 40
0.937500000000001
 40
0.937500000000001
 40
0.9531250000000008
 40
0.9531250000000008
 40
0.9687500000000006
 40
0.9687500000000006
 40
0.9843750000000003
 40
1.0
 40
1.0
 40
1.0
 40
1.0
 10
0.032268635099043
 20
-0.0050942691422251
 30
0.0
 10
0.0323413868030732
 20
-0.0313675343786714
 30
0.0
 10
0.0368334003357059
 20
-0.0575363953937529
 30
0.0
 10
0.0538830124295342
 20
-0.1071622782505055
 30
0.0
 10
0.0663367246645525
 20
-0.1305473506119793
 30
0.0
 10
0.0963878349706723
 20
-0.1735650360813905
 30
0.0
 10
0.113942718327115
 20
-0.1932471369357341
 30
0.0
 10
0.1520022147460734
 20
-0.22937253542284
 30
0.0
 10
0.1725184701457539
 20
-0.2458364341209565
 30
0.0
 10
0.2367233715485567
 20
-0.2913678910887334
 30
0.0
 10
0.2829682383235416
 20
-0.3166612028766315
 30
0.0
 10
0.378230239313421
 20
-0.3606995108228144
 30
0.0
 10
0.4273512769314796
 20
-0.3794126855262099
 30
0.0
 10
0.5768992621865924
 20
-0.4285753740508089
 30
0.0
 10
0.6794619409252963
 20
-0.4521582388396381
 30
0.0
 10
0.8862089751100598
 20
-0.4883872075407518
 30
0.0
 10
0.9905328224229466
 20
-0.5008713257079377
 30
0.0
 10
1.304310456688146
 20
-0.5267262583781505
 30
0.0
 10
1.514575645204669
 20
-0.5286980120474634
 30
0.0
 10
1.934146919679223
 20
-0.5156426352925986
 30
0.0
 10
2.143695266329639
 20
-0.5003728448589866
 30
0.0
 10
2.561334098564858
 20
-0.4590763582491698
 30
0.0
 10
2.769810510649686
 20
-0.4329045183179558
 30
0.0
 10
3.081147169604216
 20
-0.3882049648413877
 30
0.0
 10
3.185381631081786
 20
-0.3722172888566945
 30
0.0
 10
3.392452112515781
 20
-0.3388673921222732
 30
0.0
 10
3.495237175710431
 20
-0.3215170210297352
 30
0.0
 10
3.65088989102219
 20
-0.2939755305000964
 30
0.0
 10
3.70292779958801
 20
-0.2845635325575455
 30
0.0
 10
3.80630315550715
 20
-0.2655262047950011
 30
0.0
 10
3.857415081360959
 20
-0.2559543458157204
 30
0.0
 10
3.959357316425177
 20
-0.2365032672391756
 30
0.0
 10
4.010618171825012
 20
-0.2265219212321319
 30
0.0
 10
4.114830855858018
 20
-0.2057843472461816
 30
0.0
 10
4.167466825648932
 20
-0.195103025872561
 30
0.0
 10
4.270566876986853
 20
-0.173877269465314
 30
0.0
 10
4.320985182563372
 20
-0.1633436903326402
 30
0.0
 10
4.421139796151328
 20
-0.1420511221130925
 30
0.0
 10
4.471022562666699
 20
-0.1312573918734877
 30
0.0
 10
4.549841280857572
 20
-0.1138189342559839
 30
0.0
 10
4.576766288796295
 20
-0.1078013440829813
 30
0.0
 10
4.631094894341022
 20
-0.0955504004595369
 30
0.0
 10
4.658477865041529
 20
-0.0893219395140296
 30
0.0
 10
4.711514423828908
 20
-0.0771706687636757
 30
0.0
 10
4.762628650395546
 20
-0.0653708149575445
 30
0.0
 10
4.809183926034938
 20
-0.0544381331467794
 30
0.0
 10
4.832430513848837
 20
-0.0489242209480378
 30
0.0
  0
LINE
  5
AB
330
1F
100
AcDbEntity
  8
0
  6
Continuous
 62
     7
370
    25
100
AcDbLine
 10
-0.016032624
 20
8.2950177522
 30
0.0
 11
-0.0161945028
 21
8.1922375936
 31
0.0
  0
LINE
  5
AC
330
1F
100
AcDbEntity
  8
0
  6
Continuous
 62
     7
370
    25
100
AcDbLine
 10
4.777873654
 20
7.0134220366
 30
0.0
 11
4.7777117752
 21
7.1162021952
 31
0.0
  0
LINE
  5
AD
330
1F
100
AcDbEntity
  8
0
  6
Continuous
 62
     7
370
    25
100
AcDbLine
 10
0.02474099
 20
5.9563433227
 30
0.0
 11
0.0245791113
 21
5.8535631641
 31
0.0
  0
LINE
  5
AE
330
1F
100
AcDbEntity
  8
0
  6
Continuous
 62
     7
370
    25
100
AcDbLine
 10
4.8186472681
 20
4.6747476071
 30
0.0
 11
4.8184853893
 21
4.7775277657
 31
0.0
  0
LINE
  5
AF
330
1F
100
AcDbEntity
  8
0
  6
Continuous
 62
     7
370
    25
100
AcDbLine
 10
0.0202413816
 20
3.6291991534
 30
0.0
 11
0.0200795029
 21
3.5264189948
 31
0.0
  0
LINE
  5
B0
330
1F
100
AcDbEntity
  8
0
  6
Continuous
 62
     7
370
    25
100
AcDbLine
 10
0.0903288365
 20
1.231718776
 30
0.0
 11
0.0901669578
 21
1.1289386175
 31
0.0
  0
LINE
  5
B1
330
1F
100
AcDbEntity
  8
0
  6
Continuous
 62
     7
370
    25
100
AcDbLine
 10
4.8141476597
 20
2.3476034378
 30
0.0
 11
4.8139857809
 21
2.4503835964
 31
0.0
  0
LINE
  5
B2
330
1F
100
AcDbEntity
  8
0
  6
Continuous
 62
     7
370
    25
100
AcDbLine
 10
4.8324305138
 20
-0.0489242209
 30
0.0
 11
4.8322686351
 21
0.0538559376
 31
0.0
  0
ENDSEC
  0
SECTION
  2
OBJECTS
  0
DICTIONARY
  5
C
330
0
100
AcDbDictionary
281
     1
  3
ACAD_GROUP
350
D
  3
ACAD_LAYOUT
350
1A
  3
ACAD_MLINESTYLE
350
17
  3
ACAD_PLOTSETTINGS
350
19
  3
ACAD_PLOTSTYLENAME
350
E
  3
ACAD_SCALELIST
350
47
  3
DWGPROPS
350
B3
  0
DICTIONARY
  5
D
102
{ACAD_REACTORS
330
C
102
}
330
C
100
AcDbDictionary
281
     1
  0
DICTIONARY
  5
1A
102
{ACAD_REACTORS
330
C
102
}
330
C
100
AcDbDictionary
281
     1
  3
Layout1
350
1E
  3
Layout2
350
26
  3
Model
350
22
  0
DICTIONARY
  5
17
102
{ACAD_REACTORS
330
C
102
}
330
C
100
AcDbDictionary
281
     1
  3
Standard
350
18
  0
DICTIONARY
  5
19
102
{ACAD_REACTORS
330
C
102
}
330
C
100
AcDbDictionary
281
     1
  0
ACDBDICTIONARYWDFLT
  5
E
102
{ACAD_REACTORS
330
C
102
}
330
C
100
AcDbDictionary
281
     1
  3
Normal
350
F
100
AcDbDictionaryWithDefault
340
F
  0
DICTIONARY
  5
47
102
{ACAD_REACTORS
330
C
102
}
330
C
100
AcDbDictionary
281
     1
  3
A0
350
48
  3
A1
350
49
  3
A2
350
4A
  3
A3
350
4B
  3
A4
350
4C
  3
A5
350
4D
  3
A6
350
4E
  3
A7
350
4F
  3
A8
350
50
  3
A9
350
51
  3
B0
350
52
  3
B1
350
53
  3
B2
350
54
  3
B3
350
55
  3
B4
350
56
  3
B5
350
57
  3
B6
350
58
  0
XRECORD
  5
B3
102
{ACAD_REACTORS
330
C
102
}
330
C
100
AcDbXrecord
280
     1
  1
DWGPROPS COOKIE
  2

  3

  4

  6

  7

  8
subha
  9

300
=
301
=
302
=
303
=
304
=
305
=
306
=
307
=
308
=
309
=
 40
0.0
 41
2460255.412538715
 42
2460255.412568056
  1

 90
        0
  0
LAYOUT
  5
1E
102
{ACAD_REACTORS
330
1A
102
}
330
1A
100
AcDbPlotSettings
  1

  2
none_device
  4

  6

 40
0.0
 41
0.0
 42
0.0
 43
0.0
 44
0.0
 45
0.0
 46
0.0
 47
0.0
 48
0.0
 49
0.0
140
0.0
141
0.0
142
1.0
143
1.0
 70
   688
 72
     1
 73
     0
 74
     5
  7

 75
    16
147
1.0
148
0.0
149
0.0
100
AcDbLayout
  1
Layout1
 70
     1
 71
     1
 10
0.0
 20
0.0
 11
420.0
 21
297.0
 12
0.0
 22
0.0
 32
0.0
 14
1.0000000000E+20
 24
1.0000000000E+20
 34
1.0000000000E+20
 15
-1.0000000000E+20
 25
-1.0000000000E+20
 35
-1.0000000000E+20
146
0.0
 13
0.0
 23
0.0
 33
0.0
 16
1.0
 26
0.0
 36
0.0
 17
0.0
 27
1.0
 37
0.0
 76
     0
330
1B
  0
LAYOUT
  5
26
102
{ACAD_REACTORS
330
1A
102
}
330
1A
100
AcDbPlotSettings
  1

  2
none_device
  4

  6

 40
0.0
 41
0.0
 42
0.0
 43
0.0
 44
0.0
 45
0.0
 46
0.0
 47
0.0
 48
0.0
 49
0.0
140
0.0
141
0.0
142
1.0
143
1.0
 70
   688
 72
     1
 73
     0
 74
     5
  7

 75
    16
147
1.0
148
0.0
149
0.0
100
AcDbLayout
  1
Layout2
 70
     1
 71
     2
 10
0.0
 20
0.0
 11
0.0
 21
0.0
 12
0.0
 22
0.0
 32
0.0
 14
0.0
 24
0.0
 34
0.0
 15
0.0
 25
0.0
 35
0.0
146
0.0
 13
0.0
 23
0.0
 33
0.0
 16
1.0
 26
0.0
 36
0.0
 17
0.0
 27
1.0
 37
0.0
 76
     0
330
23
  0
LAYOUT
  5
22
102
{ACAD_REACTORS
330
1A
102
}
330
1A
100
AcDbPlotSettings
  1

  2
none_device
  4
ANSI_A_(11.00_x_8.50_Inches)
  6

 40
6.35
 41
19.05
 42
6.35000508
 43
19.05000254
 44
279.4
 45
215.9
 46
77.3175174556
 47
-5.8906624375
 48
0.0
 49
0.0
140
0.0
141
0.0
142
0.9063207667
143
1.0
 70
  1696
 72
     0
 73
     0
 74
     0
  7

 75
     0
147
0.0179189148
148
-1300.4909072572
149
0.0
100
AcDbLayout
  1
Model
 70
     1
 71
     0
 10
0.0
 20
0.0
 11
420.0
 21
297.0
 12
0.0
 22
0.0
 32
0.0
 14
-0.0222882248
 24
-0.5247415964
 34
0.0
 15
4.8903288365
 25
8.7600506198
 35
0.0
146
0.0
 13
0.0
 23
0.0
 33
0.0
 16
1.0
 26
0.0
 36
0.0
 17
0.0
 27
1.0
 37
0.0
 76
     0
330
1F
331
29
  0
MLINESTYLE
  5
18
102
{ACAD_REACTORS
330
17
102
}
330
17
100
AcDbMlineStyle
  2
Standard
 70
     0
  3

 62
   256
 51
90.0
 52
90.0
 71
     2
 49
0.5
 62
   256
  6
BYLAYER
 49
-0.5
 62
   256
  6
BYLAYER
  0
ACDBPLACEHOLDER
  5
F
102
{ACAD_REACTORS
330
E
102
}
330
E
  0
SCALE
  5
48
102
{ACAD_REACTORS
330
47
102
}
330
47
100
AcDbScale
 70
     0
300
1:1
140
1.0
141
1.0
290
     1
  0
SCALE
  5
49
102
{ACAD_REACTORS
330
47
102
}
330
47
100
AcDbScale
 70
     0
300
1:2
140
1.0
141
2.0
290
     0
  0
SCALE
  5
4A
102
{ACAD_REACTORS
330
47
102
}
330
47
100
AcDbScale
 70
     0
300
1:4
140
1.0
141
4.0
290
     0
  0
SCALE
  5
4B
102
{ACAD_REACTORS
330
47
102
}
330
47
100
AcDbScale
 70
     0
300
1:5
140
1.0
141
5.0
290
     0
  0
SCALE
  5
4C
102
{ACAD_REACTORS
330
47
102
}
330
47
100
AcDbScale
 70
     0
300
1:8
140
1.0
141
8.0
290
     0
  0
SCALE
  5
4D
102
{ACAD_REACTORS
330
47
102
}
330
47
100
AcDbScale
 70
     0
300
1:10
140
1.0
141
10.0
290
     0
  0
SCALE
  5
4E
102
{ACAD_REACTORS
330
47
102
}
330
47
100
AcDbScale
 70
     0
300
1:16
140
1.0
141
16.0
290
     0
  0
SCALE
  5
4F
102
{ACAD_REACTORS
330
47
102
}
330
47
100
AcDbScale
 70
     0
300
1:20
140
1.0
141
20.0
290
     0
  0
SCALE
  5
50
102
{ACAD_REACTORS
330
47
102
}
330
47
100
AcDbScale
 70
     0
300
1:30
140
1.0
141
30.0
290
     0
  0
SCALE
  5
51
102
{ACAD_REACTORS
330
47
102
}
330
47
100
AcDbScale
 70
     0
300
1:40
140
1.0
141
40.0
290
     0
  0
SCALE
  5
52
102
{ACAD_REACTORS
330
47
102
}
330
47
100
AcDbScale
 70
     0
300
1:50
140
1.0
141
50.0
290
     0
  0
SCALE
  5
53
102
{ACAD_REACTORS
330
47
102
}
330
47
100
AcDbScale
 70
     0
300
1:100
140
1.0
141
100.0
290
     0
  0
SCALE
  5
54
102
{ACAD_REACTORS
330
47
102
}
330
47
100
AcDbScale
 70
     0
300
2:1
140
2.0
141
1.0
290
     0
  0
SCALE
  5
55
102
{ACAD_REACTORS
330
47
102
}
330
47
100
AcDbScale
 70
     0
300
4:1
140
4.0
141
1.0
290
     0
  0
SCALE
  5
56
102
{ACAD_REACTORS
330
47
102
}
330
47
100
AcDbScale
 70
     0
300
8:1
140
8.0
141
1.0
290
     0
  0
SCALE
  5
57
102
{ACAD_REACTORS
330
47
102
}
330
47
100
AcDbScale
 70
     0
300
10:1
140
10.0
141
1.0
290
     0
  0
SCALE
  5
58
102
{ACAD_REACTORS
330
47
102
}
330
47
100
AcDbScale
 70
     0
300
100:1
140
100.0
141
1.0
290
     0
  0
ENDSEC
  0
EOF
